<svg width="114" height="73" viewBox="0 0 114 73" fill="none" xmlns="http://www.w3.org/2000/svg">
<path d="M96.2579 29.7512C96.7649 29.1812 97.6469 29.8072 98.5069 30.4992C102.176 33.4472 112.745 44.9222 113.566 47.0562C113.576 47.0772 113.584 47.0982 113.591 47.1192C113.602 47.1502 113.609 47.1832 113.613 47.2172C113.615 47.2312 113.617 47.2452 113.617 47.2582C113.619 47.3072 113.615 47.3572 113.605 47.4052C113.598 47.4442 113.587 47.4832 113.571 47.5202C113.455 47.7902 113.177 47.8922 112.921 47.9562C110.604 48.5342 90.7369 48.5822 89.3079 47.4342C89.2569 47.3932 89.1789 47.3032 89.1479 47.2462C88.9999 46.9772 88.6139 46.2452 92.5059 42.7672C91.6299 42.5172 90.4969 42.1302 89.9079 41.6572C89.7799 41.5542 89.6789 41.4482 89.6109 41.3372C89.4579 41.0892 89.4689 40.8652 89.5039 40.7212C89.7049 39.8982 93.1179 37.6922 96.0119 35.9492C95.7879 34.6382 95.2539 30.8802 96.2579 29.7512ZM97.8809 31.2782C97.3509 30.8522 97.0519 30.6682 96.8949 30.5902C96.4859 31.4572 96.6949 34.0452 97.0109 35.8632C98.3969 36.7392 106.498 41.8682 110.789 44.8402C107.589 40.9502 101.045 33.8222 97.8809 31.2782ZM90.1209 46.7142C92.2319 47.2812 105.697 47.5342 110.866 47.2082C108.62 46.4402 104.307 44.7542 95.9009 41.2022C95.2679 41.7162 94.6259 42.2562 94.0099 42.7912C93.9579 42.8762 93.8839 42.9382 93.7949 42.9792C91.9929 44.5582 90.4569 46.0662 90.1209 46.7142ZM93.4119 41.9732C94.0259 41.4462 94.7119 40.8742 95.5069 40.2352C95.6499 40.1202 95.8449 40.0922 96.0149 40.1642C100.646 42.1222 107.563 44.9652 111.007 46.2132C107.158 43.4802 98.2909 37.8562 96.5799 36.7732C93.9549 38.3542 91.0149 40.3112 90.5279 40.8852C90.8569 41.1972 92.0939 41.6452 93.4119 41.9732Z" fill="#365CA7"/>
<path d="M102.741 67.179H102.744L104.673 67.037L102.532 65.794C102.293 65.655 102.212 65.349 102.351 65.11C102.491 64.87 102.799 64.792 103.035 64.929L105.924 66.605L105.637 63.387C105.612 63.112 105.815 62.869 106.091 62.845H106.094C106.367 62.822 106.609 63.025 106.633 63.299L106.886 66.139L108.444 64.191C108.617 63.977 108.931 63.94 109.147 64.113C109.362 64.285 109.397 64.601 109.225 64.816L107.622 66.82L110.816 66.583C111.092 66.563 111.331 66.769 111.351 67.045C111.371 67.319 111.167 67.557 110.894 67.58H110.889L107.975 67.795L110.361 69.179C110.6 69.318 110.681 69.624 110.542 69.863C110.456 70.01 110.308 70.097 110.151 70.11C110.052 70.118 109.95 70.097 109.858 70.044L107.089 68.438L107.378 71.68C107.403 71.955 107.2 72.198 106.924 72.223H106.921C106.648 72.246 106.406 72.043 106.382 71.769L106.109 68.707L104.448 70.783C104.358 70.894 104.231 70.958 104.099 70.969C103.976 70.979 103.849 70.945 103.745 70.861C103.53 70.689 103.495 70.373 103.667 70.158L105.406 67.984L102.816 68.175C102.54 68.195 102.301 67.989 102.281 67.713C102.262 67.44 102.466 67.201 102.741 67.179Z" fill="#365CA7"/>
<path d="M35.4951 10.7512L35.5061 10.7411C36.9101 9.45215 37.0041 7.26115 35.7141 5.85615C34.4301 4.45715 32.2441 4.35915 30.8401 5.63715C30.1491 6.27215 29.7521 7.12415 29.7131 8.04715C29.6741 8.96915 29.9961 9.85215 30.6201 10.5322C31.9051 11.9312 34.0921 12.0292 35.4951 10.7512ZM31.5061 6.38415C32.5121 5.46815 34.0651 5.53815 34.9781 6.53215C35.8951 7.53115 35.8281 9.08815 34.8311 10.0042L35.1601 10.3812L34.8231 10.0112C33.8261 10.9192 32.2711 10.8491 31.3581 9.85615C30.9141 9.37315 30.6851 8.74515 30.7141 8.08915C30.7401 7.43415 31.0231 6.82815 31.5061 6.38415Z" fill="#365CA7"/>
<path d="M95.753 8.249C95.753 8.249 93.023 -1.038 92.278 0.0959984C91.534 1.23 89.3 7.454 89.3 7.454C89.3 7.454 81.443 10.103 81.649 10.632C81.854 11.162 88.699 13.943 88.699 13.943C88.699 13.943 90.913 22.021 92.154 21.227C93.395 20.432 95.545 13.988 95.545 13.988C95.545 13.988 102.578 13.309 101.71 11.706C100.841 10.103 95.753 8.249 95.753 8.249Z" fill="#E8C01B"/>
<path d="M60.574 41.8709C60.945 41.8709 61.295 41.7589 61.615 41.5379C61.843 41.3809 61.9 41.0699 61.743 40.8429C61.586 40.6149 61.275 40.5579 61.048 40.7149C60.767 40.9079 60.473 40.9199 60.12 40.7619C59.988 40.7029 59.867 40.6359 59.757 40.5599C59.528 40.4029 59.217 40.4609 59.062 40.6879C58.905 40.9159 58.963 41.2269 59.19 41.3829C59.349 41.4929 59.523 41.5899 59.713 41.6749C60.001 41.8049 60.292 41.8709 60.574 41.8709ZM62.401 39.9759C62.608 39.9759 62.801 39.8469 62.873 39.6399C63.078 39.0519 63.231 38.3619 63.329 37.5889C63.364 37.3149 63.17 37.0649 62.896 37.0299C62.617 37.0029 62.372 37.1899 62.337 37.4629C62.248 38.1669 62.11 38.7889 61.929 39.3119C61.838 39.5729 61.976 39.8579 62.237 39.9479C62.292 39.9669 62.347 39.9759 62.401 39.9759ZM58.411 39.8349C58.446 39.8349 58.482 39.8319 58.518 39.8239C58.787 39.7649 58.959 39.4989 58.9 39.2289C58.851 39.0049 58.826 38.7589 58.826 38.4979C58.826 38.1729 58.864 37.8209 58.94 37.4519C58.996 37.1809 58.821 36.9169 58.55 36.8619C58.282 36.8079 58.015 36.9809 57.96 37.2519C57.871 37.6869 57.826 38.1059 57.826 38.4989C57.826 38.8309 57.858 39.1489 57.922 39.4429C57.974 39.6749 58.181 39.8349 58.411 39.8349ZM86.02 36.7069C86.227 36.7069 86.42 36.5769 86.492 36.3699C86.504 36.3349 86.792 35.4899 86.866 34.2709C86.883 33.9959 86.673 33.7579 86.397 33.7419C86.122 33.7359 85.884 33.9349 85.868 34.2109C85.803 35.2849 85.549 36.0379 85.547 36.0449C85.458 36.3059 85.596 36.5909 85.858 36.6799C85.911 36.6979 85.966 36.7069 86.02 36.7069ZM62.954 36.0029C63.23 36.0029 63.454 35.8069 63.454 35.5299V35.4749C63.454 34.8329 63.422 34.1629 63.36 33.4849C63.335 33.2099 63.09 33.0139 62.816 33.0329C62.541 33.0579 62.338 33.3019 62.364 33.5769C62.424 34.2249 62.454 34.8639 62.454 35.4749C62.454 35.7519 62.678 36.0029 62.954 36.0029ZM59.081 35.9569C59.272 35.9569 59.453 35.8479 59.537 35.6619C59.788 35.1049 60.1 34.5379 60.464 33.9759C60.614 33.7439 60.547 33.4349 60.316 33.2849C60.084 33.1359 59.774 33.2019 59.625 33.4329C59.234 34.0369 58.898 34.6489 58.626 35.2509C58.512 35.5019 58.624 35.7989 58.876 35.9119C58.943 35.9419 59.013 35.9569 59.081 35.9569ZM30.574 34.4519C31.026 34.4519 31.424 34.3479 31.754 34.1449C31.989 33.9999 32.062 33.6919 31.918 33.4569C31.773 33.2209 31.465 33.1479 31.23 33.2929C31.059 33.3979 30.838 33.4519 30.574 33.4519L30.438 33.4479C30.186 33.4319 29.96 33.3799 29.766 33.2939C29.515 33.1799 29.218 33.2949 29.106 33.5469C28.993 33.7989 29.106 34.0949 29.359 34.2069C29.662 34.3419 30.003 34.4229 30.373 34.4459C30.44 34.4499 30.508 34.4519 30.574 34.4519ZM0.499985 33.0409C0.774986 33.0409 0.997986 32.8189 0.999985 32.5429C1.00098 32.2799 1.01498 31.5629 1.11898 30.5889C1.14798 30.3139 0.949982 30.0679 0.67498 30.0389C0.394981 30.0139 0.153984 30.2089 0.124985 30.4829C0.0199814 31.4649 0.000984192 32.1919 -1.52588e-05 32.5379C-0.00201416 32.8139 0.221985 33.0389 0.497986 33.0399L0.499985 33.0409ZM86.253 32.7479C86.283 32.7479 86.314 32.7449 86.344 32.7399C86.616 32.6899 86.795 32.4289 86.745 32.1579C86.613 31.4399 86.385 30.7589 86.067 30.1329C85.942 29.8859 85.641 29.7869 85.395 29.9129C85.149 30.0379 85.05 30.3389 85.175 30.5849C85.449 31.1259 85.646 31.7159 85.761 32.3389C85.806 32.5799 86.016 32.7479 86.253 32.7479ZM28.381 32.7279C28.421 32.7279 28.461 32.7229 28.502 32.7129C28.77 32.6469 28.934 32.3759 28.867 32.1079C28.805 31.8579 28.774 31.5739 28.774 31.2649C28.774 30.9729 28.802 30.6559 28.859 30.3249C28.905 30.0529 28.722 29.7949 28.449 29.7479C28.177 29.7059 27.919 29.8859 27.872 30.1579C27.807 30.5439 27.773 30.9159 27.773 31.2649C27.773 31.6549 27.814 32.0189 27.896 32.3479C27.952 32.5759 28.156 32.7279 28.381 32.7279ZM61.233 32.5959C61.377 32.5959 61.519 32.5349 61.617 32.4159C61.791 32.2079 61.972 32.0009 62.159 31.7969C62.261 31.9749 62.468 32.0779 62.681 32.0409C62.953 31.9919 63.134 31.7319 63.085 31.4609C63.054 31.2899 63.022 31.1179 62.987 30.9469C63.143 30.7539 63.135 30.4699 62.958 30.2859C62.917 30.2439 62.872 30.2109 62.822 30.1859C62.766 29.9449 62.706 29.7049 62.643 29.4669C62.572 29.1999 62.298 29.0419 62.032 29.1109C61.765 29.1819 61.606 29.4549 61.677 29.7219C61.756 30.0189 61.829 30.3189 61.896 30.6209C61.528 30.9939 61.177 31.3799 60.849 31.7729C60.672 31.9849 60.701 32.2999 60.912 32.4769C61.006 32.5579 61.12 32.5959 61.233 32.5959ZM32.277 32.4179C32.546 32.4179 32.765 32.2519 32.773 31.9819L32.774 31.8479C32.774 31.2669 32.672 30.5979 32.472 29.8639C32.398 29.5969 32.122 29.4419 31.858 29.5129C31.591 29.5859 31.435 29.8609 31.507 30.1269C31.684 30.7749 31.774 31.3559 31.774 31.8539C31.767 32.1299 31.984 32.4109 32.26 32.4169C32.266 32.4179 32.272 32.4179 32.277 32.4179ZM64.111 29.8249C64.218 29.8249 64.326 29.7909 64.418 29.7199C64.932 29.3209 65.469 28.9459 66.015 28.6069C66.25 28.4609 66.322 28.1529 66.176 27.9189C66.03 27.6839 65.722 27.6129 65.487 27.7579C64.911 28.1159 64.344 28.5099 63.803 28.9319C63.585 29.1009 63.546 29.4149 63.716 29.6339C63.815 29.7589 63.962 29.8249 64.111 29.8249ZM84.465 29.2379C84.59 29.2379 84.715 29.1919 84.812 29.0979C85.011 28.9069 85.017 28.5899 84.825 28.3909C84.352 27.9009 83.795 27.4569 83.169 27.0709C82.935 26.9249 82.626 26.9999 82.481 27.2349C82.336 27.4699 82.409 27.7779 82.645 27.9229C83.2 28.2649 83.691 28.6559 84.105 29.0859C84.203 29.1869 84.334 29.2379 84.465 29.2379ZM0.917984 29.0539C1.15298 29.0539 1.36198 28.8869 1.40898 28.6479C1.53398 27.9969 1.68598 27.3559 1.86198 26.7429C1.93798 26.4769 1.78398 26.2009 1.51898 26.1249C1.25198 26.0479 0.975983 26.2029 0.900986 26.4679C0.716988 27.1099 0.557983 27.7809 0.426987 28.4599C0.374985 28.7309 0.551979 28.9929 0.823982 29.0449C0.85498 29.0509 0.886986 29.0539 0.917984 29.0539ZM28.921 28.8239C29.12 28.8239 29.308 28.7049 29.385 28.5089C29.594 27.9859 29.853 27.4509 30.156 26.9179C30.416 27.3889 30.649 27.8569 30.851 28.3159C30.962 28.5689 31.256 28.6839 31.511 28.5709C31.763 28.4589 31.878 28.1639 31.766 27.9109C31.5 27.3099 31.186 26.6949 30.832 26.0809C30.694 25.8419 30.388 25.7589 30.149 25.8979C30.077 25.9399 30.02 25.9959 29.978 26.0609C29.752 25.9779 29.495 26.0639 29.37 26.2769C29.007 26.8979 28.699 27.5239 28.455 28.1379C28.352 28.3949 28.478 28.6849 28.734 28.7869C28.796 28.8129 28.859 28.8239 28.921 28.8239ZM61.567 28.1849C61.623 28.1849 61.68 28.1759 61.736 28.1559C61.996 28.0629 62.131 27.7759 62.038 27.5159C61.805 26.8669 61.543 26.2299 61.26 25.6239C61.143 25.3739 60.844 25.2679 60.595 25.3819C60.345 25.4989 60.237 25.7969 60.353 26.0469C60.623 26.6259 60.873 27.2339 61.096 27.8539C61.169 28.0579 61.362 28.1849 61.567 28.1849ZM67.504 27.7199C67.577 27.7199 67.65 27.7039 67.72 27.6709C68.304 27.3899 68.908 27.1409 69.515 26.9299C69.776 26.8399 69.914 26.5549 69.823 26.2939C69.733 26.0329 69.448 25.8929 69.187 25.9859C68.544 26.2089 67.905 26.4729 67.287 26.7699C67.038 26.8899 66.933 27.1879 67.053 27.4369C67.139 27.6149 67.318 27.7199 67.504 27.7199ZM81.114 27.1229C81.315 27.1229 81.505 26.9999 81.581 26.8009C81.679 26.5429 81.55 26.2539 81.292 26.1559C80.685 25.9239 80.021 25.7239 79.316 25.5599C79.043 25.4989 78.778 25.6639 78.715 25.9329C78.652 26.2019 78.819 26.4709 79.088 26.5339C79.749 26.6879 80.37 26.8759 80.935 27.0909C80.994 27.1119 81.055 27.1229 81.114 27.1229ZM71.273 26.4129C71.309 26.4129 71.345 26.4089 71.381 26.4009C72.013 26.2609 72.657 26.1599 73.295 26.0989C73.57 26.0729 73.771 25.8279 73.745 25.5539C73.719 25.2799 73.485 25.0699 73.2 25.1039C72.522 25.1689 71.838 25.2769 71.166 25.4249C70.896 25.4849 70.726 25.7509 70.786 26.0209C70.836 26.2539 71.044 26.4129 71.273 26.4129ZM77.236 26.1959C77.484 26.1959 77.699 26.0119 77.732 25.7599C77.767 25.4859 77.574 25.2359 77.3 25.1999C76.999 25.1609 76.688 25.1269 76.367 25.0969C75.994 25.0629 75.624 25.0409 75.257 25.0319C74.985 25.0389 74.751 25.2429 74.744 25.5189C74.737 25.7949 74.955 26.0249 75.231 26.0319C75.576 26.0409 75.925 26.0609 76.276 26.0939C76.584 26.1219 76.882 26.1549 77.172 26.1929C77.194 26.1949 77.215 26.1959 77.236 26.1959ZM30.917 25.3699C31.068 25.3699 31.217 25.3019 31.315 25.1729C31.701 24.6649 32.126 24.1669 32.577 23.6929C32.767 23.4929 32.76 23.1759 32.559 22.9859C32.359 22.7959 32.042 22.8039 31.852 23.0029C31.376 23.5029 30.928 24.0289 30.519 24.5659C30.352 24.7859 30.394 25.0989 30.614 25.2669C30.705 25.3359 30.812 25.3699 30.917 25.3699ZM2.02499 25.2109C2.22298 25.2109 2.41098 25.0919 2.48898 24.8969C2.73598 24.2789 3.01298 23.6879 3.31198 23.1379C3.44398 22.8949 3.35398 22.5919 3.11098 22.4599C2.86899 22.3289 2.56499 22.4179 2.43298 22.6609C2.11598 23.2449 1.82298 23.8719 1.55998 24.5259C1.45699 24.7819 1.58199 25.0729 1.83798 25.1759C1.89998 25.1999 1.96299 25.2109 2.02499 25.2109ZM29.322 25.1459C29.422 25.1459 29.522 25.1159 29.61 25.0549C29.836 24.8959 29.89 24.5839 29.731 24.3579C29.339 23.8029 28.919 23.2589 28.483 22.7399C28.305 22.5289 27.99 22.5019 27.779 22.6789C27.568 22.8569 27.54 23.1719 27.718 23.3829C28.136 23.8799 28.538 24.4019 28.913 24.9329C29.01 25.0719 29.165 25.1459 29.322 25.1459ZM59.872 24.5689C59.959 24.5689 60.048 24.5459 60.128 24.4979C60.365 24.3559 60.442 24.0489 60.3 23.8119C59.943 23.2149 59.555 22.6429 59.146 22.1089C58.978 21.8909 58.665 21.8489 58.445 22.0159C58.226 22.1839 58.184 22.4979 58.352 22.7169C58.738 23.2199 59.104 23.7609 59.441 24.3249C59.536 24.4819 59.702 24.5689 59.872 24.5689ZM33.667 22.4729C33.782 22.4729 33.897 22.4329 33.992 22.3529C34.481 21.9349 35.001 21.5349 35.536 21.1649C35.763 21.0079 35.82 20.6959 35.662 20.4689C35.505 20.2419 35.194 20.1849 34.966 20.3419C34.403 20.7319 33.857 21.1529 33.342 21.5919C33.132 21.7719 33.107 22.0869 33.286 22.2969C33.386 22.4139 33.526 22.4729 33.667 22.4729ZM26.747 22.0879C26.875 22.0879 27.003 22.0389 27.101 21.9409C27.296 21.7459 27.296 21.4289 27.101 21.2339C26.615 20.7479 26.106 20.2829 25.591 19.8539C25.379 19.6779 25.064 19.7059 24.887 19.9179C24.71 20.1299 24.739 20.4449 24.951 20.6219C25.443 21.0319 25.929 21.4759 26.394 21.9409C26.491 22.0389 26.619 22.0879 26.747 22.0879ZM3.94199 21.7109C4.09499 21.7109 4.24699 21.6409 4.34499 21.5079C4.73199 20.9839 5.15298 20.4939 5.59798 20.0529C5.79398 19.8589 5.79498 19.5419 5.60098 19.3459C5.40698 19.1489 5.08998 19.1479 4.89398 19.3429C4.41298 19.8189 3.95699 20.3479 3.53999 20.9139C3.37598 21.1369 3.42298 21.4499 3.64498 21.6129C3.73498 21.6789 3.83899 21.7109 3.94199 21.7109ZM57.436 21.4099C57.564 21.4099 57.692 21.3609 57.79 21.2629C57.985 21.0679 57.985 20.7509 57.79 20.5559C57.294 20.0599 56.768 19.6039 56.226 19.1999C56.004 19.0329 55.691 19.0809 55.526 19.3019C55.361 19.5239 55.407 19.8369 55.628 20.0019C56.132 20.3769 56.621 20.8009 57.083 21.2629C57.18 21.3609 57.308 21.4099 57.436 21.4099ZM36.949 20.1989C37.031 20.1989 37.115 20.1789 37.191 20.1359C37.756 19.8229 38.344 19.5319 38.941 19.2739C39.194 19.1639 39.311 18.8699 39.2 18.6159C39.091 18.3629 38.797 18.2449 38.542 18.3569C37.917 18.6279 37.298 18.9329 36.706 19.2619C36.465 19.3959 36.377 19.6999 36.512 19.9419C36.603 20.1059 36.773 20.1989 36.949 20.1989ZM23.676 19.5319C23.836 19.5319 23.993 19.4549 24.09 19.3139C24.246 19.0849 24.187 18.7739 23.959 18.6189C23.386 18.2289 22.796 17.8699 22.205 17.5539C21.962 17.4249 21.659 17.5149 21.528 17.7589C21.398 18.0019 21.49 18.3049 21.733 18.4359C22.293 18.7359 22.853 19.0749 23.396 19.4449C23.481 19.5039 23.58 19.5319 23.676 19.5319ZM54.239 19.0349C54.419 19.0349 54.592 18.9379 54.681 18.7679C54.81 18.5239 54.717 18.2219 54.472 18.0929C53.866 17.7729 53.226 17.4959 52.569 17.2709C52.307 17.1829 52.024 17.3209 51.934 17.5819C51.845 17.8429 51.984 18.1269 52.245 18.2169C52.853 18.4249 53.445 18.6809 54.006 18.9769C54.081 19.0159 54.161 19.0349 54.239 19.0349ZM6.77499 18.9159C6.87399 18.9159 6.97498 18.8869 7.06198 18.8249C7.57998 18.4609 8.13499 18.1369 8.71098 17.8619C8.95998 17.7429 9.06599 17.4449 8.94698 17.1959C8.82798 16.9469 8.52998 16.8409 8.28098 16.9599C7.65398 17.2589 7.04999 17.6109 6.48598 18.0069C6.25999 18.1659 6.20599 18.4779 6.36398 18.7039C6.46298 18.8419 6.61799 18.9159 6.77499 18.9159ZM40.61 18.6079C40.661 18.6079 40.713 18.5999 40.764 18.5839C41.38 18.3839 42.014 18.2099 42.647 18.0669C42.917 18.0059 43.085 17.7379 43.024 17.4689C42.963 17.1989 42.695 17.0299 42.426 17.0909C41.762 17.2409 41.099 17.4239 40.455 17.6329C40.192 17.7179 40.048 17.9999 40.134 18.2629C40.203 18.4739 40.399 18.6079 40.61 18.6079ZM50.476 17.7439C50.713 17.7439 50.924 17.5739 50.968 17.3329C51.017 17.0609 50.836 16.8009 50.565 16.7519C49.904 16.6329 49.214 16.5569 48.514 16.5269C48.238 16.5189 48.005 16.7289 47.993 17.0049C47.981 17.2809 48.195 17.5139 48.471 17.5259C49.126 17.5539 49.771 17.6249 50.387 17.7359C50.417 17.7419 50.447 17.7439 50.476 17.7439ZM44.503 17.7249C44.525 17.7249 44.548 17.7239 44.57 17.7209C45.208 17.6349 45.864 17.5749 46.518 17.5429C46.793 17.5289 47.006 17.2949 46.993 17.0189C46.98 16.7429 46.761 16.5259 46.468 16.5439C45.786 16.5779 45.102 16.6399 44.436 16.7299C44.163 16.7669 43.971 17.0189 44.007 17.2929C44.041 17.5429 44.256 17.7249 44.503 17.7249ZM20.155 17.6539C20.354 17.6539 20.543 17.5339 20.62 17.3369C20.721 17.0799 20.595 16.7899 20.338 16.6889C19.693 16.4359 19.033 16.2229 18.376 16.0569C18.109 15.9909 17.836 16.1519 17.769 16.4189C17.702 16.6859 17.864 16.9579 18.131 17.0259C18.747 17.1819 19.366 17.3809 19.972 17.6189C20.032 17.6429 20.094 17.6539 20.155 17.6539ZM10.359 17.1999C10.406 17.1999 10.453 17.1939 10.501 17.1789C11.1 17.0019 11.732 16.8629 12.381 16.7659C12.654 16.7249 12.842 16.4699 12.801 16.1969C12.759 15.9239 12.502 15.7399 12.232 15.7769C11.538 15.8809 10.86 16.0299 10.217 16.2199C9.95198 16.2979 9.80098 16.5769 9.87898 16.8409C9.94398 17.0589 10.143 17.1999 10.359 17.1999ZM16.29 16.6829C16.541 16.6829 16.757 16.4949 16.787 16.2389C16.818 15.9649 16.621 15.7169 16.346 15.6859C15.665 15.6089 14.976 15.5749 14.281 15.5959C14.005 15.6039 13.787 15.8339 13.795 16.1099C13.803 16.3859 14.016 16.5969 14.309 16.5959L14.668 16.5909C15.191 16.5909 15.718 16.6209 16.235 16.6799C16.252 16.6819 16.272 16.6829 16.29 16.6829Z" fill="#365CA7"/>
</svg>
