<svg width="114" height="73" viewBox="0 0 114 73" fill="none" xmlns="http://www.w3.org/2000/svg">
<path d="M17.3595 29.7512C16.8525 29.1812 15.9705 29.8072 15.1105 30.4992C11.4415 33.4472 0.8725 44.9222 0.0514996 47.0562C0.0414996 47.0772 0.0335 47.0982 0.0265 47.1192C0.0155 47.1502 0.0084997 47.1832 0.0044997 47.2172C0.0024997 47.2312 0.000499994 47.2452 0.000499994 47.2582C-0.00150001 47.3072 0.00250008 47.3572 0.0125001 47.4052C0.0195001 47.4442 0.0304995 47.4832 0.0464995 47.5202C0.1625 47.7902 0.4405 47.8922 0.6965 47.9562C3.0135 48.5342 22.8805 48.5822 24.3095 47.4342C24.3605 47.3932 24.4385 47.3032 24.4695 47.2462C24.6175 46.9772 25.0035 46.2452 21.1115 42.7672C21.9875 42.5172 23.1205 42.1302 23.7095 41.6572C23.8375 41.5542 23.9385 41.4482 24.0065 41.3372C24.1595 41.0892 24.1485 40.8652 24.1135 40.7212C23.9125 39.8982 20.4995 37.6922 17.6055 35.9492C17.8295 34.6382 18.3635 30.8802 17.3595 29.7512ZM15.7365 31.2782C16.2665 30.8522 16.5655 30.6682 16.7225 30.5902C17.1315 31.4572 16.9225 34.0452 16.6065 35.8632C15.2205 36.7392 7.1195 41.8682 2.8285 44.8402C6.0285 40.9502 12.5725 33.8222 15.7365 31.2782ZM23.4965 46.7142C21.3855 47.2812 7.9205 47.5342 2.7515 47.2082C4.9975 46.4402 9.3105 44.7542 17.7165 41.2022C18.3495 41.7162 18.9915 42.2562 19.6075 42.7912C19.6595 42.8762 19.7335 42.9382 19.8225 42.9792C21.6245 44.5582 23.1605 46.0662 23.4965 46.7142ZM20.2055 41.9732C19.5915 41.4462 18.9055 40.8742 18.1105 40.2352C17.9675 40.1202 17.7725 40.0922 17.6025 40.1642C12.9715 42.1222 6.0545 44.9652 2.6105 46.2132C6.4595 43.4802 15.3265 37.8562 17.0375 36.7732C19.6625 38.3542 22.6025 40.3112 23.0895 40.8852C22.7605 41.1972 21.5235 41.6452 20.2055 41.9732Z" fill="#365CA7"/>
<path d="M10.8765 67.179H10.8735L8.94449 67.037L11.0855 65.794C11.3245 65.655 11.4055 65.349 11.2665 65.11C11.1265 64.87 10.8185 64.792 10.5825 64.929L7.69349 66.605L7.98049 63.387C8.00549 63.112 7.80249 62.869 7.52649 62.845H7.52349C7.25049 62.822 7.00849 63.025 6.98449 63.299L6.73149 66.139L5.17349 64.191C5.00049 63.977 4.68649 63.94 4.47049 64.113C4.25549 64.285 4.22049 64.601 4.39249 64.816L5.99549 66.82L2.80149 66.583C2.52549 66.563 2.28649 66.769 2.26649 67.045C2.24649 67.319 2.45049 67.557 2.72349 67.58H2.72849L5.64249 67.795L3.25649 69.179C3.01749 69.318 2.93649 69.624 3.07549 69.863C3.16149 70.01 3.30949 70.097 3.46649 70.11C3.56549 70.118 3.66749 70.097 3.75949 70.044L6.52849 68.438L6.23949 71.68C6.21449 71.955 6.41749 72.198 6.69349 72.223H6.69649C6.96949 72.246 7.21149 72.043 7.23549 71.769L7.50849 68.707L9.16949 70.783C9.25949 70.894 9.38649 70.958 9.51849 70.969C9.64149 70.979 9.76849 70.945 9.87249 70.861C10.0875 70.689 10.1225 70.373 9.95049 70.158L8.21149 67.984L10.8015 68.175C11.0775 68.195 11.3165 67.989 11.3365 67.713C11.3555 67.44 11.1515 67.201 10.8765 67.179Z" fill="#365CA7"/>
<path d="M78.1223 10.7512L78.1113 10.7411C76.7073 9.45215 76.6133 7.26115 77.9033 5.85615C79.1873 4.45715 81.3733 4.35915 82.7773 5.63715C83.4683 6.27215 83.8653 7.12415 83.9043 8.04715C83.9433 8.96915 83.6213 9.85215 82.9973 10.5322C81.7123 11.9312 79.5253 12.0292 78.1223 10.7512ZM82.1113 6.38415C81.1053 5.46815 79.5523 5.53815 78.6393 6.53215C77.7223 7.53115 77.7893 9.08815 78.7863 10.0042L78.4573 10.3812L78.7943 10.0112C79.7913 10.9192 81.3463 10.8491 82.2593 9.85615C82.7033 9.37315 82.9323 8.74515 82.9033 8.08915C82.8773 7.43415 82.5943 6.82815 82.1113 6.38415Z" fill="#365CA7"/>
<path d="M17.8645 8.249C17.8645 8.249 20.5945 -1.038 21.3395 0.0959984C22.0835 1.23 24.3175 7.454 24.3175 7.454C24.3175 7.454 32.1745 10.103 31.9685 10.632C31.7635 11.162 24.9185 13.943 24.9185 13.943C24.9185 13.943 22.7045 22.021 21.4635 21.227C20.2225 20.432 18.0725 13.988 18.0725 13.988C18.0725 13.988 11.0395 13.309 11.9075 11.706C12.7765 10.103 17.8645 8.249 17.8645 8.249Z" fill="#E8C01B"/>
<path d="M53.0435 41.8709C52.6725 41.8709 52.3225 41.7589 52.0025 41.5379C51.7745 41.3809 51.7174 41.0699 51.8744 40.8429C52.0314 40.6149 52.3424 40.5579 52.5694 40.7149C52.8504 40.9079 53.1444 40.9199 53.4974 40.7619C53.6294 40.7029 53.7504 40.6359 53.8604 40.5599C54.0894 40.4029 54.4004 40.4609 54.5554 40.6879C54.7124 40.9159 54.6544 41.2269 54.4275 41.3829C54.2684 41.4929 54.0945 41.5899 53.9045 41.6749C53.6165 41.8049 53.3255 41.8709 53.0435 41.8709ZM51.2165 39.9759C51.0095 39.9759 50.8165 39.8469 50.7445 39.6399C50.5395 39.0519 50.3864 38.3619 50.2885 37.5889C50.2535 37.3149 50.4474 37.0649 50.7214 37.0299C51.0004 37.0029 51.2455 37.1899 51.2805 37.4629C51.3695 38.1669 51.5075 38.7889 51.6885 39.3119C51.7795 39.5729 51.6414 39.8579 51.3804 39.9479C51.3254 39.9669 51.2705 39.9759 51.2165 39.9759ZM55.2064 39.8349C55.1714 39.8349 55.1355 39.8319 55.0995 39.8239C54.8305 39.7649 54.6585 39.4989 54.7175 39.2289C54.7665 39.0049 54.7914 38.7589 54.7914 38.4979C54.7914 38.1729 54.7535 37.8209 54.6775 37.4519C54.6215 37.1809 54.7964 36.9169 55.0674 36.8619C55.3354 36.8079 55.6024 36.9809 55.6574 37.2519C55.7465 37.6869 55.7915 38.1059 55.7915 38.4989C55.7915 38.8309 55.7595 39.1489 55.6955 39.4429C55.6435 39.6749 55.4364 39.8349 55.2064 39.8349ZM27.5974 36.7069C27.3904 36.7069 27.1974 36.5769 27.1254 36.3699C27.1134 36.3349 26.8255 35.4899 26.7515 34.2709C26.7345 33.9959 26.9444 33.7579 27.2204 33.7419C27.4954 33.7359 27.7334 33.9349 27.7494 34.2109C27.8144 35.2849 28.0685 36.0379 28.0705 36.0449C28.1595 36.3059 28.0215 36.5909 27.7595 36.6799C27.7065 36.6979 27.6514 36.7069 27.5974 36.7069ZM50.6635 36.0029C50.3875 36.0029 50.1635 35.8069 50.1635 35.5299V35.4749C50.1635 34.8329 50.1954 34.1629 50.2574 33.4849C50.2824 33.2099 50.5275 33.0139 50.8015 33.0329C51.0765 33.0579 51.2794 33.3019 51.2535 33.5769C51.1935 34.2249 51.1635 34.8639 51.1635 35.4749C51.1635 35.7519 50.9394 36.0029 50.6635 36.0029ZM54.5365 35.9569C54.3455 35.9569 54.1644 35.8479 54.0805 35.6619C53.8295 35.1049 53.5174 34.5379 53.1534 33.9759C53.0034 33.7439 53.0704 33.4349 53.3015 33.2849C53.5335 33.1359 53.8434 33.2019 53.9924 33.4329C54.3834 34.0369 54.7194 34.6489 54.9914 35.2509C55.1054 35.5019 54.9935 35.7989 54.7414 35.9119C54.6744 35.9419 54.6045 35.9569 54.5365 35.9569ZM83.0435 34.4519C82.5915 34.4519 82.1935 34.3479 81.8635 34.1449C81.6285 33.9999 81.5555 33.6919 81.6995 33.4569C81.8445 33.2209 82.1525 33.1479 82.3875 33.2929C82.5585 33.3979 82.7795 33.4519 83.0435 33.4519L83.1795 33.4479C83.4315 33.4319 83.6575 33.3799 83.8515 33.2939C84.1025 33.1799 84.3995 33.2949 84.5115 33.5469C84.6245 33.7989 84.5114 34.0949 84.2584 34.2069C83.9554 34.3419 83.6144 34.4229 83.2444 34.4459C83.1774 34.4499 83.1095 34.4519 83.0435 34.4519ZM113.117 33.0409C112.842 33.0409 112.619 32.8189 112.617 32.5429C112.616 32.2799 112.602 31.5629 112.498 30.5889C112.469 30.3139 112.667 30.0679 112.942 30.0389C113.222 30.0139 113.463 30.2089 113.492 30.4829C113.597 31.4649 113.616 32.1919 113.617 32.5379C113.619 32.8139 113.395 33.0389 113.119 33.0399L113.117 33.0409ZM27.3645 32.7479C27.3345 32.7479 27.3035 32.7449 27.2735 32.7399C27.0015 32.6899 26.8225 32.4289 26.8725 32.1579C27.0045 31.4399 27.2325 30.7589 27.5505 30.1329C27.6755 29.8859 27.9764 29.7869 28.2224 29.9129C28.4684 30.0379 28.5674 30.3389 28.4424 30.5849C28.1684 31.1259 27.9715 31.7159 27.8565 32.3389C27.8115 32.5799 27.6015 32.7479 27.3645 32.7479ZM85.2365 32.7279C85.1965 32.7279 85.1565 32.7229 85.1155 32.7129C84.8475 32.6469 84.6835 32.3759 84.7505 32.1079C84.8125 31.8579 84.8434 31.5739 84.8434 31.2649C84.8434 30.9729 84.8154 30.6559 84.7584 30.3249C84.7124 30.0529 84.8955 29.7949 85.1685 29.7479C85.4405 29.7059 85.6984 29.8859 85.7454 30.1579C85.8104 30.5439 85.8444 30.9159 85.8444 31.2649C85.8444 31.6549 85.8035 32.0189 85.7215 32.3479C85.6655 32.5759 85.4615 32.7279 85.2365 32.7279ZM52.3845 32.5959C52.2405 32.5959 52.0984 32.5349 52.0004 32.4159C51.8264 32.2079 51.6454 32.0009 51.4584 31.7969C51.3564 31.9749 51.1494 32.0779 50.9364 32.0409C50.6644 31.9919 50.4834 31.7319 50.5324 31.4609C50.5634 31.2899 50.5954 31.1179 50.6304 30.9469C50.4744 30.7539 50.4824 30.4699 50.6594 30.2859C50.7004 30.2439 50.7455 30.2109 50.7955 30.1859C50.8514 29.9449 50.9115 29.7049 50.9745 29.4669C51.0455 29.1999 51.3195 29.0419 51.5855 29.1109C51.8525 29.1819 52.0114 29.4549 51.9405 29.7219C51.8615 30.0189 51.7884 30.3189 51.7214 30.6209C52.0894 30.9939 52.4405 31.3799 52.7684 31.7729C52.9454 31.9849 52.9165 32.2999 52.7055 32.4769C52.6115 32.5579 52.4975 32.5959 52.3845 32.5959ZM81.3405 32.4179C81.0714 32.4179 80.8524 32.2519 80.8444 31.9819L80.8434 31.8479C80.8434 31.2669 80.9454 30.5979 81.1455 29.8639C81.2195 29.5969 81.4954 29.4419 81.7594 29.5129C82.0264 29.5859 82.1825 29.8609 82.1105 30.1269C81.9335 30.7749 81.8434 31.3559 81.8434 31.8539C81.8504 32.1299 81.6334 32.4109 81.3574 32.4169C81.3514 32.4179 81.3455 32.4179 81.3405 32.4179ZM49.5064 29.8249C49.3994 29.8249 49.2914 29.7909 49.1994 29.7199C48.6854 29.3209 48.1484 28.9459 47.6024 28.6069C47.3674 28.4609 47.2955 28.1529 47.4415 27.9189C47.5875 27.6839 47.8954 27.6129 48.1304 27.7579C48.7064 28.1159 49.2735 28.5099 49.8145 28.9319C50.0325 29.1009 50.0714 29.4149 49.9014 29.6339C49.8024 29.7589 49.6554 29.8249 49.5064 29.8249ZM29.1524 29.2379C29.0274 29.2379 28.9024 29.1919 28.8054 29.0979C28.6064 28.9069 28.6005 28.5899 28.7925 28.3909C29.2655 27.9009 29.8225 27.4569 30.4485 27.0709C30.6825 26.9249 30.9915 26.9999 31.1365 27.2349C31.2815 27.4699 31.2084 27.7779 30.9724 27.9229C30.4174 28.2649 29.9264 28.6559 29.5124 29.0859C29.4144 29.1869 29.2834 29.2379 29.1524 29.2379ZM112.699 29.0539C112.464 29.0539 112.255 28.8869 112.208 28.6479C112.083 27.9969 111.931 27.3559 111.755 26.7429C111.679 26.4769 111.833 26.2009 112.098 26.1249C112.365 26.0479 112.641 26.2029 112.716 26.4679C112.9 27.1099 113.059 27.7809 113.19 28.4599C113.242 28.7309 113.065 28.9929 112.793 29.0449C112.762 29.0509 112.73 29.0539 112.699 29.0539ZM84.6965 28.8239C84.4975 28.8239 84.3094 28.7049 84.2324 28.5089C84.0234 27.9859 83.7645 27.4509 83.4615 26.9179C83.2015 27.3889 82.9685 27.8569 82.7665 28.3159C82.6555 28.5689 82.3615 28.6839 82.1064 28.5709C81.8545 28.4589 81.7395 28.1639 81.8515 27.9109C82.1175 27.3099 82.4314 26.6949 82.7854 26.0809C82.9235 25.8419 83.2295 25.7589 83.4684 25.8979C83.5404 25.9399 83.5975 25.9959 83.6395 26.0609C83.8655 25.9779 84.1225 26.0639 84.2475 26.2769C84.6105 26.8979 84.9184 27.5239 85.1624 28.1379C85.2654 28.3949 85.1395 28.6849 84.8834 28.7869C84.8214 28.8129 84.7585 28.8239 84.6965 28.8239ZM52.0505 28.1849C51.9945 28.1849 51.9374 28.1759 51.8814 28.1559C51.6214 28.0629 51.4865 27.7759 51.5795 27.5159C51.8125 26.8669 52.0745 26.2299 52.3575 25.6239C52.4745 25.3739 52.7735 25.2679 53.0225 25.3819C53.2725 25.4989 53.3804 25.7969 53.2644 26.0469C52.9944 26.6259 52.7444 27.2339 52.5214 27.8539C52.4484 28.0579 52.2555 28.1849 52.0505 28.1849ZM46.1135 27.7199C46.0405 27.7199 45.9675 27.7039 45.8975 27.6709C45.3135 27.3899 44.7094 27.1409 44.1024 26.9299C43.8414 26.8399 43.7035 26.5549 43.7945 26.2939C43.8845 26.0329 44.1694 25.8929 44.4304 25.9859C45.0734 26.2089 45.7125 26.4729 46.3305 26.7699C46.5795 26.8899 46.6845 27.1879 46.5645 27.4369C46.4785 27.6149 46.2995 27.7199 46.1135 27.7199ZM32.5035 27.1229C32.3025 27.1229 32.1125 26.9999 32.0365 26.8009C31.9385 26.5429 32.0674 26.2539 32.3254 26.1559C32.9324 25.9239 33.5965 25.7239 34.3015 25.5599C34.5745 25.4989 34.8394 25.6639 34.9024 25.9329C34.9654 26.2019 34.7985 26.4709 34.5295 26.5339C33.8685 26.6879 33.2475 26.8759 32.6825 27.0909C32.6235 27.1119 32.5625 27.1229 32.5035 27.1229ZM42.3444 26.4129C42.3084 26.4129 42.2724 26.4089 42.2364 26.4009C41.6044 26.2609 40.9605 26.1599 40.3225 26.0989C40.0475 26.0729 39.8464 25.8279 39.8724 25.5539C39.8984 25.2799 40.1325 25.0699 40.4175 25.1039C41.0955 25.1689 41.7794 25.2769 42.4514 25.4249C42.7214 25.4849 42.8914 25.7509 42.8314 26.0209C42.7815 26.2539 42.5735 26.4129 42.3444 26.4129ZM36.3814 26.1959C36.1334 26.1959 35.9185 26.0119 35.8855 25.7599C35.8505 25.4859 36.0434 25.2359 36.3174 25.1999C36.6184 25.1609 36.9294 25.1269 37.2504 25.0969C37.6234 25.0629 37.9934 25.0409 38.3604 25.0319C38.6324 25.0389 38.8664 25.2429 38.8734 25.5189C38.8804 25.7949 38.6624 26.0249 38.3864 26.0319C38.0414 26.0409 37.6925 26.0609 37.3415 26.0939C37.0335 26.1219 36.7355 26.1549 36.4455 26.1929C36.4235 26.1949 36.4024 26.1959 36.3814 26.1959ZM82.7005 25.3699C82.5494 25.3699 82.4004 25.3019 82.3024 25.1729C81.9164 24.6649 81.4915 24.1669 81.0405 23.6929C80.8505 23.4929 80.8575 23.1759 81.0585 22.9859C81.2585 22.7959 81.5755 22.8039 81.7655 23.0029C82.2415 23.5029 82.6895 24.0289 83.0985 24.5659C83.2655 24.7859 83.2235 25.0989 83.0035 25.2669C82.9125 25.3359 82.8055 25.3699 82.7005 25.3699ZM111.592 25.2109C111.394 25.2109 111.206 25.0919 111.128 24.8969C110.881 24.2789 110.604 23.6879 110.305 23.1379C110.173 22.8949 110.263 22.5919 110.506 22.4599C110.748 22.3289 111.052 22.4179 111.184 22.6609C111.501 23.2449 111.794 23.8719 112.057 24.5259C112.16 24.7819 112.035 25.0729 111.779 25.1759C111.717 25.1999 111.654 25.2109 111.592 25.2109ZM84.2955 25.1459C84.1955 25.1459 84.0955 25.1159 84.0075 25.0549C83.7814 24.8959 83.7275 24.5839 83.8865 24.3579C84.2785 23.8029 84.6984 23.2589 85.1344 22.7399C85.3125 22.5289 85.6275 22.5019 85.8385 22.6789C86.0494 22.8569 86.0774 23.1719 85.8994 23.3829C85.4814 23.8799 85.0794 24.4019 84.7044 24.9329C84.6074 25.0719 84.4525 25.1459 84.2955 25.1459ZM53.7455 24.5689C53.6585 24.5689 53.5695 24.5459 53.4895 24.4979C53.2525 24.3559 53.1754 24.0489 53.3174 23.8119C53.6744 23.2149 54.0624 22.6429 54.4714 22.1089C54.6394 21.8909 54.9524 21.8489 55.1724 22.0159C55.3914 22.1839 55.4335 22.4979 55.2655 22.7169C54.8795 23.2199 54.5135 23.7609 54.1765 24.3249C54.0815 24.4819 53.9155 24.5689 53.7455 24.5689ZM79.9505 22.4729C79.8354 22.4729 79.7205 22.4329 79.6255 22.3529C79.1365 21.9349 78.6165 21.5349 78.0815 21.1649C77.8545 21.0079 77.7974 20.6959 77.9554 20.4689C78.1124 20.2419 78.4235 20.1849 78.6515 20.3419C79.2145 20.7319 79.7605 21.1529 80.2755 21.5919C80.4855 21.7719 80.5105 22.0869 80.3315 22.2969C80.2315 22.4139 80.0914 22.4729 79.9505 22.4729ZM86.8704 22.0879C86.7425 22.0879 86.6145 22.0389 86.5165 21.9409C86.3215 21.7459 86.3215 21.4289 86.5165 21.2339C87.0025 20.7479 87.5115 20.2829 88.0265 19.8539C88.2385 19.6779 88.5535 19.7059 88.7304 19.9179C88.9074 20.1299 88.8785 20.4449 88.6665 20.6219C88.1745 21.0319 87.6885 21.4759 87.2235 21.9409C87.1265 22.0389 86.9984 22.0879 86.8704 22.0879ZM109.675 21.7109C109.522 21.7109 109.37 21.6409 109.272 21.5079C108.885 20.9839 108.464 20.4939 108.019 20.0529C107.823 19.8589 107.822 19.5419 108.016 19.3459C108.21 19.1489 108.527 19.1479 108.723 19.3429C109.204 19.8189 109.66 20.3479 110.077 20.9139C110.241 21.1369 110.194 21.4499 109.972 21.6129C109.882 21.6789 109.778 21.7109 109.675 21.7109ZM56.1815 21.4099C56.0535 21.4099 55.9254 21.3609 55.8274 21.2629C55.6324 21.0679 55.6324 20.7509 55.8274 20.5559C56.3234 20.0599 56.8495 19.6039 57.3915 19.1999C57.6135 19.0329 57.9264 19.0809 58.0914 19.3019C58.2564 19.5239 58.2105 19.8369 57.9895 20.0019C57.4855 20.3769 56.9964 20.8009 56.5344 21.2629C56.4374 21.3609 56.3095 21.4099 56.1815 21.4099ZM76.6685 20.1989C76.5865 20.1989 76.5024 20.1789 76.4264 20.1359C75.8615 19.8229 75.2734 19.5319 74.6764 19.2739C74.4235 19.1639 74.3065 18.8699 74.4175 18.6159C74.5265 18.3629 74.8204 18.2449 75.0755 18.3569C75.7005 18.6279 76.3195 18.9329 76.9114 19.2619C77.1525 19.3959 77.2404 19.6999 77.1054 19.9419C77.0145 20.1059 76.8445 20.1989 76.6685 20.1989ZM89.9414 19.5319C89.7814 19.5319 89.6245 19.4549 89.5275 19.3139C89.3715 19.0849 89.4305 18.7739 89.6585 18.6189C90.2315 18.2289 90.8214 17.8699 91.4124 17.5539C91.6554 17.4249 91.9585 17.5149 92.0894 17.7589C92.2194 18.0019 92.1274 18.3049 91.8844 18.4359C91.3244 18.7359 90.7645 19.0749 90.2215 19.4449C90.1365 19.5039 90.0374 19.5319 89.9414 19.5319ZM59.3785 19.0349C59.1985 19.0349 59.0255 18.9379 58.9365 18.7679C58.8074 18.5239 58.9005 18.2219 59.1455 18.0929C59.7514 17.7729 60.3914 17.4959 61.0485 17.2709C61.3105 17.1829 61.5935 17.3209 61.6835 17.5819C61.7725 17.8429 61.6335 18.1269 61.3725 18.2169C60.7645 18.4249 60.1725 18.6809 59.6115 18.9769C59.5365 19.0159 59.4565 19.0349 59.3785 19.0349ZM106.842 18.9159C106.743 18.9159 106.642 18.8869 106.555 18.8249C106.037 18.4609 105.482 18.1369 104.906 17.8619C104.657 17.7429 104.551 17.4449 104.67 17.1959C104.789 16.9469 105.087 16.8409 105.336 16.9599C105.963 17.2589 106.567 17.6109 107.131 18.0069C107.357 18.1659 107.411 18.4779 107.253 18.7039C107.154 18.8419 106.999 18.9159 106.842 18.9159ZM73.0075 18.6079C72.9565 18.6079 72.9044 18.5999 72.8535 18.5839C72.2374 18.3839 71.6035 18.2099 70.9705 18.0669C70.7005 18.0059 70.5324 17.7379 70.5934 17.4689C70.6544 17.1989 70.9224 17.0299 71.1914 17.0909C71.8554 17.2409 72.5184 17.4239 73.1624 17.6329C73.4254 17.7179 73.5695 17.9999 73.4835 18.2629C73.4145 18.4739 73.2184 18.6079 73.0075 18.6079ZM63.1415 17.7439C62.9045 17.7439 62.6934 17.5739 62.6494 17.3329C62.6004 17.0609 62.7814 16.8009 63.0524 16.7519C63.7134 16.6329 64.4035 16.5569 65.1035 16.5269C65.3795 16.5189 65.6125 16.7289 65.6245 17.0049C65.6365 17.2809 65.4225 17.5139 65.1465 17.5259C64.4915 17.5539 63.8465 17.6249 63.2304 17.7359C63.2005 17.7419 63.1705 17.7439 63.1415 17.7439ZM69.1145 17.7249C69.0925 17.7249 69.0695 17.7239 69.0475 17.7209C68.4095 17.6349 67.7535 17.5749 67.0995 17.5429C66.8245 17.5289 66.6115 17.2949 66.6245 17.0189C66.6375 16.7429 66.8564 16.5259 67.1494 16.5439C67.8314 16.5779 68.5155 16.6399 69.1815 16.7299C69.4545 16.7669 69.6465 17.0189 69.6105 17.2929C69.5765 17.5429 69.3615 17.7249 69.1145 17.7249ZM93.4624 17.6539C93.2635 17.6539 93.0745 17.5339 92.9975 17.3369C92.8965 17.0799 93.0224 16.7899 93.2794 16.6889C93.9244 16.4359 94.5844 16.2229 95.2414 16.0569C95.5084 15.9909 95.7814 16.1519 95.8484 16.4189C95.9155 16.6859 95.7534 16.9579 95.4865 17.0259C94.8705 17.1819 94.2514 17.3809 93.6454 17.6189C93.5854 17.6429 93.5234 17.6539 93.4624 17.6539ZM103.258 17.1999C103.211 17.1999 103.164 17.1939 103.116 17.1789C102.517 17.0019 101.885 16.8629 101.236 16.7659C100.963 16.7249 100.775 16.4699 100.816 16.1969C100.858 15.9239 101.115 15.7399 101.385 15.7769C102.079 15.8809 102.757 16.0299 103.4 16.2199C103.665 16.2979 103.816 16.5769 103.738 16.8409C103.673 17.0589 103.474 17.1999 103.258 17.1999ZM97.3274 16.6829C97.0764 16.6829 96.8604 16.4949 96.8304 16.2389C96.7994 15.9649 96.9964 15.7169 97.2714 15.6859C97.9524 15.6089 98.6414 15.5749 99.3364 15.5959C99.6124 15.6039 99.8305 15.8339 99.8224 16.1099C99.8144 16.3859 99.6014 16.5969 99.3084 16.5959L98.9494 16.5909C98.4264 16.5909 97.8994 16.6209 97.3824 16.6799C97.3654 16.6819 97.3454 16.6829 97.3274 16.6829Z" fill="#365CA7"/>
</svg>
