<svg width="225" height="231" viewBox="0 0 225 231" fill="none" xmlns="http://www.w3.org/2000/svg">
<path opacity="0.5" d="M127.892 230.999C74.6569 230.999 31.5014 222.913 31.5014 212.94C31.5014 202.966 74.6569 194.88 127.892 194.88C181.127 194.88 224.282 202.966 224.282 212.94C224.282 222.913 181.127 230.999 127.892 230.999Z" fill="#B3CEF4"/>
<path d="M98.1306 170.343C101.331 172.256 104.305 174.928 106.686 177.244C111.044 181.492 115.063 186.771 117.04 192.546C118.122 195.725 118.979 199.56 118.423 202.917C118.169 204.483 117.379 205.964 115.891 206.658C114.376 207.361 112.56 207.296 110.959 206.958C101.538 204.97 93.5845 197.507 88.5019 189.658C86.883 187.164 85.5841 184.455 84.737 181.604C83.937 178.922 82.8922 175.172 84.0876 172.481C85.5841 169.115 88.8784 167.22 92.5492 168.008C94.441 168.411 96.3235 169.255 98.1306 170.343Z" fill="#822E7A"/>
<path d="M124.259 143.77C132.052 141.407 140.74 138.763 149.06 140.113C159.686 141.838 163.433 150.84 166.83 159.926C170.134 168.786 171.169 178.022 174.294 186.93C163.903 190.549 154.227 193.437 143.516 196.006C140.241 192.059 136.984 187.933 134.292 183.545C134.161 183.339 134.048 183.123 133.916 182.907C129.812 184.83 125.275 186.836 122.104 188.561L104.154 171.562L101.792 150.633C109.284 148.336 116.776 146.039 124.259 143.77Z" fill="#F49A82"/>
<path d="M134.292 183.535C130.885 177.985 128.391 171.993 127.892 165.364" stroke="black" stroke-width="0.645462" stroke-miterlimit="10" stroke-linejoin="round"/>
<path d="M138.359 190.483C149.983 190.033 161.776 186.582 173.532 182.11C175.753 190.099 181.259 197.431 188.704 201.135C191.161 202.354 194.051 203.516 194.973 206.095C195.745 208.233 194.757 210.708 193.053 212.218C191.349 213.718 189.062 214.403 186.813 214.74C177.118 216.175 167.583 211.974 157.879 210.596C154.435 210.108 150.961 209.968 147.488 209.724C146.528 209.658 145.521 209.564 144.693 209.067C143.912 208.599 143.385 207.82 142.905 207.042C139.78 202.035 139.083 196.334 138.359 190.483Z" fill="#FFE9FC"/>
<path d="M143.883 201.801C145.644 202.364 147.517 202.42 149.361 202.457C155.47 202.607 159.611 202.157 167.621 203.104C170.699 199.044 174.539 195.012 179.358 193.418C180.055 194.169 180.346 194.909 181.626 195.734C178.304 197.554 174.756 201.407 172.807 204.811C174.492 205.317 176.224 205.702 177.975 205.945C178.699 206.049 179.443 206.124 180.139 205.908C181.052 205.617 181.739 204.858 182.379 204.136C183.979 202.336 185.165 201.295 187.123 199.935C187.537 200.123 194.644 203.161 195.735 206.311C196.564 208.683 196.404 211.159 194.86 213.137C193.307 215.116 191.001 216.382 188.591 217.057C184.601 218.172 180.337 217.751 176.309 216.804C171.311 215.631 166.332 214.375 161.296 213.372C156.298 212.368 151.197 212.059 146.208 211.028C144.872 210.756 143.526 210.381 142.415 209.584C139.29 207.333 139.403 201.764 139.554 198.276C140.279 199.991 142.123 201.238 143.883 201.801Z" fill="#E491F2"/>
<path d="M195.171 211.487C192.196 213.728 188.864 215.2 185.222 215.463C181.24 215.753 176.732 214.9 172.845 213.972C169.983 213.287 167.329 212.068 164.506 211.271C161.578 210.437 158.566 209.912 155.526 209.649C152.213 209.358 148.872 209.377 145.606 208.721C143.507 208.299 141.455 207.614 139.478 206.789" stroke="#CE62D1" stroke-width="0.645462" stroke-miterlimit="10" stroke-linejoin="round"/>
<path d="M103.204 159.813C110.009 156.841 116.852 153.465 124.485 153.671C129.549 153.812 134.942 153.868 138.716 157.619C142.491 161.369 144.975 166.189 147.385 170.868C151.715 179.279 153.832 188.327 157.983 196.813C148.091 201.623 138.82 205.636 128.495 209.434C124.777 205.889 121.059 202.185 117.868 198.135C117.718 197.938 117.576 197.741 117.426 197.544C113.576 199.935 109.303 202.467 106.366 204.539L86.5349 189.762L81.7158 169.255C88.8691 166.105 96.0318 162.954 103.204 159.813Z" fill="#FFB399"/>
<path d="M117.859 198.135C113.821 193.015 110.63 187.361 109.359 180.844" stroke="#C45F4E" stroke-width="0.645462" stroke-miterlimit="10" stroke-linejoin="round"/>
<path d="M122.716 204.557C134.208 202.748 145.512 197.947 156.656 192.115C159.809 199.785 166.144 206.423 173.965 209.236C176.544 210.165 179.556 210.98 180.78 213.428C181.796 215.462 181.109 218.031 179.594 219.729C178.078 221.426 175.885 222.363 173.692 222.963C164.242 225.533 154.265 222.476 144.467 222.242C140.994 222.157 137.521 222.429 134.048 222.598C133.078 222.645 132.071 222.673 131.196 222.27C130.368 221.895 129.747 221.182 129.182 220.469C126.819 217.506 126.518 214.309 125.436 210.774C124.833 208.796 124.127 207.333 122.716 204.557Z" fill="white"/>
<path d="M135.356 216.016C141.418 215.247 145.446 214.187 153.503 213.925C155.941 209.452 159.122 204.895 163.649 202.598C164.449 203.236 164.845 203.92 166.238 204.548C163.226 206.845 160.299 211.177 158.887 214.844C160.637 215.097 162.397 215.209 164.167 215.191C164.892 215.181 165.645 215.153 166.304 214.825C167.169 214.403 167.725 213.55 168.252 212.743C169.56 210.727 170.972 208.702 172.704 207.061C173.146 207.183 180.224 209.94 181.787 212.893C182.963 215.116 183.18 217.582 181.947 219.766C180.714 221.951 178.624 223.554 176.337 224.576C172.553 226.274 168.28 226.499 164.148 226.17C159.028 225.767 153.917 225.261 148.787 225.017C143.695 224.773 138.603 225.223 133.521 224.961C132.156 224.886 130.716 224.811 129.549 224.098C125.991 221.904 126.593 217.31 126.537 214.891C128.231 217.019 133.521 216.241 135.356 216.016Z" fill="#F5AEFF"/>
<path d="M59.3241 169.433C53.4415 179.428 53.4226 194.712 60.4724 204.201C72.3788 220.235 100.465 212.94 115.637 206.789C107.656 206.376 101.877 200.029 96.5118 193.334C91.1468 186.639 86.7795 174.187 86.3089 165.635C76.2943 167.351 66.9668 170.267 58.8911 176.418" fill="#C45FB5"/>
<path d="M101.331 211.675C98.272 210.793 95.7307 208.712 93.3776 206.574C90.7987 204.239 88.3327 201.773 86.1867 199.044C79.6264 190.69 74.9767 178.36 75.7768 167.774" stroke="#A0359B" stroke-width="0.645462" stroke-miterlimit="10" stroke-linejoin="round"/>
<path d="M182.257 218.688C179.443 221.06 175.988 221.848 172.412 222.504C168.167 223.292 163.809 223.198 159.526 222.861C153.343 222.382 147.149 221.426 140.966 221.979C136.542 222.373 131.986 223.536 127.751 222.195" stroke="#E57FE5" stroke-width="0.645462" stroke-miterlimit="10" stroke-linejoin="round"/>
<path d="M107.383 115.64C115.261 115.556 121.407 118.866 126.706 124.538C129.859 127.914 132.372 132.105 135.13 135.95C128.325 140.019 114.997 145.26 107.383 147.464C104.823 141.407 100.578 131.552 100.578 131.552" fill="white"/>
<path d="M70.7128 113.061C73.1694 114.993 76.5108 116.849 79.2027 118.5C85.1888 122.156 92.7845 125.654 98.2906 119.531C99.5801 118.096 100.446 116.39 101.19 114.665C105.171 114.496 106.63 115.246 110.592 115.658C113.36 120.403 115.402 125.588 117.407 130.68C119.619 136.296 122.452 142.297 122.659 148.42C122.734 150.708 122.207 153.09 120.729 154.843C119.421 156.409 117.501 157.318 115.656 158.181C113.425 159.212 111.176 160.244 109.143 161.632C105.792 163.919 103.129 167.089 99.7872 169.395C96.8882 171.393 93.5751 172.668 90.1773 173.549C87.2878 174.299 84.1629 175.359 81.1886 175.378C76.4449 175.406 71.7011 175.715 67.0044 176.362C64.5572 176.7 62.0348 177.028 59.6441 177.647C57.6957 178.153 56.058 178.866 53.9497 178.716C50.7307 178.472 47.9164 177.45 48.0388 174.29C48.1423 171.655 49.5542 168.983 49.4318 166.442C49.3 163.723 48.6506 160.9 48.4623 158.134C47.8788 149.264 47.8506 138.894 50.2413 130.098C51.3895 125.86 54.0909 120.534 57.9781 117.759C59.7476 116.493 63.3336 114.843 65.489 114.421C66.2326 114.271 70.2987 112.733 70.7128 113.061Z" fill="#7FE1E5"/>
<path d="M118.809 134.327C120.324 126.685 116.682 119.353 110.385 114.74C108.07 114.702 106.319 114.73 104.013 114.693C106.357 117.402 116.032 127.501 118.809 134.327Z" fill="#F5AEFF"/>
<path d="M89.9512 119.156C93.9608 119.793 103.834 119.165 101.434 111.842C100.295 108.373 97.5563 105.794 94.5444 104.425C91.5325 103.056 88.2382 102.747 85.0098 102.681C80.2002 102.587 72.1527 104.641 76.6329 111.692C79.7013 116.512 84.9345 118.359 89.9512 119.156Z" fill="#FFB399"/>
<path d="M74.628 109.451C79.513 113.821 85.3109 117.168 91.5418 119.212C92.4265 119.503 93.4054 119.766 94.2619 119.409C94.8831 119.156 95.3255 118.612 95.7396 118.097C97.0197 116.493 98.2621 114.862 99.4575 113.202C100.643 113.399 102.168 113.605 103.354 113.793C103.495 113.811 103.655 113.849 103.74 113.962C103.844 114.112 103.778 114.318 103.712 114.496C102.686 116.943 101.641 119.409 100.192 121.632C99.3916 122.86 98.4409 124.041 97.2079 124.838C95.5232 125.926 93.4242 126.226 91.4382 125.982C89.4523 125.738 87.5604 124.998 85.7533 124.126C79.7953 121.238 74.581 116.859 70.722 111.495L74.628 109.451Z" fill="#F5AEFF"/>
<path d="M94.1021 119.4C94.328 120 94.5539 120.6 94.7798 121.2C94.968 121.707 95.1657 122.222 95.2692 122.757C95.3445 123.16 95.3728 123.582 95.401 123.994C95.4292 124.519 95.4669 125.054 95.4951 125.579" stroke="#DA78EF" stroke-width="0.645462" stroke-miterlimit="10" stroke-linejoin="round"/>
<path d="M88.9068 118.593C89.6503 120.862 89.9609 123.263 89.8009 125.644" stroke="#DA78EF" stroke-width="0.645462" stroke-miterlimit="10" stroke-linejoin="round"/>
<path d="M75.7388 108.767C82.4215 113.417 85.3675 115.808 92.6526 119.24C89.5089 122.259 86.9864 126.338 85.2922 129.883C78.2707 125.363 72.8869 118.303 68.5385 110.811L75.7388 108.767Z" fill="white"/>
<path d="M98.9023 110.239L104.681 111.28C105.19 114.252 104.681 117.365 103.674 120.169C102.677 122.972 101.293 125.569 99.8247 128.082C97.9329 125.063 95.4198 121.838 92.6714 119.409C95.1657 116.793 97.2834 113.68 98.9023 110.239Z" fill="white"/>
<path d="M119.186 128.57C117.896 128.336 116.56 128.336 115.28 128.58" stroke="#DA78EF" stroke-width="0.645462" stroke-miterlimit="10" stroke-linejoin="round"/>
<path d="M117.397 123.122C115.421 122.831 113.397 122.869 111.439 123.225" stroke="#DA78EF" stroke-width="0.645462" stroke-miterlimit="10" stroke-linejoin="round"/>
<path d="M113.416 117.627C111.411 117.562 109.369 117.496 107.458 118.087" stroke="#DA78EF" stroke-width="0.645462" stroke-miterlimit="10" stroke-linejoin="round"/>
<path d="M48.7727 1.24658C55.8319 3.70322 61.6298 9.49791 64.0864 16.5397C65.2159 19.784 65.6583 23.2814 65.1971 26.6851C64.5288 31.6077 62.0346 36.0804 59.465 40.3373C57.7332 43.1971 55.926 46.0382 53.573 48.4105C48.1798 53.8489 38.1558 57.7682 30.4566 56.8306C20.762 55.6492 14.0134 46.207 12.8934 37.0555C10.6533 18.8182 28.4518 -5.84207 48.7727 1.24658Z" fill="#E25B37"/>
<path d="M59.5591 9.58214C60.0486 8.09127 60.6133 6.60978 61.4792 5.30645C61.9028 4.67822 62.4675 4.04062 63.2205 3.94685C64.1899 3.82496 65.0182 4.63134 65.5641 5.43772C67.0324 7.62245 67.6348 10.2948 67.6254 12.9202C67.6254 15.5456 67.0418 18.1429 66.3171 20.6652C65.9971 21.7622 65.6018 22.9249 64.6982 23.6375C63.7664 24.3689 62.4957 24.4627 61.3098 24.5283C60.0768 24.594 57.9779 24.7815 56.9708 23.8532C55.926 22.8874 56.7449 21.0215 56.9802 19.8401C57.6673 16.3801 58.4579 12.9389 59.5591 9.58214Z" fill="#FFF0B0"/>
<path d="M49.2338 13.061C48.3679 12.0858 47.4643 11.1388 46.4666 10.3043C45.996 9.91047 45.4783 9.53541 44.8853 9.35725C43.257 8.88843 42.3252 10.2668 42.0805 11.6826C41.0357 17.5805 42.7488 23.5627 45.4312 28.8042C46.1936 30.2856 47.2102 31.1389 48.9326 31.017C51.8033 30.8107 54.2976 28.8885 56.067 26.6288C56.7353 25.7755 57.3565 24.8004 57.3848 23.7127C57.4506 20.8341 54.2034 18.6213 52.4622 16.7366C51.3515 15.5551 50.3162 14.2799 49.2338 13.061Z" fill="#FFF0B0"/>
<path d="M26.2303 52.7986C22.8795 57.7025 16.7522 60.8249 9.90009 61.3594C-4.47236 62.4752 -11.4468 47.379 -8.03959 36.3803C-5.75242 28.9916 3.44332 18.7993 13.0061 20.2996C18.9735 21.2372 23.0301 26.9757 25.355 31.5139C27.4351 35.5739 29.0163 39.9621 28.9034 44.5097C28.8281 47.6228 27.8586 50.417 26.2303 52.7986Z" fill="#E25B37"/>
<path d="M-0.104948 51.8985C1.98456 54.2895 3.68817 57.1212 4.16819 60.253C4.65763 63.3848 3.76347 66.8353 1.37276 68.9263C-0.0767183 70.1921 -1.94034 70.8766 -3.82279 71.2704C-8.51007 72.2456 -13.9315 71.2704 -16.9717 67.5854C-18.1388 66.179 -18.8823 64.4631 -19.3153 62.6909C-20.1624 59.1841 -19.7294 55.3022 -17.7623 52.2829C-13.4044 45.5881 -4.97106 46.3101 -0.104948 51.8985Z" fill="#E25B37"/>
<path d="M133.605 54.4018C132.4 48.729 129.661 43.4125 125.812 39.0712C118.837 31.2043 107.288 28.6726 97.1608 28.6163C80.9624 28.5319 62.2321 37.2052 54.7023 52.2545C46.3348 68.9823 52.1516 92.1798 66.8158 103.629C78.7411 112.93 95.1183 117.356 110.112 115.012C118.414 113.708 126.442 109.948 132.146 103.797C137.84 97.6463 139.168 91.4015 137.963 83.1221C137.172 77.6555 136.447 70.2106 135.271 64.8191C134.518 61.3779 134.33 57.843 133.605 54.4018Z" fill="#FFB399"/>
<path d="M107.91 86.5542C109.397 84.5476 111.185 83.2912 112.814 83.0943C114.442 82.8974 115.91 83.76 116.833 85.4665" stroke="#C45F4E" stroke-width="0.645462" stroke-miterlimit="10" stroke-linejoin="round"/>
<path d="M81.9133 70.5479C82.3839 71.5137 83.6828 71.7856 84.737 71.5606C85.7158 71.345 86.5818 70.8199 87.5324 70.5198C88.6524 70.1635 89.8478 70.1916 90.9678 69.8447C92.0973 69.4884 93.1421 68.8508 92.6809 67.5568C91.8432 65.2315 87.6547 64.4813 85.6688 65.2502C83.984 65.8972 80.8874 68.4382 81.9133 70.5479Z" fill="#E25B37"/>
<path d="M127.327 61.4062C126.32 61.2843 125.247 61.4718 124.456 62.1C123.383 62.9627 123.016 64.5473 124.353 65.4006C125.012 65.8225 125.84 65.8881 126.631 65.8881C127.798 65.8788 129.04 66.4789 130.235 66.3382C131.996 66.1413 132.485 64.6317 131.318 63.2815C130.358 62.1938 128.739 61.5843 127.327 61.4062Z" fill="#E25B37"/>
<path d="M87.3062 85.738C86.0826 86.0381 84.6331 86.5725 84.4072 87.8102C84.2755 88.5603 84.6896 89.3198 85.2826 89.798C85.8756 90.2762 86.6191 90.52 87.3533 90.7076C88.9722 91.1389 90.6664 91.4014 92.3418 91.2233C94.8078 90.9514 99.9656 88.1103 97.462 85.0254C95.4195 82.5219 89.7534 85.1379 87.3062 85.738Z" fill="#ED927A"/>
<path d="M125.548 80.6277C125.049 80.8996 124.748 81.4622 124.682 82.0248C124.447 83.9658 126.151 85.1753 127.779 85.8223C129.332 86.4412 131.083 86.5068 132.692 86.0661C133.972 85.7192 135.638 84.2002 135.497 82.7281C135.356 81.2278 133.398 80.759 132.127 80.6277C130.358 80.4402 128.579 80.3652 126.791 80.4027C126.386 80.4121 125.962 80.4308 125.595 80.609C125.576 80.609 125.558 80.6183 125.548 80.6277Z" fill="#ED927A"/>
<path d="M129.36 74.7298C129.539 75.6956 129.624 76.8301 129.37 77.5615C129.087 78.396 128.419 78.7805 127.741 78.9024C127.242 78.9961 126.471 78.9117 126.019 78.546C125.313 77.9741 124.983 76.8208 124.758 75.5643C124.55 74.4204 124.532 73.1452 124.889 72.3669C125.19 71.7293 125.802 71.4949 126.367 71.3918C126.998 71.2792 127.741 71.3543 128.278 71.945C128.842 72.5451 129.172 73.6796 129.36 74.7298Z" fill="#141833"/>
<path d="M93.5464 78.5277C93.7253 79.4934 93.81 80.628 93.5559 81.3594C93.2735 82.1939 92.6052 82.5783 91.9275 82.7002C91.4287 82.794 90.6569 82.7096 90.2051 82.3439C89.4992 81.7719 89.1698 80.6186 88.9439 79.3622C88.7368 78.2182 88.718 76.943 89.0756 76.1648C89.3768 75.5272 89.9886 75.2928 90.5534 75.1896C91.184 75.0771 91.9275 75.1521 92.464 75.7428C93.0288 76.3429 93.3582 77.4775 93.5464 78.5277Z" fill="#141833"/>
<path d="M103.646 92.4237C103.053 93.1926 102.667 96.1462 104.004 98.4153C106.432 102.55 112.738 104.613 117.265 102.11C121.651 99.6718 122.555 92.9957 120.823 92.4987C120.249 92.3393 116.522 92.6394 113.604 92.5831C108.766 92.4893 104.239 91.6642 103.646 92.4237Z" fill="#702218"/>
<mask id="mask0_549_10651" style="mask-type:luminance" maskUnits="userSpaceOnUse" x="103" y="92" width="19" height="12">
<path d="M103.646 92.4237C103.053 93.1926 102.667 96.1462 104.004 98.4153C106.432 102.55 112.738 104.613 117.265 102.11C121.651 99.6718 122.555 92.9957 120.823 92.4987C120.249 92.3393 116.522 92.6394 113.604 92.5831C108.766 92.4893 104.239 91.6642 103.646 92.4237Z" fill="white"/>
</mask>
<g mask="url(#mask0_549_10651)">
<path d="M99.6456 96.5209C101.199 95.7989 102.949 95.5364 104.662 95.5645C106.375 95.5927 108.079 95.9115 109.754 96.2865C112.682 96.9429 115.637 97.8243 118.047 99.5964C118.781 100.14 119.477 100.787 119.882 101.603C120.287 102.419 120.362 103.45 119.891 104.228C119.345 105.147 118.225 105.532 117.171 105.719C115.853 105.954 114.508 105.991 113.171 106.01C110.583 106.047 107.881 106.019 105.585 104.838C104.644 104.36 103.806 103.694 103.015 102.991C101.472 101.603 100.107 100.028 98.9586 98.3025" fill="#C64E39"/>
<path d="M107.768 91.0541C107.618 91.4573 107.458 91.8605 107.401 92.2825C107.345 92.7044 107.382 93.1639 107.608 93.5295C107.985 94.1484 108.757 94.3922 109.453 94.5797C112.117 95.3017 114.724 95.7049 117.454 95.0298C120.089 94.3828 119.788 91.973 119.054 89.8821" fill="white"/>
</g>
<path d="M58.3638 74.8425C59.2392 69.6292 61.3099 64.6502 64.35 60.4214C66.8631 61.8185 70.0632 61.7529 72.5292 60.2527C75.0988 58.6868 76.6988 55.8269 77.8189 52.939C78.9295 50.051 79.5507 47.2193 81.0096 44.5001C87.4758 48.1944 94.3467 51.3356 101.622 52.5264C110.112 53.9141 120.663 52.8546 126.405 45.3909C129.84 48.1757 131.421 52.5545 133.05 56.774C134.659 60.9465 135.986 68.9072 135.986 68.9072C135.986 68.9072 143.158 67.3413 148.956 60.187C157.202 50.0135 158.35 34.8892 152.279 23.2998C146.208 11.7104 133.605 4.03103 120.513 3.084C107.42 2.1276 94.1867 7.62224 84.991 16.9425C55.0978 16.1267 45.8644 32.0387 41.7607 39.9337C33.3556 56.1176 35.9345 78.8744 47.9257 90.0512C49.7328 91.7296 51.7565 92.9017 54.1189 93.5112" fill="#E25B37"/>
<path d="M81.6779 44.7536C79.0331 43.1033 76.633 41.0686 74.5623 38.7339" stroke="#B73827" stroke-width="0.645462" stroke-miterlimit="10" stroke-linejoin="round"/>
<path d="M146.481 27.2478C149.502 33.4551 149.973 41.1626 148.156 47.8574C146.227 54.9648 141.285 60.2438 134.848 62.466" stroke="#B73827" stroke-width="0.645462" stroke-miterlimit="10" stroke-linejoin="round"/>
<path d="M70.9352 79.0186C70.0324 68.9867 77.4639 60.1251 87.534 59.2256C97.6041 58.3262 106.499 65.7295 107.402 75.7614C108.305 85.7933 100.874 94.6549 90.8036 95.5544C80.7335 96.4538 71.8381 89.0505 70.9352 79.0186Z" stroke="#FFF0B0" stroke-width="0.860615" stroke-miterlimit="10"/>
<path d="M116.657 72.0321C116.13 61.974 122.687 53.4565 131.304 53.0078C139.921 52.5591 147.334 60.349 147.862 70.4071C148.39 80.4652 141.832 88.9827 133.215 89.4314C124.598 89.8801 117.185 82.0902 116.657 72.0321Z" stroke="#FFF0B0" stroke-width="0.860615" stroke-miterlimit="10"/>
<path d="M116.625 71.5045C113.162 70.7543 109.999 71.4763 106.648 73.1735" stroke="#FFF0B0" stroke-width="0.860615" stroke-miterlimit="10"/>
<path d="M70.769 73.9705L54.1094 74.1205" stroke="#FFF0B0" stroke-width="0.860615" stroke-miterlimit="10"/>
<path d="M65.4228 78.9312C63.5874 76.4558 60.9896 74.4586 57.9024 73.6522C54.8152 72.8364 51.248 73.3053 48.5749 75.1993C44.9418 77.7779 43.5676 82.4474 43.7182 86.6574C43.8594 90.7644 45.243 94.7963 47.8314 97.9468C50.4197 101.107 54.2317 103.338 58.4483 103.929C61.4038 104.342 64.6228 103.901 67.1641 102.241C69.7148 100.582 71.4278 97.5623 70.9478 94.74" fill="#FFB399"/>
<path d="M64.7547 103.413C65.6018 103.123 66.4206 102.738 67.183 102.241C69.7337 100.582 71.4468 97.5623 70.9667 94.74" stroke="#C45F4E" stroke-width="0.645462" stroke-miterlimit="10" stroke-linejoin="round"/>
<path d="M65.4231 78.9312C63.5877 76.4558 60.9899 74.4586 57.9027 73.6522C54.8155 72.8364 51.2483 73.3053 48.5752 75.1993" stroke="#C45F4E" stroke-width="0.645462" stroke-miterlimit="10" stroke-linejoin="round"/>
<path d="M51.3423 85.4198C52.6036 83.5914 54.8437 82.7475 56.9238 82.9257C61.2722 83.3007 64.1994 87.1076 66.9666 90.2768" stroke="#C45F4E" stroke-width="0.645462" stroke-miterlimit="10" stroke-linejoin="round"/>
<path d="M55.267 94.5998C54.8811 90.4367 56.8765 86.7329 60.0861 83.845" stroke="#C45F4E" stroke-width="0.645462" stroke-miterlimit="10" stroke-linejoin="round"/>
<path d="M96.7092 115.415C93.0008 115.302 89.3112 114.627 85.8004 113.417" stroke="#C45F4E" stroke-width="0.645462" stroke-miterlimit="10" stroke-linejoin="round"/>
<path d="M126.216 45.6441C128.889 42.9061 130.678 36.0706 129.906 32.3481" stroke="#B73827" stroke-width="0.645462" stroke-miterlimit="10" stroke-linejoin="round"/>
<path d="M64.943 60.6745C63.55 59.8306 62.1381 58.9398 61.0934 57.6834C59.738 56.0425 59.1168 53.8671 59.1262 51.7293C59.1356 49.6008 59.7192 47.5005 60.5381 45.5408" stroke="#B73827" stroke-width="0.645462" stroke-miterlimit="10" stroke-linejoin="round"/>
<path d="M26.0892 55.6771C13.6462 48.7104 11.9332 32.2827 15.7922 19.9338" stroke="#B73827" stroke-width="0.645462" stroke-miterlimit="10" stroke-linejoin="round"/>
<path d="M4.71417 61.0871C-1.78967 59.2399 -7.11698 53.7453 -8.72647 47.2004" stroke="#B73827" stroke-width="0.645462" stroke-miterlimit="10" stroke-linejoin="round"/>
<path d="M84.5204 17.4866C82.4215 19.2962 80.1343 20.9371 77.5648 21.9873C74.9952 23.0375 72.1151 23.4688 69.4138 22.8593" stroke="#B73827" stroke-width="0.645462" stroke-miterlimit="10" stroke-linejoin="round"/>
<path d="M64.6416 19.8586C57.0177 22.1371 37.9203 31.4762 37.0544 56.774" stroke="#B73827" stroke-width="0.645462" stroke-miterlimit="10" stroke-linejoin="round"/>
<path d="M21.7408 56.0894C19.1901 61.1152 13.6181 64.472 7.96136 64.3782" stroke="#E25B37" stroke-width="0.645462" stroke-miterlimit="10" stroke-linejoin="round"/>
<path d="M12.5355 21.837C7.38704 19.9148 1.36323 21.4151 -3.00404 24.7531C-7.37131 28.0911 -10.2703 33.0232 -12.1998 38.1522" stroke="#E25B37" stroke-width="0.645462" stroke-miterlimit="10" stroke-linejoin="round"/>
<path d="M198.691 104.529L171.678 34.824L60.0865 102.672L123.638 162.673L198.691 104.529Z" fill="url(#paint0_linear_549_10651)"/>
<path d="M125.633 163.339L188.676 151.834C189.617 151.665 189.636 150.324 188.695 150.136L164.27 145.036C162.745 144.717 161.164 144.698 159.63 144.979L96.0033 156.597C95.1939 156.747 95.175 157.9 95.9845 158.069L120.993 163.292C122.518 163.601 124.099 163.62 125.633 163.339Z" fill="#2E3247"/>
<path d="M120.4 162.128C121.924 162.447 123.506 162.466 125.04 162.185L188.074 150.68C188.412 150.614 188.629 150.398 188.723 150.136C189.617 150.361 189.589 151.655 188.667 151.824L125.623 163.329C124.089 163.61 122.517 163.591 120.983 163.272L95.975 158.05C95.4009 157.928 95.2503 157.328 95.495 156.924L120.4 162.128Z" fill="#576087"/>
<path d="M125.934 163.32L188.14 151.965C190.361 151.562 192.083 149.808 192.441 147.586L199.086 106.432C199.387 104.567 197.749 102.973 195.886 103.31L133.68 114.665C131.459 115.068 129.737 116.822 129.379 119.044L122.734 160.197C122.433 162.063 124.071 163.667 125.934 163.32Z" fill="#2E3247"/>
<path d="M159.31 137.947L168.6 136.25C168.929 136.193 169.193 135.931 169.24 135.593L170.228 129.452C170.275 129.17 170.031 128.936 169.748 128.983L160.458 130.68C160.129 130.736 159.865 130.999 159.818 131.336L158.83 137.478C158.783 137.759 159.028 138.003 159.31 137.947Z" fill="#576087"/>
<path d="M122.734 160.197L129.379 119.044C129.737 116.821 131.459 115.068 133.681 114.665L195.886 103.31C197.044 103.094 198.117 103.638 198.691 104.519C198.371 104.463 198.032 104.435 197.684 104.501L135.478 115.856C133.257 116.259 131.535 118.012 131.177 120.235L124.532 161.388C124.419 162.091 124.579 162.757 124.937 163.301C123.534 163.038 122.489 161.716 122.734 160.197Z" fill="#576087"/>
<path d="M80.8685 140.403L84.7463 151.205C90.9489 148.983 97.4528 147.445 103.881 145.935C105.5 150.727 110.611 164.294 110.668 166.132C105.171 171.946 98.9399 177.234 91.6549 180.572C85.0569 183.591 77.0565 184.895 69.8562 183.235C53.0365 179.353 50.1187 158.387 50.1376 144.126L80.8685 140.403Z" fill="#FFB399"/>
<path d="M109.359 166.404C104.154 173.155 97.2834 178.472 89.6125 181.669" stroke="#C45F4E" stroke-width="0.645462" stroke-miterlimit="10" stroke-linejoin="round"/>
<path d="M79.1271 132.855C81.3107 137.731 82.7885 141.819 85.2921 148.861C73.6774 152.508 58.9756 154.975 46.1749 156.381C46.1749 144.088 45.789 136.278 51.7093 125.485C54.0906 121.153 57.1025 118.378 62.1004 117.131" fill="white"/>
<path d="M83.0897 142.729C70.9856 145.673 58.5709 147.886 46.1468 148.917" stroke="#7FE1E5" stroke-width="0.645462" stroke-miterlimit="10" stroke-linejoin="round"/>
<path d="M81.5554 138.49C82.0731 135.162 81.226 131.964 79.3812 129.142C77.5364 126.32 75.014 124.013 72.435 121.838C69.6113 119.447 66.0818 116.427 62.6463 115.321C55.973 115.593 52.7352 121.988 52.7446 122.063C58.8249 122.063 63.8228 125.26 66.6183 126.779C72.2091 129.817 77.2917 133.774 81.5554 138.49Z" fill="#F5AEFF"/>
<path d="M84.6616 151.158C79.4567 153.24 74.7223 156.465 70.8727 160.525" stroke="#C45F4E" stroke-width="0.645462" stroke-miterlimit="10" stroke-linejoin="round"/>
<path d="M79.3909 129.405C78.3743 131.008 77.7343 132.846 77.5461 134.731" stroke="#DA78EF" stroke-width="0.645462" stroke-miterlimit="10" stroke-linejoin="round"/>
<path d="M75.3154 124.585C73.5459 125.888 72.0964 127.632 71.1364 129.601" stroke="#DA78EF" stroke-width="0.645462" stroke-miterlimit="10" stroke-linejoin="round"/>
<path d="M70.0538 120.065C67.089 120.712 64.6983 122.813 63.1264 124.876" stroke="#DA78EF" stroke-width="0.645462" stroke-miterlimit="10" stroke-linejoin="round"/>
<path d="M65.2441 116.69C62.9193 117.318 59.1733 118.603 56.8296 122.372" stroke="#DA78EF" stroke-width="0.645462" stroke-miterlimit="10" stroke-linejoin="round"/>
<path d="M99.5517 148.167C102.517 141.632 109.387 137.206 116.588 137C117.661 136.971 121.99 137.337 125.463 138.49C129.247 139.737 132.127 141.828 131.327 143.516C130.96 144.294 130.057 144.66 129.21 144.801C130.593 144.716 131.487 146.564 130.876 147.801C130.264 149.048 128.748 149.602 127.355 149.564C128.654 149.761 128.833 151.777 127.882 152.677C126.932 153.577 125.482 153.652 124.165 153.671C125.153 153.587 125.784 154.909 125.388 155.809C124.993 156.709 123.986 157.187 123.016 157.412C122.047 157.628 121.03 157.684 120.127 158.087C117.934 159.072 117.153 161.744 115.543 163.535C113.971 165.27 111.006 166.311 108.682 166.198" fill="#FFB399"/>
<path d="M105.425 167.773C106.865 166.648 108.7 166.029 110.536 166.048C113.209 165.851 115.449 164.454 116.927 162.222" stroke="#C45F4E" stroke-width="0.645462" stroke-miterlimit="10" stroke-linejoin="round"/>
<path d="M124.918 153.84C121.906 153.108 118.64 153.483 115.882 154.88" stroke="#C45F4E" stroke-width="0.645462" stroke-miterlimit="10" stroke-linejoin="round"/>
<path d="M128.777 149.724C127.205 149.273 125.614 148.898 124.005 148.589C123.007 148.392 121.991 148.233 120.974 148.233C119.336 148.233 117.727 148.673 116.146 149.105" stroke="#C45F4E" stroke-width="0.645462" stroke-miterlimit="10" stroke-linejoin="round"/>
<path d="M130.697 144.66C128.334 143.835 125.943 143.038 123.477 142.644C121.002 142.251 118.423 142.279 116.051 143.076" stroke="#C45F4E" stroke-width="0.645462" stroke-miterlimit="10" stroke-linejoin="round"/>
<path d="M197.166 119.634C194.502 118.884 191.622 119.456 189.081 120.619C187.594 121.303 185.194 123.16 187.067 124.819C187.565 125.269 188.224 125.504 188.864 125.72C188.318 126.198 187.471 126.02 186.794 126.273C186.154 126.507 185.702 127.173 185.73 127.857C185.749 128.411 186.05 128.936 186.455 129.32C186.86 129.705 187.368 129.967 187.867 130.211C188.413 130.473 188.977 130.717 189.542 130.933C188.61 130.914 187.509 130.998 187.029 131.795C186.709 132.321 186.812 133.024 187.123 133.558C187.443 134.083 187.942 134.477 188.46 134.824C189.071 135.237 189.711 135.612 190.37 135.94C189.843 135.912 189.269 135.959 188.874 136.306C188.46 136.662 188.328 137.271 188.441 137.815C188.544 138.35 188.855 138.828 189.184 139.269C189.843 140.15 190.577 140.731 191.462 141.378C191.566 141.453 191.679 141.538 191.744 141.65C191.848 141.828 191.829 142.053 191.81 142.26C191.726 143.404 191.989 144.576 192.554 145.579C192.61 145.691 192.695 145.804 192.817 145.823C192.902 145.832 192.996 145.785 193.072 145.748C194.54 144.904 195.933 143.863 196.959 142.513C197.985 141.163 198.625 139.475 198.493 137.787C200.385 136.756 201.26 134.215 200.404 132.246C201.326 131.655 201.787 130.511 201.75 129.423C201.712 128.336 201.223 127.304 200.592 126.413C200.63 126.46 201.317 124.707 201.336 124.491C201.42 123.732 201.307 122.935 200.987 122.241C200.347 120.816 198.587 120.037 197.166 119.634Z" fill="#FFB399"/>
<path d="M191.378 141.444C192.281 141.978 193.232 142.419 194.22 142.757" stroke="#C45F4E" stroke-width="0.645462" stroke-miterlimit="10" stroke-linejoin="round"/>
<path d="M189.251 135.734C190.992 135.865 192.742 135.762 194.484 135.912C196.084 136.052 198.023 136.371 198.776 137.965" stroke="#C45F4E" stroke-width="0.645462" stroke-miterlimit="10" stroke-linejoin="round"/>
<path d="M188.093 130.726C191.396 130.97 194.747 130.689 197.985 131.326C199.133 131.551 200.319 131.936 201.091 132.808" stroke="#C45F4E" stroke-width="0.645462" stroke-miterlimit="10" stroke-linejoin="round"/>
<path d="M187.613 125.738C190.992 125.232 194.436 125.166 197.834 125.541C199.199 125.691 200.639 125.954 201.627 126.901" stroke="#C45F4E" stroke-width="0.645462" stroke-miterlimit="10" stroke-linejoin="round"/>
<path d="M5.67438 86.6758C4.31902 89.6388 1.6083 91.9454 -1.54479 92.8174" stroke="#526F99" stroke-width="0.645462" stroke-miterlimit="10"/>
<path d="M207.529 126.02C208.235 122.635 206.917 118.903 204.234 116.699" stroke="#526F99" stroke-width="0.645462" stroke-miterlimit="10"/>
<path d="M210.456 117.702C210.061 115.218 208.837 112.874 207.03 111.12" stroke="#526F99" stroke-width="0.645462" stroke-miterlimit="10"/>
<defs>
<linearGradient id="paint0_linear_549_10651" x1="147.786" y1="115.899" x2="120.751" y2="75.6371" gradientUnits="userSpaceOnUse">
<stop offset="0.2968" stop-color="white" stop-opacity="0.5"/>
<stop offset="0.8949" stop-color="white" stop-opacity="0"/>
</linearGradient>
</defs>
</svg>
