<svg width="1367" height="768" viewBox="0 0 1367 768" fill="none" xmlns="http://www.w3.org/2000/svg">
<line x1="0.500061" y1="2.18557e-08" x2="0.500027" y2="768" stroke="#FEF4E8"/>
<line x1="105.577" y1="2.18557e-08" x2="105.577" y2="768" stroke="#FEF4E8"/>
<line x1="210.654" y1="2.18557e-08" x2="210.654" y2="768" stroke="#FEF4E8"/>
<line x1="315.731" y1="2.18557e-08" x2="315.731" y2="768" stroke="#FEF4E8"/>
<line x1="420.808" y1="2.18557e-08" x2="420.808" y2="768" stroke="#FEF4E8"/>
<line x1="525.885" y1="2.18557e-08" x2="525.885" y2="768" stroke="#FEF4E8"/>
<line x1="630.962" y1="2.18557e-08" x2="630.961" y2="768" stroke="#FEF4E8"/>
<line x1="736.038" y1="2.18557e-08" x2="736.038" y2="768" stroke="#FEF4E8"/>
<line x1="841.115" y1="2.18557e-08" x2="841.115" y2="768" stroke="#FEF4E8"/>
<line x1="946.192" y1="2.18557e-08" x2="946.192" y2="768" stroke="#FEF4E8"/>
<line x1="1051.27" y1="2.18557e-08" x2="1051.27" y2="768" stroke="#FEF4E8"/>
<line x1="1156.35" y1="2.18557e-08" x2="1156.35" y2="768" stroke="#FEF4E8"/>
<line x1="1261.42" y1="2.18557e-08" x2="1261.42" y2="768" stroke="#FEF4E8"/>
<line x1="1366.5" y1="2.18557e-08" x2="1366.5" y2="768" stroke="#FEF4E8"/>
</svg>
