<svg width="132" height="60" viewBox="0 0 132 60" fill="none" xmlns="http://www.w3.org/2000/svg">
<g filter="url(#filter0_i_547_10201)">
<rect x="49.619" y="6.7168" width="33" height="18.3333" rx="2.93333" fill="#2C72FF"/>
<g filter="url(#filter1_d_547_10201)">
<rect x="69.6838" y="10.3787" width="13.0839" height="1.98" rx="0.99" transform="rotate(115.093 69.6838 10.3787)" fill="#F4961D"/>
<path fill-rule="evenodd" clip-rule="evenodd" d="M56.8497 12.0142C56.8497 11.4674 57.2929 11.0242 57.8397 11.0242C58.3865 11.0242 58.8297 11.4674 58.8297 12.0142V14.5882H61.4037C61.9505 14.5882 62.3937 15.0315 62.3937 15.5782C62.3937 16.125 61.9505 16.5682 61.4037 16.5682H58.8297V19.1422C58.8297 19.6889 58.3865 20.1322 57.8397 20.1322C57.2929 20.1322 56.8497 19.6889 56.8497 19.1422V16.5682H54.2757C53.7289 16.5682 53.2857 16.125 53.2857 15.5782C53.2857 15.0315 53.7289 14.5882 54.2757 14.5882H56.8497V12.0142Z" fill="#F4961D"/>
<path fill-rule="evenodd" clip-rule="evenodd" d="M71.2496 13.4626C70.8276 13.219 70.683 12.6793 70.9267 12.2573C71.1703 11.8352 71.71 11.6906 72.132 11.9343L77.6341 15.1109C78.0562 15.3546 78.2008 15.8942 77.9571 16.3163C77.8565 16.4906 77.7054 16.6175 77.5329 16.6894L72.1177 19.8158C71.6957 20.0595 71.156 19.9149 70.9124 19.4929C70.6687 19.0708 70.8133 18.5312 71.2354 18.2875L75.4209 15.8709L71.2496 13.4626Z" fill="#F4961D"/>
</g>
</g>
<ellipse cx="46.1357" cy="17.0756" rx="1.46667" ry="1.46667" fill="#F4961D"/>
<rect x="85.7648" y="18.6338" width="3.025" height="3.025" transform="rotate(27.657 85.7648 18.6338)" fill="#F4961D"/>
<rect x="87.0266" y="12.3088" width="0.921186" height="3.14969" transform="rotate(13.6281 87.0266 12.3088)" fill="#F4961D"/>
<rect x="88.706" y="13.8706" width="0.921186" height="3.025" transform="rotate(102.72 88.706 13.8706)" fill="#F4961D"/>
<path d="M43.8476 9.62633L47.3426 10.3657L44.9548 13.0228L43.8476 9.62633Z" fill="#F4961D"/>
<path d="M113.458 39.5997C113.458 39.3405 113.501 39.1137 113.587 38.9193C113.684 38.725 113.803 38.563 113.943 38.4334C114.084 38.293 114.24 38.1904 114.413 38.1256C114.597 38.0608 114.77 38.0284 114.932 38.0284C115.266 38.0284 115.542 38.0932 115.758 38.2228C115.985 38.3416 116.157 38.5576 116.276 38.8708C116.514 39.4863 116.94 39.7941 117.556 39.7941C117.934 39.7941 118.252 39.7077 118.512 39.5349C118.771 39.3513 118.9 39.1245 118.9 38.8546C118.9 38.6278 118.765 38.455 118.495 38.3362C118.236 38.2066 117.912 38.0878 117.524 37.9798C117.135 37.8718 116.708 37.753 116.244 37.6234C115.779 37.483 115.353 37.294 114.964 37.0564C114.575 36.8189 114.246 36.5057 113.976 36.1169C113.717 35.7281 113.587 35.2205 113.587 34.5942C113.587 34.0542 113.69 33.5628 113.895 33.1201C114.111 32.6773 114.413 32.2993 114.802 31.9861C115.191 31.6729 115.666 31.4353 116.228 31.2733C116.789 31.1006 117.421 31.0142 118.123 31.0142C119.289 31.0142 120.169 31.2463 120.763 31.7107C121.357 32.1751 121.654 32.8285 121.654 33.6708C121.654 34.1568 121.525 34.5132 121.266 34.74C121.006 34.9668 120.677 35.0801 120.277 35.0801C119.878 35.0801 119.592 35.01 119.419 34.8696C119.246 34.7292 119.095 34.5024 118.965 34.1892C118.857 33.9408 118.722 33.7626 118.56 33.6546C118.398 33.5358 118.182 33.4764 117.912 33.4764C117.567 33.4764 117.286 33.5574 117.07 33.7194C116.854 33.8706 116.746 34.0542 116.746 34.2702C116.746 34.4862 116.87 34.659 117.119 34.7886C117.378 34.9182 117.702 35.037 118.09 35.1449C118.479 35.2529 118.895 35.3771 119.338 35.5175C119.781 35.6579 120.196 35.8523 120.585 36.1007C120.974 36.3491 121.293 36.6731 121.541 37.0726C121.8 37.4614 121.93 37.9744 121.93 38.6116C121.93 39.1731 121.822 39.6807 121.606 40.1343C121.401 40.5879 121.098 40.9766 120.699 41.3006C120.31 41.6246 119.829 41.873 119.257 42.0458C118.684 42.2186 118.036 42.305 117.313 42.305C116.697 42.305 116.147 42.2348 115.661 42.0944C115.185 41.954 114.786 41.765 114.462 41.5274C114.138 41.279 113.889 40.9928 113.717 40.6689C113.544 40.3341 113.458 39.9777 113.458 39.5997Z" fill="#F4961D"/>
<path d="M106.298 42.2563C105.898 42.2563 105.585 42.0673 105.358 41.6893C105.132 41.3006 104.959 40.8254 104.84 40.2638C104.732 39.7022 104.662 39.1083 104.63 38.4819C104.608 37.8555 104.597 37.2994 104.597 36.8134C104.597 36.187 104.608 35.5337 104.63 34.8533C104.651 34.1621 104.721 33.5304 104.84 32.958C104.97 32.3856 105.169 31.9158 105.439 31.5487C105.72 31.1707 106.12 30.9817 106.638 30.9817C106.8 30.9817 106.935 31.0087 107.043 31.0627C107.151 31.1059 107.243 31.1599 107.319 31.2247C107.394 31.2895 107.459 31.3489 107.513 31.4029C107.578 31.4461 107.643 31.4677 107.707 31.4677C107.794 31.4677 107.869 31.4461 107.934 31.4029C108.01 31.3489 108.096 31.2949 108.193 31.2409C108.291 31.1869 108.42 31.1383 108.582 31.0951C108.744 31.0411 108.965 31.0141 109.246 31.0141C109.603 31.0141 109.943 31.0897 110.267 31.2409C110.591 31.3921 110.872 31.6027 111.109 31.8726C111.358 32.1426 111.552 32.4666 111.692 32.8446C111.844 33.2226 111.919 33.6438 111.919 34.1081C111.919 34.4321 111.854 34.7237 111.725 34.9829C111.606 35.2421 111.455 35.4743 111.271 35.6794C111.088 35.8846 110.888 36.052 110.672 36.1816C110.456 36.3112 110.251 36.4084 110.056 36.4732C110.337 36.484 110.612 36.5488 110.882 36.6676C111.163 36.7756 111.412 36.9214 111.628 37.105C111.844 37.2886 112.022 37.51 112.162 37.7691C112.303 38.0283 112.373 38.3145 112.373 38.6277C112.373 39.2325 112.232 39.7616 111.952 40.2152C111.671 40.6688 111.304 41.0468 110.85 41.3492C110.396 41.6515 109.878 41.8783 109.295 42.0295C108.722 42.1807 108.145 42.2563 107.562 42.2563H106.298ZM108.145 35.0153C108.307 35.0153 108.447 34.9289 108.566 34.7561C108.695 34.5833 108.76 34.3889 108.76 34.1729C108.76 33.9893 108.706 33.8381 108.598 33.7193C108.501 33.6006 108.366 33.5412 108.193 33.5412C108.01 33.5412 107.859 33.606 107.74 33.7355C107.632 33.8651 107.578 34.0379 107.578 34.2539C107.578 34.4699 107.632 34.6535 107.74 34.8047C107.859 34.9451 107.994 35.0153 108.145 35.0153ZM108.291 39.6968C108.571 39.6968 108.771 39.5888 108.89 39.3729C109.019 39.1569 109.084 38.9355 109.084 38.7087C109.084 38.5143 109.003 38.3469 108.841 38.2065C108.679 38.0553 108.512 37.9797 108.339 37.9797C108.177 37.9797 108.026 38.0445 107.886 38.1741C107.745 38.2929 107.675 38.5089 107.675 38.8221C107.675 39.1677 107.74 39.3999 107.869 39.5186C107.999 39.6374 108.139 39.6968 108.291 39.6968Z" fill="#F4961D"/>
<path d="M102.249 42.2888C101.882 42.2888 101.553 42.2348 101.261 42.1268C100.98 42.0188 100.754 41.8028 100.581 41.4788C100.451 41.2305 100.349 40.9713 100.273 40.7013C100.208 40.4313 100.073 40.1721 99.868 39.9237C99.7276 39.7617 99.5656 39.6429 99.382 39.5673C99.1985 39.4917 99.0095 39.4539 98.8151 39.4539C98.6531 39.4539 98.4911 39.4809 98.3291 39.5349C98.1671 39.5889 98.0159 39.6591 97.8755 39.7455C97.6811 39.8751 97.5353 40.0317 97.4381 40.2153C97.3518 40.3881 97.2762 40.5717 97.2114 40.7661C97.1574 40.9497 97.1034 41.1387 97.0494 41.3331C97.0062 41.5166 96.936 41.6786 96.8388 41.819C96.72 41.9918 96.558 42.1214 96.3528 42.2078C96.1476 42.2942 95.8182 42.3374 95.3647 42.3374C95.0299 42.3374 94.7275 42.2294 94.4575 42.0134C94.1983 41.7866 94.0687 41.5004 94.0687 41.1549C94.0687 40.8957 94.1065 40.4637 94.1821 39.8589C94.2685 39.2542 94.3927 38.5738 94.5547 37.8178C94.7275 37.0619 94.9435 36.2789 95.2027 35.469C95.4727 34.6482 95.7858 33.903 96.1422 33.2335C96.4986 32.5531 96.9036 31.9969 97.3571 31.565C97.8107 31.133 98.3183 30.917 98.8799 30.917C99.4414 30.917 99.949 31.1384 100.403 31.5812C100.856 32.0131 101.256 32.5693 101.601 33.2497C101.947 33.93 102.244 34.6806 102.492 35.5014C102.751 36.3221 102.962 37.1213 103.124 37.8988C103.286 38.6656 103.405 39.3568 103.48 39.9723C103.556 40.5879 103.594 41.0307 103.594 41.3007C103.594 41.6354 103.491 41.8838 103.286 42.0458C103.081 42.2078 102.735 42.2888 102.249 42.2888ZM99.706 36.1979C99.6844 35.9495 99.598 35.7173 99.4468 35.5014C99.2957 35.2854 99.1067 35.1774 98.8799 35.1774C98.5991 35.1774 98.3723 35.2962 98.1995 35.5338C98.0375 35.7713 97.9565 36.0413 97.9565 36.3437C97.9565 36.6461 98.0429 36.8783 98.2157 37.0403C98.3885 37.2023 98.5937 37.2833 98.8313 37.2833C98.9609 37.2833 99.0797 37.2509 99.1877 37.1861C99.2957 37.1105 99.3874 37.0241 99.463 36.9269C99.5494 36.8189 99.6142 36.7001 99.6574 36.5705C99.7006 36.4409 99.7168 36.3167 99.706 36.1979Z" fill="#F4961D"/>
<path d="M90.9572 42.2888C90.3309 42.2888 89.8017 42.251 89.3697 42.1754C88.9485 42.089 88.603 41.927 88.333 41.6894C88.0738 41.4518 87.8848 41.1116 87.766 40.6689C87.658 40.2261 87.604 39.6483 87.604 38.9355C87.604 38.0284 87.5932 37.1104 87.5716 36.1817C87.5608 35.2421 87.5932 34.389 87.6688 33.6222C87.7444 32.8555 87.8848 32.2291 88.09 31.7431C88.306 31.2571 88.6408 31.0142 89.0943 31.0142C89.5479 31.0142 89.8773 31.1438 90.0825 31.4029C90.2985 31.6513 90.4389 31.9807 90.5037 32.3911C90.5793 32.7907 90.6062 33.2496 90.5846 33.768C90.5738 34.2864 90.5685 34.8102 90.5685 35.3393C90.5685 35.9117 90.5522 36.4733 90.5199 37.024C90.4983 37.564 90.5037 38.0392 90.5361 38.4496C90.5685 38.86 90.6494 39.1893 90.779 39.4377C90.9194 39.6753 91.1516 39.7779 91.4756 39.7455C91.6484 39.7239 91.8212 39.7077 91.994 39.6969C92.1776 39.6753 92.3504 39.6645 92.5123 39.6645C92.8471 39.6645 93.1279 39.7347 93.3547 39.8751C93.5815 40.0155 93.6949 40.3071 93.6949 40.7499C93.6949 41.1386 93.6355 41.4356 93.5167 41.6408C93.4087 41.846 93.2413 41.9972 93.0145 42.0944C92.7877 42.1916 92.5016 42.251 92.156 42.2726C91.8212 42.2834 91.4216 42.2888 90.9572 42.2888Z" fill="#F4961D"/>
<path d="M82.2837 36.8621C82.2837 37.0456 82.2891 37.3102 82.2999 37.6558C82.3107 38.0014 82.3053 38.374 82.2837 38.7736C82.2729 39.1731 82.2351 39.5835 82.1703 40.0047C82.1163 40.4151 82.0245 40.7877 81.8949 41.1224C81.7761 41.4572 81.6087 41.7326 81.3927 41.9486C81.1768 42.1646 80.9014 42.2726 80.5666 42.2726C80.2966 42.2726 80.0212 42.1484 79.7404 41.9C79.4704 41.6516 79.2112 41.3438 78.9629 40.9766C78.7145 40.5987 78.4715 40.1937 78.2339 39.7617C78.0071 39.3189 77.7965 38.9139 77.6021 38.5468C77.4185 38.1688 77.2512 37.8556 77.1 37.6072C76.9488 37.3588 76.83 37.2346 76.7436 37.2346C76.668 37.2346 76.614 37.3534 76.5816 37.591C76.5492 37.8286 76.5276 38.0986 76.5168 38.401C76.5168 38.6926 76.5222 38.9733 76.533 39.2433C76.5438 39.5133 76.5492 39.6807 76.5492 39.7455C76.5492 39.9723 76.5546 40.2315 76.5654 40.5231C76.587 40.8147 76.5654 41.09 76.5006 41.3492C76.4358 41.6084 76.3116 41.8298 76.128 42.0134C75.9552 42.197 75.6744 42.2888 75.2857 42.2888C74.8537 42.2888 74.5135 42.0998 74.2651 41.7218C74.0275 41.333 73.8493 40.8362 73.7305 40.2315C73.6117 39.6159 73.5415 38.9409 73.5199 38.2066C73.4983 37.4614 73.4875 36.7325 73.4875 36.0197C73.4875 35.3609 73.5091 34.7292 73.5523 34.1244C73.6063 33.5196 73.7035 32.9905 73.8439 32.5369C73.9951 32.0725 74.2003 31.7053 74.4595 31.4353C74.7187 31.1546 75.0535 31.0142 75.4638 31.0142C75.8202 31.0142 76.1442 31.1492 76.4358 31.4191C76.7274 31.6783 76.9974 32.0131 77.2458 32.4235C77.4941 32.8231 77.7155 33.255 77.9099 33.7194C78.1043 34.1838 78.2771 34.6212 78.4283 35.0316C78.5903 35.4311 78.7307 35.7659 78.8495 36.0359C78.9791 36.2951 79.0871 36.4247 79.1734 36.4247C79.2706 36.4247 79.3246 36.2951 79.3354 36.0359C79.3462 35.7659 79.3462 35.4311 79.3354 35.0316C79.3354 34.6212 79.3354 34.1838 79.3354 33.7194C79.3462 33.255 79.384 32.8231 79.4488 32.4235C79.5136 32.0131 79.6216 31.6783 79.7728 31.4191C79.924 31.1492 80.1508 31.0142 80.4532 31.0142C80.8204 31.0142 81.1174 31.1222 81.3441 31.3381C81.5817 31.5433 81.7653 31.8133 81.8949 32.1481C82.0353 32.4829 82.1325 32.8663 82.1865 33.2982C82.2513 33.7194 82.2891 34.146 82.2999 34.578C82.3107 35.01 82.3107 35.4257 82.2999 35.8253C82.2891 36.2249 82.2837 36.5705 82.2837 36.8621Z" fill="#2C72FF"/>
<path d="M68.0287 42.2888C67.0891 42.2888 66.3386 42.1214 65.777 41.7866C65.2154 41.4518 64.7834 40.9658 64.4811 40.3287C64.1787 39.6915 63.9789 38.9031 63.8817 37.9636C63.7845 37.024 63.7359 35.9549 63.7359 34.7562C63.7359 34.2054 63.7521 33.7032 63.7845 33.2496C63.8169 32.7961 63.8925 32.4019 64.0113 32.0671C64.1301 31.7323 64.3029 31.4731 64.5297 31.2895C64.7672 31.106 65.0858 31.0142 65.4854 31.0142C65.939 31.0142 66.2792 31.1114 66.506 31.3057C66.7327 31.4893 66.8839 31.7485 66.9595 32.0833C67.0459 32.4073 67.0837 32.7907 67.0729 33.2334C67.0729 33.6762 67.0729 34.1568 67.0729 34.6752C67.0729 35.1827 67.0729 35.7119 67.0729 36.2627C67.0837 36.8027 67.1161 37.2994 67.1701 37.753C67.2241 38.1958 67.3213 38.563 67.4617 38.8546C67.6021 39.1461 67.8019 39.2919 68.0611 39.2919C68.2987 39.2919 68.4769 39.1569 68.5956 38.887C68.7252 38.617 68.817 38.2822 68.871 37.8826C68.9358 37.4722 68.9682 37.0294 68.9682 36.5543C68.979 36.0683 68.9844 35.6201 68.9844 35.2097C68.9844 34.5618 68.979 33.9786 68.9682 33.4602C68.9574 32.9419 68.9952 32.5045 69.0816 32.1481C69.1788 31.7809 69.3462 31.5001 69.5838 31.3057C69.8214 31.1114 70.1886 31.0142 70.6853 31.0142C71.1389 31.0142 71.4737 31.1492 71.6897 31.4191C71.9057 31.6783 72.0515 32.0185 72.1271 32.4397C72.2135 32.8501 72.2513 33.3144 72.2405 33.8328C72.2405 34.3404 72.2405 34.848 72.2405 35.3555C72.2405 36.3923 72.1973 37.3372 72.1109 38.1904C72.0353 39.0435 71.8517 39.7725 71.5601 40.3773C71.2793 40.982 70.8581 41.4518 70.2966 41.7866C69.7458 42.1214 68.9898 42.2888 68.0287 42.2888Z" fill="#2C72FF"/>
<path d="M58.0224 42.2887C57.6877 42.2887 57.4069 42.1915 57.1801 41.9971C56.9533 41.7919 56.7697 41.5327 56.6293 41.2195C56.4889 40.8956 56.3809 40.5392 56.3053 40.1504C56.2405 39.7508 56.1919 39.362 56.1595 38.9841C56.1271 38.5953 56.1109 38.2389 56.1109 37.9149C56.1109 37.5801 56.1109 37.3209 56.1109 37.1374C56.1109 36.7594 56.1001 36.349 56.0785 35.9062C56.0677 35.4634 56.0677 35.0207 56.0785 34.5779C56.1001 34.1243 56.1433 33.6869 56.2081 33.2658C56.2837 32.8446 56.4025 32.472 56.5645 32.148C56.7373 31.824 56.9695 31.5648 57.2611 31.3705C57.5635 31.1761 57.9468 31.0789 58.4112 31.0789C58.6164 31.0789 58.8702 31.0735 59.1726 31.0627C59.4858 31.0411 59.8151 31.0303 60.1607 31.0303C60.5171 31.0303 60.8681 31.0519 61.2137 31.0951C61.57 31.1275 61.8886 31.1977 62.1694 31.3057C62.461 31.4029 62.6932 31.554 62.866 31.7592C63.0496 31.9536 63.1414 32.2074 63.1414 32.5206C63.1414 33.0174 63.0226 33.39 62.785 33.6383C62.5582 33.8759 62.2666 34.0433 61.9102 34.1405C61.5538 34.2269 61.1651 34.2701 60.7439 34.2701C60.3227 34.2701 59.9177 34.2863 59.529 34.3187C59.4102 34.3295 59.313 34.4267 59.2374 34.6103C59.1726 34.7939 59.1348 34.9991 59.124 35.2259C59.1132 35.4418 59.1348 35.6416 59.1888 35.8252C59.2428 36.0088 59.3292 36.1006 59.448 36.1006C59.8583 36.1006 60.2471 36.0952 60.6143 36.0844C60.9815 36.0736 61.3055 36.1006 61.5862 36.1654C61.8778 36.2302 62.1046 36.3544 62.2666 36.538C62.4394 36.7108 62.5258 36.9862 62.5258 37.3641C62.5258 37.6989 62.4664 37.9473 62.3476 38.1093C62.2288 38.2713 62.0776 38.3847 61.894 38.4495C61.7104 38.5143 61.516 38.5521 61.3109 38.5629C61.1057 38.5629 60.9113 38.5737 60.7277 38.5953C60.5765 38.6169 60.4199 38.6331 60.2579 38.6439C60.0959 38.6439 59.9501 38.6655 59.8205 38.7087C59.6909 38.7411 59.583 38.8005 59.4966 38.8869C59.4102 38.9733 59.367 39.1083 59.367 39.2918C59.367 39.7886 59.3724 40.226 59.3832 40.604C59.394 40.982 59.367 41.2951 59.3022 41.5435C59.2374 41.7919 59.1078 41.9809 58.9134 42.1105C58.7298 42.2293 58.4328 42.2887 58.0224 42.2887Z" fill="#2C72FF"/>
<path d="M51.051 42.3211C50.6514 42.3211 50.3328 42.2239 50.0953 42.0295C49.8685 41.8243 49.6957 41.5597 49.5769 41.2357C49.4689 40.9118 49.3987 40.55 49.3663 40.1504C49.3447 39.74 49.3339 39.3242 49.3339 38.9031C49.3339 38.4927 49.3339 38.1093 49.3339 37.7529C49.3447 37.3857 49.3501 37.0132 49.3501 36.6352C49.3501 36.2464 49.3501 35.8414 49.3501 35.4202C49.3501 34.9991 49.3501 34.5293 49.3501 34.0109C49.3501 33.9569 49.3015 33.9245 49.2043 33.9137C49.1071 33.8921 48.9991 33.8813 48.8803 33.8813C48.7615 33.8813 48.6481 33.8867 48.5401 33.8975C48.4321 33.8975 48.362 33.8975 48.3296 33.8975C48.1028 33.8975 47.876 33.8759 47.6492 33.8327C47.4332 33.7787 47.2388 33.7031 47.066 33.6059C46.8932 33.4979 46.7528 33.3576 46.6448 33.1848C46.5368 33.012 46.4828 32.8014 46.4828 32.553C46.4828 32.175 46.58 31.8834 46.7744 31.6782C46.9688 31.4731 47.2604 31.3219 47.6492 31.2247C48.0488 31.1275 48.5455 31.0735 49.1395 31.0627C49.7335 31.0411 50.43 31.0303 51.2292 31.0303C52.0284 31.0303 52.6925 31.0519 53.2217 31.0951C53.7617 31.1275 54.1882 31.2031 54.5014 31.3219C54.8146 31.4407 55.036 31.608 55.1656 31.824C55.2952 32.04 55.36 32.3262 55.36 32.6826C55.36 33.0498 55.2628 33.3522 55.0684 33.5897C54.874 33.8273 54.523 33.9461 54.0155 33.9461C53.8859 33.9461 53.7401 33.9407 53.5781 33.9299C53.4161 33.9191 53.2595 33.9191 53.1083 33.9299C52.9679 33.9407 52.8491 33.9677 52.7519 34.0109C52.6547 34.0433 52.6061 34.1027 52.6061 34.1891C52.6277 34.6211 52.6385 35.0153 52.6385 35.3716C52.6385 35.7172 52.6331 36.0628 52.6223 36.4084C52.6223 36.7432 52.6223 37.0888 52.6223 37.4451C52.6223 37.7907 52.6277 38.1795 52.6385 38.6115C52.6601 39.1623 52.6601 39.6644 52.6385 40.118C52.6277 40.5716 52.5683 40.9658 52.4603 41.3005C52.3631 41.6245 52.2011 41.8783 51.9744 42.0619C51.7584 42.2347 51.4506 42.3211 51.051 42.3211Z" fill="#2C72FF"/>
<path d="M41.0286 42.2887C40.6938 42.2887 40.413 42.1915 40.1862 41.9971C39.9595 41.7919 39.7759 41.5327 39.6355 41.2195C39.4951 40.8956 39.3871 40.5392 39.3115 40.1504C39.2467 39.7508 39.1981 39.362 39.1657 38.9841C39.1333 38.5953 39.1171 38.2389 39.1171 37.9149C39.1171 37.5801 39.1171 37.3209 39.1171 37.1374C39.1171 36.7594 39.1063 36.349 39.0847 35.9062C39.0739 35.4634 39.0739 35.0207 39.0847 34.5779C39.1063 34.1243 39.1495 33.6869 39.2143 33.2658C39.2899 32.8446 39.4087 32.472 39.5707 32.148C39.7435 31.824 39.9757 31.5648 40.2672 31.3705C40.5696 31.1761 40.953 31.0789 41.4174 31.0789C41.6226 31.0789 41.8764 31.0735 42.1787 31.0627C42.4919 31.0411 42.8213 31.0303 43.1669 31.0303C43.5233 31.0303 43.8743 31.0519 44.2198 31.0951C44.5762 31.1275 44.8948 31.1977 45.1756 31.3057C45.4672 31.4029 45.6994 31.554 45.8721 31.7592C46.0557 31.9536 46.1475 32.2074 46.1475 32.5206C46.1475 33.0174 46.0287 33.39 45.7911 33.6383C45.5644 33.8759 45.2728 34.0433 44.9164 34.1405C44.56 34.2269 44.1712 34.2701 43.7501 34.2701C43.3289 34.2701 42.9239 34.2863 42.5351 34.3187C42.4163 34.3295 42.3191 34.4267 42.2435 34.6103C42.1787 34.7939 42.1409 34.9991 42.1301 35.2259C42.1193 35.4418 42.1409 35.6416 42.1949 35.8252C42.2489 36.0088 42.3353 36.1006 42.4541 36.1006C42.8645 36.1006 43.2533 36.0952 43.6205 36.0844C43.9876 36.0736 44.3116 36.1006 44.5924 36.1654C44.884 36.2302 45.1108 36.3544 45.2728 36.538C45.4456 36.7108 45.532 36.9862 45.532 37.3641C45.532 37.6989 45.4726 37.9473 45.3538 38.1093C45.235 38.2713 45.0838 38.3847 44.9002 38.4495C44.7166 38.5143 44.5222 38.5521 44.317 38.5629C44.1118 38.5629 43.9174 38.5737 43.7339 38.5953C43.5827 38.6169 43.4261 38.6331 43.2641 38.6439C43.1021 38.6439 42.9563 38.6655 42.8267 38.7087C42.6971 38.7411 42.5891 38.8005 42.5027 38.8869C42.4163 38.9733 42.3731 39.1083 42.3731 39.2918C42.3731 39.7886 42.3785 40.226 42.3893 40.604C42.4001 40.982 42.3731 41.2951 42.3083 41.5435C42.2435 41.7919 42.1139 41.9809 41.9196 42.1105C41.736 42.2293 41.439 42.2887 41.0286 42.2887Z" fill="#2C72FF"/>
<path d="M35.6793 42.2888C35.4634 42.2888 35.2258 42.2672 34.9666 42.224C34.7182 42.1808 34.486 42.116 34.27 42.0296C34.0648 41.9432 33.892 41.8244 33.7516 41.6732C33.6113 41.522 33.5411 41.3438 33.5411 41.1386C33.5411 40.8902 33.5843 40.7175 33.6706 40.6203C33.757 40.5123 33.8542 40.4151 33.9622 40.3287C34.081 40.2423 34.189 40.1451 34.2862 40.0371C34.3942 39.9183 34.459 39.7293 34.4806 39.4701C34.513 39.1785 34.5346 38.7682 34.5454 38.239C34.5562 37.7098 34.5616 37.1644 34.5616 36.6029C34.5616 36.0305 34.5562 35.4851 34.5454 34.9668C34.5346 34.4376 34.513 34.0326 34.4806 33.7518C34.4482 33.4278 34.3726 33.2226 34.2538 33.1363C34.135 33.0499 34.0108 32.9851 33.8812 32.9419C33.7624 32.8987 33.6491 32.8285 33.5411 32.7313C33.4439 32.6341 33.3953 32.4235 33.3953 32.0995C33.3953 31.8511 33.4871 31.6567 33.6706 31.5163C33.8542 31.3651 34.0756 31.2571 34.3348 31.1924C34.594 31.1168 34.8586 31.0682 35.1286 31.0466C35.4094 31.025 35.6469 31.0142 35.8413 31.0142C36.0681 31.0142 36.3219 31.0304 36.6027 31.0628C36.8835 31.0952 37.1427 31.1546 37.3803 31.2409C37.6286 31.3273 37.8338 31.4461 37.9958 31.5973C38.1686 31.7377 38.255 31.9213 38.255 32.1481C38.255 32.3533 38.2118 32.4991 38.1254 32.5855C38.039 32.6611 37.9418 32.7367 37.8338 32.8123C37.7366 32.8771 37.6448 32.9743 37.5584 33.1039C37.4721 33.2226 37.4235 33.4386 37.4127 33.7518C37.4127 33.8814 37.4073 34.0974 37.3965 34.3998C37.3857 34.6914 37.3749 35.0262 37.3641 35.4041C37.3533 35.7821 37.3425 36.1817 37.3317 36.6029C37.3317 37.024 37.3317 37.429 37.3317 37.8178C37.3317 38.1958 37.3317 38.536 37.3317 38.8384C37.3425 39.1407 37.3587 39.3621 37.3803 39.5025C37.4019 39.6645 37.4559 39.8103 37.5422 39.9399C37.6394 40.0587 37.7366 40.1775 37.8338 40.2963C37.931 40.4151 38.0174 40.5393 38.093 40.6689C38.1686 40.7877 38.2064 40.928 38.2064 41.09C38.2064 41.2952 38.1308 41.4734 37.9796 41.6246C37.8284 41.7758 37.6286 41.9 37.3803 41.9972C37.1427 42.0944 36.8727 42.17 36.5703 42.224C36.2679 42.2672 35.9709 42.2888 35.6793 42.2888Z" fill="#2C72FF"/>
<path d="M31.2166 30.917C31.7026 30.917 32.0914 31.0088 32.383 31.1924C32.6746 31.3652 32.8204 31.619 32.8204 31.9537C32.8204 32.1589 32.8042 32.4667 32.7718 32.8771C32.7394 33.2767 32.6854 33.7464 32.6098 34.2864C32.545 34.8156 32.4586 35.388 32.3506 36.0035C32.2426 36.6083 32.1076 37.2131 31.9456 37.8178C31.7944 38.4226 31.6162 39.0058 31.411 39.5673C31.2166 40.1289 30.9899 40.6257 30.7307 41.0577C30.4715 41.4788 30.1853 41.819 29.8721 42.0782C29.5589 42.3374 29.2133 42.467 28.8354 42.467C28.5114 42.467 28.2036 42.3752 27.912 42.1916C27.6312 42.008 27.3666 41.7596 27.1183 41.4464C26.8699 41.1333 26.6431 40.7661 26.4379 40.3449C26.2327 39.9237 26.0491 39.4755 25.8871 39.0004C25.7359 39.4755 25.5685 39.9237 25.3849 40.3449C25.2122 40.7661 25.0232 41.1333 24.818 41.4464C24.6128 41.7596 24.3914 42.008 24.1538 42.1916C23.9162 42.3752 23.6678 42.467 23.4086 42.467C22.9767 42.467 22.5825 42.3536 22.2261 42.1268C21.8805 41.8892 21.5673 41.576 21.2866 41.1873C21.0058 40.7985 20.7574 40.3449 20.5414 39.8265C20.3254 39.3082 20.1364 38.7628 19.9744 38.1904C19.8124 37.618 19.672 37.0403 19.5532 36.4571C19.4453 35.8631 19.3535 35.2962 19.2779 34.7562C19.2131 34.2054 19.1645 33.7032 19.1321 33.2497C19.1105 32.7853 19.0997 32.4019 19.0997 32.0995C19.0997 31.7539 19.2293 31.4786 19.4885 31.2734C19.7584 31.0682 20.0608 30.9656 20.3956 30.9656C20.8492 30.9656 21.1786 31.0034 21.3838 31.079C21.5889 31.1438 21.7509 31.2626 21.8697 31.4354C21.9345 31.5326 21.9993 31.7485 22.0641 32.0833C22.1289 32.4181 22.1937 32.8177 22.2585 33.2821C22.3233 33.7464 22.3827 34.2486 22.4367 34.7886C22.5015 35.3178 22.5663 35.8307 22.6311 36.3275C22.6959 36.8135 22.7607 37.2509 22.8255 37.6396C22.9011 38.0284 22.9767 38.3038 23.0523 38.4658C23.3439 39.1246 23.603 39.076 23.8298 38.32C23.873 38.1688 23.9162 37.9258 23.9594 37.591C24.0026 37.2563 24.0458 36.8729 24.089 36.4409C24.1322 36.0089 24.1754 35.5554 24.2186 35.0802C24.2618 34.605 24.305 34.1622 24.3482 33.7518C24.3914 33.3415 24.4346 32.9851 24.4778 32.6827C24.521 32.3803 24.5642 32.1859 24.6074 32.0995H24.6236C24.6884 31.8295 24.818 31.6136 25.0124 31.4516C25.2176 31.2896 25.4605 31.2086 25.7413 31.2086C26.1517 31.2086 26.4379 31.2518 26.5999 31.3382C26.7619 31.4138 26.8915 31.5272 26.9887 31.6784C27.0211 31.7216 27.0427 31.7647 27.0535 31.8079C27.0751 31.8403 27.0967 31.8781 27.1183 31.9213C27.1939 32.1049 27.2586 32.3641 27.3126 32.6989C27.3774 33.0337 27.4368 33.4063 27.4908 33.8166C27.5556 34.227 27.615 34.659 27.669 35.1126C27.7338 35.5554 27.7986 35.9873 27.8634 36.4085C27.9282 36.8189 27.9984 37.2023 28.074 37.5586C28.1604 37.915 28.2522 38.2066 28.3494 38.4334C28.5222 38.8006 28.6518 38.9734 28.7382 38.9518C28.8246 38.9194 28.9272 38.7142 29.046 38.3362C29.0892 38.185 29.1377 37.9366 29.1917 37.591C29.2457 37.2347 29.2997 36.8297 29.3537 36.3761C29.4077 35.9117 29.4617 35.4312 29.5157 34.9344C29.5697 34.4268 29.6237 33.957 29.6777 33.5251C29.7317 33.0823 29.7803 32.7043 29.8235 32.3911C29.8667 32.0671 29.9045 31.8619 29.9369 31.7755C30.0557 31.4516 30.2069 31.2302 30.3905 31.1114C30.5741 30.9818 30.8495 30.917 31.2166 30.917Z" fill="#2C72FF"/>
<path d="M10.0703 39.5997C10.0703 39.3405 10.1134 39.1137 10.1998 38.9193C10.297 38.725 10.4158 38.563 10.5562 38.4334C10.6966 38.293 10.8532 38.1904 11.026 38.1256C11.2096 38.0608 11.3824 38.0284 11.5444 38.0284C11.8792 38.0284 12.1545 38.0932 12.3705 38.2228C12.5973 38.3416 12.7701 38.5576 12.8889 38.8708C13.1265 39.4863 13.5531 39.7941 14.1686 39.7941C14.5466 39.7941 14.8652 39.7077 15.1244 39.5349C15.3836 39.3513 15.5132 39.1245 15.5132 38.8546C15.5132 38.6278 15.3782 38.455 15.1082 38.3362C14.849 38.2066 14.525 38.0878 14.1362 37.9798C13.7475 37.8718 13.3209 37.753 12.8565 37.6234C12.3921 37.483 11.9656 37.294 11.5768 37.0564C11.188 36.8189 10.8586 36.5057 10.5886 36.1169C10.3294 35.7281 10.1998 35.2205 10.1998 34.5942C10.1998 34.0542 10.3024 33.5628 10.5076 33.1201C10.7236 32.6773 11.026 32.2993 11.4148 31.9861C11.8036 31.6729 12.2787 31.4353 12.8403 31.2733C13.4019 31.1006 14.0336 31.0142 14.7356 31.0142C15.9019 31.0142 16.7821 31.2463 17.3761 31.7107C17.97 32.1751 18.267 32.8285 18.267 33.6708C18.267 34.1568 18.1374 34.5132 17.8782 34.74C17.6191 34.9668 17.2897 35.0801 16.8901 35.0801C16.4905 35.0801 16.2043 35.01 16.0315 34.8696C15.8588 34.7292 15.7076 34.5024 15.578 34.1892C15.47 33.9408 15.335 33.7626 15.173 33.6546C15.011 33.5358 14.795 33.4764 14.525 33.4764C14.1794 33.4764 13.8987 33.5574 13.6827 33.7194C13.4667 33.8706 13.3587 34.0542 13.3587 34.2702C13.3587 34.4862 13.4829 34.659 13.7313 34.7886C13.9904 34.9182 14.3144 35.037 14.7032 35.1449C15.092 35.2529 15.5078 35.3771 15.9505 35.5175C16.3933 35.6579 16.8091 35.8523 17.1979 36.1007C17.5867 36.3491 17.9052 36.6731 18.1536 37.0726C18.4128 37.4614 18.5424 37.9744 18.5424 38.6116C18.5424 39.1731 18.4344 39.6807 18.2184 40.1343C18.0132 40.5879 17.7109 40.9766 17.3113 41.3006C16.9225 41.6246 16.4419 41.873 15.8696 42.0458C15.2972 42.2186 14.6492 42.305 13.9257 42.305C13.3101 42.305 12.7593 42.2348 12.2733 42.0944C11.7982 41.954 11.3986 41.765 11.0746 41.5274C10.7506 41.279 10.5022 40.9928 10.3294 40.6689C10.1566 40.3341 10.0703 39.9777 10.0703 39.5997Z" fill="#2C72FF"/>
<path d="M94.1474 51.3785L93.1362 48.7861H93.7984L94.5273 50.8035H94.3938L95.133 48.7861H95.5899L96.324 50.8035H96.2059L96.9297 48.7861H97.556L96.5447 51.3785H95.98L95.2049 49.3149H95.477L94.7172 51.3785H94.1474Z" fill="#242424"/>
<path d="M91.6114 51.4299C91.3444 51.4299 91.1134 51.3751 90.9184 51.2656C90.7233 51.1561 90.571 51.0004 90.4615 50.7985C90.3554 50.5966 90.3024 50.357 90.3024 50.0798C90.3024 49.8026 90.3554 49.5648 90.4615 49.3663C90.571 49.1644 90.7233 49.0086 90.9184 48.8991C91.1134 48.7896 91.3444 48.7349 91.6114 48.7349C91.8783 48.7349 92.1093 48.7896 92.3044 48.8991C92.5029 49.0086 92.6551 49.1644 92.7612 49.3663C92.8707 49.5648 92.9255 49.8026 92.9255 50.0798C92.9255 50.357 92.8707 50.5966 92.7612 50.7985C92.6551 51.0004 92.5029 51.1561 92.3044 51.2656C92.1093 51.3751 91.8783 51.4299 91.6114 51.4299ZM91.6114 50.9371C91.8133 50.9371 91.9741 50.8669 92.0939 50.7266C92.2137 50.5829 92.2736 50.3673 92.2736 50.0798C92.2736 49.7923 92.2137 49.5784 92.0939 49.4381C91.9741 49.2978 91.8133 49.2277 91.6114 49.2277C91.4095 49.2277 91.2486 49.2978 91.1288 49.4381C91.0091 49.5784 90.9492 49.7923 90.9492 50.0798C90.9492 50.3673 91.0091 50.5829 91.1288 50.7266C91.2486 50.8669 91.4095 50.9371 91.6114 50.9371Z" fill="#242424"/>
<path d="M88.4607 51.3785V49.4484C88.4607 49.3389 88.4573 49.2277 88.4505 49.1147C88.4471 49.0018 88.4385 48.8923 88.4248 48.7862H89.0459L89.1178 49.4946H89.0151C89.0494 49.3235 89.1058 49.1815 89.1845 49.0685C89.2667 48.9556 89.3659 48.8718 89.4823 48.817C89.5986 48.7622 89.7252 48.7349 89.8621 48.7349C89.9237 48.7349 89.9734 48.7383 90.011 48.7451C90.0487 48.7486 90.0863 48.7571 90.1239 48.7708L90.1188 49.3355C90.0538 49.3081 89.9973 49.291 89.9494 49.2841C89.9049 49.2773 89.8484 49.2739 89.78 49.2739C89.6328 49.2739 89.5079 49.3047 89.4053 49.3663C89.306 49.4279 89.2307 49.5134 89.1794 49.6229C89.1315 49.7324 89.1075 49.8574 89.1075 49.9977V51.3785H88.4607Z" fill="#242424"/>
<path d="M86.4626 51.4299C86.0554 51.4299 85.7132 51.3546 85.436 51.2041C85.1588 51.0535 84.95 50.8396 84.8097 50.5624C84.6694 50.2852 84.5992 49.9567 84.5992 49.5768C84.5992 49.1935 84.6745 48.8633 84.8251 48.5861C84.9757 48.3054 85.1913 48.0898 85.4719 47.9393C85.756 47.7853 86.0965 47.7083 86.4934 47.7083C86.757 47.7083 86.988 47.7442 87.1864 47.8161C87.3849 47.8845 87.5595 47.9855 87.71 48.1189L87.4893 48.6323C87.3798 48.5467 87.2754 48.4783 87.1762 48.4269C87.0769 48.3756 86.9743 48.3397 86.8682 48.3191C86.7621 48.2952 86.6389 48.2832 86.4986 48.2832C86.1016 48.2832 85.8004 48.3961 85.5951 48.622C85.3932 48.8444 85.2922 49.1644 85.2922 49.5819C85.2922 49.9994 85.3881 50.3177 85.5797 50.5367C85.7748 50.7557 86.0794 50.8653 86.4934 50.8653C86.6338 50.8653 86.7741 50.8516 86.9144 50.8242C87.0581 50.7968 87.1984 50.7575 87.3353 50.7061L87.2121 50.9833V49.9002H86.3651V49.4177H87.7614V51.1579C87.5937 51.2434 87.3935 51.3101 87.1608 51.3581C86.9281 51.406 86.6954 51.4299 86.4626 51.4299Z" fill="#242424"/>
<path d="M82.2253 52.0613L81.9635 51.856C82.073 51.743 82.1483 51.637 82.1894 51.5377C82.2339 51.4419 82.2561 51.3392 82.2561 51.2297L82.3947 51.3786H81.9122V50.665H82.6308V51.1373C82.6308 51.3118 82.6 51.471 82.5384 51.6147C82.4803 51.7619 82.3759 51.9107 82.2253 52.0613Z" fill="#242424"/>
<path d="M78.891 51.3785V49.433C78.891 49.3269 78.8876 49.2191 78.8808 49.1096C78.8739 49.0001 78.8637 48.8923 78.85 48.7862H79.4711L79.5224 49.2995H79.4608C79.543 49.1182 79.6645 48.9796 79.8253 48.8837C79.9862 48.7845 80.1727 48.7349 80.3848 48.7349C80.6894 48.7349 80.9187 48.8204 81.0727 48.9915C81.2267 49.1626 81.3037 49.4296 81.3037 49.7923V51.3785H80.662V49.8231C80.662 49.6144 80.621 49.4655 80.5388 49.3765C80.4601 49.2841 80.3404 49.2379 80.1795 49.2379C79.981 49.2379 79.8236 49.2995 79.7072 49.4227C79.5909 49.5459 79.5327 49.7102 79.5327 49.9155V51.3785H78.891Z" fill="#242424"/>
<path d="M76.8706 51.3785V49.4484C76.8706 49.3389 76.8672 49.2277 76.8603 49.1147C76.8569 49.0018 76.8483 48.8923 76.8347 48.7862H77.4558L77.5277 49.4946H77.425C77.4592 49.3235 77.5157 49.1815 77.5944 49.0685C77.6765 48.9556 77.7758 48.8718 77.8921 48.817C78.0085 48.7622 78.1351 48.7349 78.272 48.7349C78.3336 48.7349 78.3832 48.7383 78.4209 48.7451C78.4585 48.7486 78.4961 48.7571 78.5338 48.7708L78.5287 49.3355C78.4636 49.3081 78.4072 49.291 78.3593 49.2841C78.3148 49.2773 78.2583 49.2739 78.1899 49.2739C78.0427 49.2739 77.9178 49.3047 77.8151 49.3663C77.7159 49.4279 77.6406 49.5134 77.5893 49.6229C77.5413 49.7324 77.5174 49.8574 77.5174 49.9977V51.3785H76.8706Z" fill="#242424"/>
<path d="M74.6935 51.4299C74.4676 51.4299 74.2691 51.3768 74.098 51.2707C73.9269 51.1612 73.7934 51.0055 73.6976 50.8036C73.6018 50.6017 73.5539 50.3604 73.5539 50.0798C73.5539 49.7992 73.6018 49.5596 73.6976 49.3611C73.7934 49.1592 73.9269 49.0052 74.098 48.8991C74.2691 48.7896 74.4676 48.7349 74.6935 48.7349C74.9125 48.7349 75.1042 48.7896 75.2684 48.8991C75.4361 49.0052 75.5473 49.149 75.6021 49.3303H75.5456L75.6021 48.7862H76.2181C76.2078 48.8923 76.1976 49.0001 76.1873 49.1096C76.1804 49.2191 76.177 49.3269 76.177 49.433V51.3785H75.5405L75.5354 50.8447H75.597C75.5422 51.0226 75.431 51.1646 75.2633 51.2707C75.0956 51.3768 74.9057 51.4299 74.6935 51.4299ZM74.8732 50.9371C75.0751 50.9371 75.2376 50.8669 75.3608 50.7266C75.484 50.5829 75.5456 50.3673 75.5456 50.0798C75.5456 49.7923 75.484 49.5784 75.3608 49.4381C75.2376 49.2978 75.0751 49.2277 74.8732 49.2277C74.6712 49.2277 74.5087 49.2978 74.3855 49.4381C74.2623 49.5784 74.2007 49.7923 74.2007 50.0798C74.2007 50.3673 74.2606 50.5829 74.3804 50.7266C74.5036 50.8669 74.6678 50.9371 74.8732 50.9371Z" fill="#242424"/>
<path d="M70.7159 51.3785V47.7595H73.1543V48.278H71.3525V49.279H73.0362V49.8026H71.3525V50.8549H73.1543V51.3785H70.7159Z" fill="#242424"/>
<path d="M68.224 52.0613L67.9622 51.856C68.0717 51.743 68.147 51.637 68.188 51.5377C68.2325 51.4419 68.2548 51.3392 68.2548 51.2297L68.3934 51.3786H67.9108V50.665H68.6295V51.1373C68.6295 51.3118 68.5987 51.471 68.5371 51.6147C68.4789 51.7619 68.3745 51.9107 68.224 52.0613Z" fill="#242424"/>
<path d="M65.3898 52.5437L65.2409 52.0355C65.4018 52.0013 65.5369 51.962 65.6465 51.9175C65.756 51.873 65.8467 51.8148 65.9185 51.7429C65.9904 51.6711 66.0503 51.5787 66.0982 51.4657L66.2265 51.1629L66.2111 51.4144L65.0818 48.7861H65.7645L66.5756 50.8087H66.4267L67.2429 48.7861H67.8897L66.7091 51.5222C66.6303 51.707 66.5448 51.8593 66.4524 51.9791C66.36 52.1023 66.2607 52.1998 66.1547 52.2717C66.0486 52.347 65.9322 52.4051 65.8056 52.4462C65.679 52.4873 65.5404 52.5198 65.3898 52.5437Z" fill="#242424"/>
<path d="M64.1026 51.3785V47.6003H64.7443V51.3785H64.1026Z" fill="#242424"/>
<path d="M62.7641 51.3785V47.6003H63.4058V51.3785H62.7641Z" fill="#242424"/>
<path d="M60.5819 51.4299C60.356 51.4299 60.1575 51.3768 59.9864 51.2707C59.8153 51.1612 59.6818 51.0055 59.586 50.8036C59.4902 50.6017 59.4423 50.3604 59.4423 50.0798C59.4423 49.7992 59.4902 49.5596 59.586 49.3611C59.6818 49.1592 59.8153 49.0052 59.9864 48.8991C60.1575 48.7896 60.356 48.7349 60.5819 48.7349C60.8009 48.7349 60.9925 48.7896 61.1568 48.8991C61.3245 49.0052 61.4357 49.149 61.4905 49.3303H61.434L61.4905 48.7862H62.1065C62.0962 48.8923 62.0859 49.0001 62.0757 49.1096C62.0688 49.2191 62.0654 49.3269 62.0654 49.433V51.3785H61.4289L61.4237 50.8447H61.4853C61.4306 51.0226 61.3194 51.1646 61.1517 51.2707C60.984 51.3768 60.794 51.4299 60.5819 51.4299ZM60.7615 50.9371C60.9634 50.9371 61.126 50.8669 61.2492 50.7266C61.3724 50.5829 61.434 50.3673 61.434 50.0798C61.434 49.7923 61.3724 49.5784 61.2492 49.4381C61.126 49.2978 60.9634 49.2277 60.7615 49.2277C60.5596 49.2277 60.3971 49.2978 60.2739 49.4381C60.1507 49.5784 60.0891 49.7923 60.0891 50.0798C60.0891 50.3673 60.1489 50.5829 60.2687 50.7266C60.3919 50.8669 60.5562 50.9371 60.7615 50.9371Z" fill="#242424"/>
<path d="M57.4572 51.4298C57.139 51.4298 56.9011 51.3425 56.7437 51.168C56.5863 50.9935 56.5076 50.7265 56.5076 50.3672V48.7861H57.1492V50.3621C57.1492 50.5537 57.1886 50.6957 57.2673 50.7881C57.346 50.8771 57.4658 50.9216 57.6266 50.9216C57.808 50.9216 57.9552 50.86 58.0681 50.7368C58.1845 50.6136 58.2426 50.451 58.2426 50.2491V48.7861H58.8843V51.3785H58.258V50.8497H58.3299C58.2546 51.0345 58.14 51.1783 57.986 51.2809C57.8354 51.3802 57.6591 51.4298 57.4572 51.4298Z" fill="#242424"/>
<path d="M55.6867 51.4296C55.3787 51.4296 55.146 51.3492 54.9886 51.1883C54.8312 51.0275 54.7524 50.7862 54.7524 50.4645V49.2685H54.2545V48.7859H54.7524V48.1237L55.3941 47.9595V48.7859H56.0871V49.2685H55.3941V50.4235C55.3941 50.6014 55.4283 50.7263 55.4968 50.7982C55.5652 50.8701 55.6593 50.906 55.7791 50.906C55.8441 50.906 55.8989 50.9009 55.9434 50.8906C55.9913 50.8803 56.0375 50.8667 56.082 50.8495V51.3577C56.0238 51.3817 55.9588 51.3988 55.8869 51.4091C55.8185 51.4228 55.7517 51.4296 55.6867 51.4296Z" fill="#242424"/>
<path d="M52.4122 51.3785V49.4484C52.4122 49.3389 52.4087 49.2277 52.4019 49.1147C52.3985 49.0018 52.3899 48.8923 52.3762 48.7862H52.9974L53.0692 49.4946H52.9666C53.0008 49.3235 53.0572 49.1815 53.136 49.0685C53.2181 48.9556 53.3173 48.8718 53.4337 48.817C53.55 48.7622 53.6767 48.7349 53.8136 48.7349C53.8752 48.7349 53.9248 48.7383 53.9624 48.7451C54.0001 48.7486 54.0377 48.7571 54.0754 48.7708L54.0702 49.3355C54.0052 49.3081 53.9487 49.291 53.9008 49.2841C53.8563 49.2773 53.7999 49.2739 53.7314 49.2739C53.5843 49.2739 53.4594 49.3047 53.3567 49.3663C53.2574 49.4279 53.1822 49.5134 53.1308 49.6229C53.0829 49.7324 53.059 49.8574 53.059 49.9977V51.3785H52.4122Z" fill="#242424"/>
<path d="M51.0788 51.3786V48.7863H51.7204V51.3786H51.0788ZM51.0428 48.2986V47.6724H51.7564V48.2986H51.0428Z" fill="#242424"/>
<path d="M49.0463 51.3785L47.9272 48.7861H48.61L49.421 50.8138H49.2619L50.0935 48.7861H50.7352L49.611 51.3785H49.0463Z" fill="#242424"/>
<path d="M45.3181 51.4299C44.8835 51.4299 44.543 51.3101 44.2966 51.0705C44.0502 50.831 43.927 50.5024 43.927 50.0849C43.927 49.8146 43.98 49.5784 44.0861 49.3765C44.1922 49.1746 44.3394 49.0172 44.5276 48.9043C44.7192 48.7913 44.9417 48.7349 45.1949 48.7349C45.4448 48.7349 45.6535 48.7879 45.8212 48.894C45.9889 49.0001 46.1155 49.149 46.2011 49.3406C46.29 49.5322 46.3345 49.7564 46.3345 50.0131V50.1825H44.4455V49.8437H45.8777L45.7904 49.9155C45.7904 49.676 45.7391 49.4929 45.6364 49.3663C45.5372 49.2396 45.3917 49.1763 45.2001 49.1763C44.9879 49.1763 44.8236 49.2516 44.7073 49.4022C44.5943 49.5528 44.5379 49.7632 44.5379 50.0336V50.1003C44.5379 50.381 44.6063 50.5914 44.7432 50.7317C44.8835 50.8686 45.0803 50.9371 45.3335 50.9371C45.4807 50.9371 45.6176 50.9182 45.7442 50.8806C45.8742 50.8395 45.9974 50.7745 46.1138 50.6855L46.3037 51.1167C46.1805 51.216 46.0334 51.293 45.8623 51.3477C45.6912 51.4025 45.5098 51.4299 45.3181 51.4299Z" fill="#242424"/>
<path d="M41.8884 51.4298C41.6626 51.4298 41.4624 51.3768 41.2878 51.2707C41.1167 51.1612 40.9833 51.0055 40.8874 50.8035C40.7916 50.6016 40.7437 50.3604 40.7437 50.0797C40.7437 49.7991 40.7916 49.5596 40.8874 49.3611C40.9833 49.1592 41.1167 49.0052 41.2878 48.8991C41.4624 48.7896 41.6626 48.7348 41.8884 48.7348C42.104 48.7348 42.294 48.7879 42.4582 48.8939C42.6259 48.9966 42.7372 49.1369 42.7919 49.3149H42.7252V47.6003H43.3668V51.3785H42.7354V50.8292H42.797C42.7423 51.014 42.6311 51.1612 42.4634 51.2707C42.2991 51.3768 42.1075 51.4298 41.8884 51.4298ZM42.0681 50.937C42.27 50.937 42.4326 50.8669 42.5558 50.7265C42.679 50.5828 42.7406 50.3672 42.7406 50.0797C42.7406 49.7923 42.679 49.5784 42.5558 49.4381C42.4326 49.2978 42.27 49.2276 42.0681 49.2276C41.8662 49.2276 41.7019 49.2978 41.5753 49.4381C41.4521 49.5784 41.3905 49.7923 41.3905 50.0797C41.3905 50.3672 41.4521 50.5828 41.5753 50.7265C41.7019 50.8669 41.8662 50.937 42.0681 50.937Z" fill="#242424"/>
<path d="M39.0148 51.4299C38.7479 51.4299 38.5169 51.3751 38.3218 51.2656C38.1267 51.1561 37.9745 51.0004 37.8649 50.7985C37.7589 50.5966 37.7058 50.357 37.7058 50.0798C37.7058 49.8026 37.7589 49.5648 37.8649 49.3663C37.9745 49.1644 38.1267 49.0086 38.3218 48.8991C38.5169 48.7896 38.7479 48.7349 39.0148 48.7349C39.2817 48.7349 39.5127 48.7896 39.7078 48.8991C39.9063 49.0086 40.0586 49.1644 40.1647 49.3663C40.2742 49.5648 40.3289 49.8026 40.3289 50.0798C40.3289 50.357 40.2742 50.5966 40.1647 50.7985C40.0586 51.0004 39.9063 51.1561 39.7078 51.2656C39.5127 51.3751 39.2817 51.4299 39.0148 51.4299ZM39.0148 50.9371C39.2167 50.9371 39.3776 50.8669 39.4973 50.7266C39.6171 50.5829 39.677 50.3673 39.677 50.0798C39.677 49.7923 39.6171 49.5784 39.4973 49.4381C39.3776 49.2978 39.2167 49.2277 39.0148 49.2277C38.8129 49.2277 38.6521 49.2978 38.5323 49.4381C38.4125 49.5784 38.3526 49.7923 38.3526 50.0798C38.3526 50.3673 38.4125 50.5829 38.5323 50.7266C38.6521 50.8669 38.8129 50.9371 39.0148 50.9371Z" fill="#242424"/>
<path d="M36.2458 51.4299C35.8694 51.4299 35.546 51.3546 35.2756 51.2041C35.0087 51.0501 34.8034 50.8345 34.6596 50.5573C34.5159 50.2766 34.444 49.9464 34.444 49.5665C34.444 49.1867 34.5159 48.8581 34.6596 48.5809C34.8034 48.3037 35.0087 48.0898 35.2756 47.9393C35.546 47.7853 35.8694 47.7083 36.2458 47.7083C36.4991 47.7083 36.7267 47.7442 36.9286 47.8161C37.1339 47.8879 37.3101 47.994 37.4573 48.1343L37.2417 48.6579C37.0809 48.5279 36.9251 48.4355 36.7746 48.3807C36.6274 48.3225 36.458 48.2935 36.2664 48.2935C35.9002 48.2935 35.6196 48.4047 35.4245 48.6271C35.2329 48.8461 35.137 49.1593 35.137 49.5665C35.137 49.9738 35.2329 50.2886 35.4245 50.5111C35.6196 50.7335 35.9002 50.8447 36.2664 50.8447C36.458 50.8447 36.6274 50.8173 36.7746 50.7626C36.9251 50.7044 37.0809 50.6086 37.2417 50.4751L37.4573 50.9987C37.3101 51.1356 37.1339 51.2417 36.9286 51.317C36.7267 51.3923 36.4991 51.4299 36.2458 51.4299Z" fill="#242424"/>
<defs>
<filter id="filter0_i_547_10201" x="49.619" y="6.7168" width="33" height="18.3333" filterUnits="userSpaceOnUse" color-interpolation-filters="sRGB">
<feFlood flood-opacity="0" result="BackgroundImageFix"/>
<feBlend mode="normal" in="SourceGraphic" in2="BackgroundImageFix" result="shape"/>
<feColorMatrix in="SourceAlpha" type="matrix" values="0 0 0 0 0 0 0 0 0 0 0 0 0 0 0 0 0 0 127 0" result="hardAlpha"/>
<feOffset dx="-2.2"/>
<feComposite in2="hardAlpha" operator="arithmetic" k2="-1" k3="1"/>
<feColorMatrix type="matrix" values="0 0 0 0 0 0 0 0 0 0 0 0 0 0 0 0 0 0 0.1 0"/>
<feBlend mode="normal" in2="shape" result="effect1_innerShadow_547_10201"/>
</filter>
<filter id="filter1_d_547_10201" x="51.9932" y="8.17443" width="28.6581" height="16.5182" filterUnits="userSpaceOnUse" color-interpolation-filters="sRGB">
<feFlood flood-opacity="0" result="BackgroundImageFix"/>
<feColorMatrix in="SourceAlpha" type="matrix" values="0 0 0 0 0 0 0 0 0 0 0 0 0 0 0 0 0 0 127 0" result="hardAlpha"/>
<feOffset dx="0.641666" dy="0.55"/>
<feGaussianBlur stdDeviation="0.967083"/>
<feComposite in2="hardAlpha" operator="out"/>
<feColorMatrix type="matrix" values="0 0 0 0 0 0 0 0 0 0 0 0 0 0 0 0 0 0 0.25 0"/>
<feBlend mode="normal" in2="BackgroundImageFix" result="effect1_dropShadow_547_10201"/>
<feBlend mode="normal" in="SourceGraphic" in2="effect1_dropShadow_547_10201" result="shape"/>
</filter>
</defs>
</svg>
