<svg width="372" height="14" viewBox="0 0 372 14" fill="none" xmlns="http://www.w3.org/2000/svg">
<path d="M105.327 8.56582C119.391 7.09217 133.602 6.15794 147.876 5.59443C152.976 5.4276 158.077 5.27003 163.178 5.12359C182.547 4.68984 201.982 4.82331 221.281 5.10321C234.965 5.30155 248.65 5.59257 262.337 5.84652C253.039 6.03744 243.749 6.28769 234.476 6.56388C191.487 7.83919 148.384 9.70766 105.327 8.56582ZM282.817 3.10127C286.544 3.20508 290.27 3.3441 293.987 3.5239C280.135 3.41083 266.289 3.15688 252.439 2.88995C262.565 2.788 272.691 2.82323 282.817 3.10127ZM370.226 8.51761C356.165 7.23674 342.028 6.43598 327.856 5.97998C329.341 5.34974 329.37 3.78711 327.148 3.51277C281.355 -2.15197 233.928 0.450545 187.566 1.64985C178.025 1.89639 168.486 2.16517 158.948 2.4599C155.62 2.54888 152.293 2.65453 148.968 2.78058C115.309 3.89647 81.6931 5.39979 48.2052 7.66309C32.6908 8.71225 17.21 9.92268 1.77527 11.2981C-1.33621 11.5761 -0.0106863 14.2546 3.07633 13.9803C30.6128 11.5261 58.2813 9.65762 86.0224 8.20436C84.381 8.90504 85.3231 10.5826 87.6047 10.692C133.05 12.87 178.701 11.0812 224.127 9.65947C269.428 8.24328 315.208 7.00318 360.325 10.4732C363.197 10.6938 366.062 10.9385 368.924 11.198C372.011 11.4797 373.336 8.80122 370.226 8.51761Z" fill="#2C72FF"/>
</svg>
