<svg width="250" height="338" viewBox="0 0 250 338" fill="none" xmlns="http://www.w3.org/2000/svg">
<g clip-path="url(#clip0_549_10530)">
<path opacity="0.5" d="M167.61 331.999C114.375 331.999 71.2193 323.914 71.2193 313.94C71.2193 303.966 114.375 295.881 167.61 295.881C220.845 295.881 264 303.966 264 313.94C264 323.914 220.845 331.999 167.61 331.999Z" fill="#B3CEF4"/>
<path d="M118.791 255.189L154.273 307.992C140.631 308.221 127.657 314.175 114.05 315.118C108.826 315.479 103.504 315.074 98.5348 313.427C93.5652 311.779 88.9474 308.838 85.7546 304.68C82.9663 301.052 81.3127 296.498 81.4447 291.927C81.8053 279.772 84.3033 271.29 118.791 255.189Z" fill="#F9B887"/>
<path d="M136.128 270.092C122.697 275.007 106.944 287.487 106.161 300.444C105.958 303.782 106.381 307.173 107.515 310.308C110.163 317.593 117.067 322.666 124.429 325.044C131.791 327.431 139.672 327.528 147.413 327.598C162.128 327.739 196.414 322.349 196.414 322.349C196.414 322.349 186.272 301.95 179.007 297.669C182.798 288.8 174.451 275.183 161.89 271.017C155.452 268.885 144.202 267.133 136.128 270.092Z" fill="#FFC799"/>
<path d="M181.734 304.258C177.257 305.737 167.142 310.326 162.867 312.317C158.108 314.527 152.998 317.117 147.861 316.025" stroke="#C16B4D" stroke-width="0.857396" stroke-miterlimit="10" stroke-linejoin="round"/>
<path d="M173.747 298.101C178.18 300.294 183.915 305.773 186.8 310.731C189.544 315.452 191.47 320.226 188.849 324.375C193.625 323.291 199.862 325.027 204.312 327.193C209.203 329.571 215.149 331.139 220.62 330.302C230.955 328.735 226.187 318.289 222.062 312.819C216.538 305.508 213.697 303.835 206.995 297.652C204.655 295.494 198.138 290.359 195.429 288.694C188.744 289.857 181.778 295.036 173.747 298.101Z" fill="white"/>
<path d="M223.557 329.439C224.085 326.903 223.593 324.234 222.572 321.865C220.584 317.258 217.066 313.532 213.671 309.921C206.713 302.523 199.061 295.926 190.943 289.831" stroke="#DBBB61" stroke-width="0.857396" stroke-miterlimit="10" stroke-linejoin="round"/>
<path d="M203.354 320.852C201.524 323.019 199.096 324.692 196.414 325.626" stroke="#DBBB61" stroke-width="0.857396" stroke-miterlimit="10" stroke-linejoin="round"/>
<path d="M199.668 319.407C200.187 321.019 200.477 322.701 200.513 324.392C200.53 325.062 200.495 325.766 200.161 326.348" stroke="#DBBB61" stroke-width="0.857396" stroke-miterlimit="10" stroke-linejoin="round"/>
<path d="M208.174 322.358C206.819 324.375 204.963 326.057 202.826 327.202" stroke="#DBBB61" stroke-width="0.857396" stroke-miterlimit="10" stroke-linejoin="round"/>
<path d="M205.931 322.076C206.115 323.133 206.362 324.181 206.441 325.247C206.52 326.312 206.406 327.431 205.913 328.321" stroke="#DBBB61" stroke-width="0.857396" stroke-miterlimit="10" stroke-linejoin="round"/>
<path d="M116.98 202.263L98.4206 191.571L84.928 207.002C84.928 207.002 97.972 226.265 116.091 236.596C122.275 237.389 116.98 202.263 116.98 202.263Z" fill="#F9B887"/>
<path d="M112.063 199.876C111.473 199.128 110.893 198.379 110.304 197.63C110.04 197.296 109.688 196.926 109.274 197.014C108.887 197.093 108.694 197.534 108.597 197.921C108.272 199.189 108.219 200.537 108.456 201.823C107.225 201.453 105.923 202.545 105.642 203.796C105.36 205.055 105.827 206.35 106.407 207.495C105.105 207.398 104.111 208.843 104.182 210.155C104.252 211.459 105.035 212.613 105.791 213.678C104.683 213.608 103.654 214.436 103.249 215.466C102.854 216.506 103.003 217.686 103.434 218.708C103.856 219.729 104.534 220.628 105.202 221.517C104.419 221.5 103.513 221.535 103.012 222.143C102.458 222.821 102.722 223.851 103.241 224.556C103.76 225.261 104.481 225.789 104.965 226.511C103.953 226.458 103.179 227.427 102.871 228.387C102.361 229.955 102.599 231.761 103.504 233.144C103.61 233.302 103.724 233.461 103.9 233.522C104.041 233.575 104.199 233.549 104.349 233.531C107.339 233.126 110.48 234.033 112.784 235.98" fill="white"/>
<path d="M102.563 195.975C101.05 191.218 102.308 186.163 100.558 181.345C99.3529 178.016 97.1804 175.135 95.0518 172.317C93.6797 170.502 92.0437 169.102 90.821 167.2C89.4929 165.13 87.8745 163.21 86.6519 161.087C86.344 160.558 86.0274 159.968 85.4556 159.748C84.3122 159.299 83.16 159.73 82.6674 160.84C81.0578 164.487 83.116 168.221 84.5585 171.542C82.21 171.11 79.7032 172.405 79.2635 174.88C78.1464 174.475 76.8095 174.757 75.9563 175.576C75.0943 176.395 74.76 177.725 75.1119 178.852C74.76 177.725 72.7194 179.116 72.394 179.434C71.057 180.746 70.6964 182.287 70.6876 184.102C70.6788 185.775 70.6612 187.457 70.6524 189.131C70.6437 190.399 70.8723 191.65 72.394 191.668C73.3879 191.676 74.3554 191.016 74.7161 190.091C74.9887 192.769 75.2702 195.464 76.053 198.036C76.8358 200.608 78.1816 203.083 80.2574 204.782C83.3359 207.302 87.549 207.83 91.5159 207.98" fill="#F9B887"/>
<path d="M96.2832 177.645C94.7967 176.192 93.1783 174.862 91.1377 174.351C89.2994 173.893 87.3907 173.893 85.4996 173.902C84.4441 173.902 83.1864 174.034 82.7026 174.968C82.3596 175.637 82.4915 176.914 82.9753 177.496C83.459 178.077 84.5321 178.491 85.2006 178.843C87.1972 179.9 88.0768 179.856 89.4841 181.662C84.8224 185.555 82.4475 192.002 84.1803 197.824" fill="#F9B887"/>
<path d="M96.2832 177.645C94.7967 176.192 93.1783 174.862 91.1377 174.351C89.2994 173.893 87.3907 173.893 85.4996 173.902C84.4441 173.902 83.1864 174.034 82.7026 174.968C82.3596 175.637 82.4915 176.914 82.9753 177.496C83.459 178.077 84.5321 178.491 85.2006 178.843C87.1972 179.9 88.0768 179.856 89.4841 181.662C84.8224 185.555 82.4475 192.002 84.1803 197.824" stroke="#C16B4D" stroke-width="0.857396" stroke-miterlimit="10" stroke-linejoin="round"/>
<path d="M84.3034 171.234C84.6641 172.097 85.0335 172.96 85.3941 173.823" stroke="#C16B4D" stroke-width="0.857396" stroke-miterlimit="10" stroke-linejoin="round"/>
<path d="M86.1506 179.583C86.4057 180.799 86.4585 182.129 85.8868 183.238C85.315 184.348 83.9781 185.123 82.7995 184.718C82.0167 184.454 81.4625 183.74 81.1459 182.983C80.8292 182.226 80.6973 181.398 80.495 180.596C79.9496 178.438 78.8414 176.298 79.2284 174.105" stroke="#C16B4D" stroke-width="0.857396" stroke-miterlimit="10" stroke-linejoin="round"/>
<path d="M81.6912 183.749C81.6912 184.665 81.5768 185.599 81.225 186.444C80.8732 187.29 80.2487 188.047 79.4219 188.444C79.0876 188.602 78.727 188.699 78.3576 188.664C77.7771 188.611 77.2757 188.215 76.9503 187.739C76.6248 187.264 76.4489 186.7 76.2818 186.136C75.4814 183.326 75.0152 180.438 74.549 177.557" stroke="#C16B4D" stroke-width="0.857396" stroke-miterlimit="10" stroke-linejoin="round"/>
<path d="M76.3698 186.911C75.9651 188.303 75.2879 189.607 74.3907 190.743" stroke="#C16B4D" stroke-width="0.857396" stroke-miterlimit="10" stroke-linejoin="round"/>
<path d="M91.4806 268.982C94.1457 267.467 97.2066 266.648 100.276 266.631L107.841 263.936C121.237 266.816 134.404 271.316 146.076 278.504C157.748 285.691 167.59 295.608 173.747 307.869C172.991 308.935 172.234 310.009 171.478 311.075C171.029 311.709 170.537 312.379 169.807 312.634C168.602 313.057 167.273 312.106 166.798 310.925C166.323 309.736 166.491 308.406 166.658 307.147C165.461 308.345 163.263 307.931 162.181 306.636C161.099 305.332 160.94 303.474 161.24 301.809C159.735 302.893 157.545 302.901 156.032 301.827C154.52 300.752 153.798 298.682 154.317 296.903C152.567 297.819 150.377 297.96 148.626 297.035C146.885 296.111 145.741 294.049 146.12 292.112C144.774 292.587 143.27 292.799 141.845 292.808C140.42 292.816 138.942 292.394 137.904 291.416C136.884 290.456 136.365 288.985 136.559 287.593C134.263 287.408 131.607 288.078 129.892 286.536C128.783 285.532 128.607 283.885 128.59 282.388C126.98 282.855 125.3 283.33 123.655 283.004C122.011 282.679 120.454 281.269 120.559 279.596C118.862 280.133 116.988 280.538 115.326 279.887C113.663 279.235 112.476 277.138 113.382 275.606C112.283 275.949 111.693 276.416 110.541 276.522C109.398 276.628 108.193 276.46 107.207 275.853C106.011 275.113 105.264 273.703 105.316 272.294C104.059 272.884 102.959 273.395 101.631 272.999C100.303 272.602 99.2121 271.211 99.5463 269.863C98.1918 270.339 96.8108 270.814 95.3771 270.894C93.9434 270.973 92.4218 270.603 91.4015 269.59C91.3047 269.493 91.2168 269.379 91.2343 269.247C91.2519 269.123 91.3751 269.044 91.4806 268.982Z" fill="white"/>
<path d="M151.221 194.495C154.396 194.037 160.131 194.547 163.271 194.495C169.648 194.389 176.351 193.808 182.596 195.745C188.788 197.665 194.021 202.281 197.733 207.495C201.674 213.035 203.406 219.843 204.383 226.485C205.676 235.231 206.582 242.55 209.053 251.129C211.797 260.65 216.002 270.761 212.598 280.609C211.085 284.995 208.024 288.809 204.594 292.191C200.504 296.234 194.707 298.991 189.562 301.888C183.862 305.112 178.066 308.186 172.181 311.128C167.546 302.734 159.507 294.86 150.192 289.971C140.033 284.643 129.856 282.996 119.838 277.455C116.311 275.5 113.18 272.981 109.582 271.131C104.868 268.709 99.4144 267.494 94.005 267.661C102.414 261.504 109.283 257.955 118.343 252.626C120.515 239.908 122.89 231.117 126.919 218.778C128.229 214.753 129.689 210.736 131.879 207.037C134.07 203.338 137.034 199.947 140.886 197.639C144.765 195.322 146.647 195.155 151.221 194.495Z" fill="#FFE98D"/>
<path d="M124.702 271.907C126.681 268.991 129.874 267.08 133.225 265.997C138.494 264.288 145.275 263.231 150.192 266.481C152.004 267.679 153.385 269.749 153.218 271.916C152.989 274.928 150.104 276.927 147.518 278.477C152.18 278.363 156.851 279.024 161.301 280.415C163.606 281.137 166.236 282.617 166.2 285.03C166.183 286.158 165.541 287.188 164.784 288.034C162.225 290.896 158.425 292.191 154.537 292.517C153.13 291.601 151.687 290.738 150.201 289.963C140.042 284.634 129.865 282.987 119.847 277.447C116.32 275.492 113.189 272.973 109.591 271.123C108.175 270.392 106.68 269.784 105.149 269.282C105.492 269.027 105.844 268.78 106.214 268.569C112.098 265.142 120.375 266.64 124.702 271.907Z" fill="#FFFACA"/>
<path d="M187.442 285.127C187.776 282.511 190.389 280.661 193.001 280.309C195.613 279.957 198.226 280.758 200.741 281.551C199.281 280.239 197.548 279.261 195.992 278.063C194.435 276.865 193.001 275.35 192.5 273.448C191.998 271.545 192.684 269.229 194.461 268.375C195.481 267.881 196.686 267.943 197.803 268.163C202.835 269.158 206.749 273.06 210.029 277.006C210.601 273.413 211.182 269.81 211.753 266.217C211.921 265.151 212.149 264.006 212.51 262.949C213.952 268.806 214.63 274.743 212.607 280.591C211.094 284.977 208.033 288.791 204.603 292.173C204.374 292.394 204.128 292.596 203.899 292.816C201.577 292.896 199.228 292.781 196.836 292.517C194.619 292.27 192.35 291.883 190.468 290.685C188.577 289.505 187.161 287.347 187.442 285.127Z" fill="#FFFACA"/>
<path d="M156.895 194.495C152.461 193.852 147.94 194.037 143.569 195.05C135.53 196.908 121.5 202.862 121.5 202.862C121.5 202.862 116.144 200.546 111.209 198.925C109.855 202.166 107.269 217.518 108.694 234.385C114.112 238.86 122.565 242.515 129.258 242.947C133.436 243.22 138.617 242.929 142.584 241.423C151.828 237.909 157.238 234.861 166.104 230.263" fill="#FFE98D"/>
<path d="M172.894 200.044C167.784 202.607 161.503 203.804 155.795 203.258C151.705 202.862 146.595 200.616 146.982 195.648" stroke="#DBBB61" stroke-width="0.857396" stroke-miterlimit="10" stroke-linejoin="round"/>
<path d="M122.187 204.844C122.758 208.393 123.216 211.96 123.532 215.536" stroke="#DBBB61" stroke-width="0.857396" stroke-miterlimit="10" stroke-linejoin="round"/>
<path d="M120.12 205.593C120.093 208.164 119.864 210.736 119.433 213.264" stroke="#DBBB61" stroke-width="0.857396" stroke-miterlimit="10" stroke-linejoin="round"/>
<path d="M120.436 241.925C120.77 234.614 126.681 217.641 128.458 210.604" stroke="#DBBB61" stroke-width="0.857396" stroke-miterlimit="10" stroke-linejoin="round"/>
<path d="M140.93 270.814C137.148 269.053 132.873 268.516 128.722 267.793C124.57 267.071 120.304 266.067 117.015 263.592" stroke="#DBBB61" stroke-width="0.857396" stroke-miterlimit="10" stroke-linejoin="round"/>
<path d="M139.479 266.278C133.216 265.988 125.74 263.918 121.615 261.707" stroke="#DBBB61" stroke-width="0.857396" stroke-miterlimit="10" stroke-linejoin="round"/>
<path d="M119.486 212.366C117.753 212.824 115.748 212.824 114.341 211.705C112.432 210.181 112.397 207.284 112.977 204.905C113.373 203.276 113.98 201.576 115.009 200.255C118.545 201.576 121.492 202.853 121.492 202.853C121.492 202.853 131.387 198.652 139.321 196.212C139.91 196.749 140.464 197.34 140.965 197.983C142.153 199.506 142.953 201.876 141.59 203.25C141.053 203.787 140.306 204.025 139.567 204.218C135.767 205.187 131.704 205.134 127.93 204.051C126.822 208.032 123.488 211.318 119.486 212.366Z" fill="#FFFACA"/>
<path d="M116.891 143.814C114.648 144.766 112.115 144.237 109.855 145.144C107.823 145.963 106.196 147.936 105.334 150.262C104.481 152.587 104.349 155.229 104.736 157.722C104.894 158.717 105.123 159.783 104.788 160.717C104.437 161.712 103.548 162.249 102.783 162.839C100.716 164.425 99.1152 166.917 98.5963 169.762C98.0773 172.607 98.7282 175.769 100.461 177.857C103.047 180.983 107.788 182.093 111.517 182.128C113.962 182.155 116.188 181.582 118.624 182.331C121.008 183.062 123.11 184.727 125.555 185.176C129.117 185.828 133.005 184.145 136.532 183.67C139.743 183.229 142.944 183.934 146.199 184.066C147.8 184.128 149.453 184.11 150.904 183.317C153.077 182.146 154.414 179.416 154.827 176.641C155.258 173.77 154.827 170.722 153.622 168.177C152.672 166.16 151.283 164.495 150.122 162.645C148.961 160.796 147.984 158.611 148.081 156.313C148.134 154.991 148.538 153.732 148.881 152.464C149.559 149.971 149.99 147.39 150.183 144.783C150.333 142.713 150.324 140.608 149.875 138.609C148.969 134.549 146.234 131.228 142.971 129.554C134.263 125.098 127.297 130.426 122.072 138.459C120.665 140.617 119.143 142.863 116.891 143.814Z" fill="#A55D47"/>
<path d="M118.615 181.987C116.548 180.464 114.288 177.487 115.115 174.589C115.37 173.699 115.88 172.907 116.091 171.999C116.751 169.146 114.473 166.415 115.458 163.553C115.669 162.936 116.1 162.434 116.54 161.976C118.114 160.355 119.97 159.105 121.615 157.572C123.259 156.04 124.737 154.119 125.159 151.812" stroke="#82412A" stroke-width="0.857396" stroke-miterlimit="10" stroke-linejoin="round"/>
<path d="M162.84 199.911C159.181 200.448 152.391 199.911 150.218 196.547L152.004 189.676L175.462 185.819V195.067C175.462 195.067 171.214 198.678 162.84 199.911Z" fill="#FFC799"/>
<path d="M198.991 97.1856C203.459 100.383 204.664 108.653 204.163 114.757C210.1 111.19 214.102 110.212 218.887 109.957C221.174 109.842 223.979 110.935 225.677 112.529C230.383 116.924 225.651 128.533 223.328 132.1C220.294 136.777 216.204 139.578 212.052 139.093C210.293 138.891 208.772 137.834 207.197 136.988C201.278 133.826 199.73 123.301 199.73 123.301C193.493 123.909 179.763 124.648 181.003 114.581C181.865 107.552 191.602 91.9009 198.991 97.1856Z" fill="#EF8A6F"/>
<path d="M219.212 121.627C216.477 119.663 213.134 118.782 209.818 118.571C206.502 118.351 203.177 118.756 199.879 119.161" stroke="#CC5F4A" stroke-width="0.857396" stroke-miterlimit="10" stroke-linejoin="round"/>
<path d="M199.571 116.096C199.773 113.489 199.773 110.838 199.211 108.292C198.648 105.738 197.504 103.28 195.675 101.484" stroke="#CC5F4A" stroke-width="0.857396" stroke-miterlimit="10" stroke-linejoin="round"/>
<path d="M128.827 130.84C130.454 125.512 133.419 120.694 137.28 116.959C144.272 110.186 154.836 109.085 163.878 110.221C178.347 112.027 194.232 122.579 199.483 137.975C205.324 155.088 197.874 176.782 183.669 186.109C172.12 193.693 153.578 195.736 140.411 191.72C133.128 189.5 126.329 186.083 121.843 179.486C117.358 172.889 117.604 165.129 120.454 157.634C122.494 152.27 123.91 151.548 126.329 140.688C127.059 137.376 127.842 134.073 128.827 130.84Z" fill="#FFC799"/>
<path d="M145.02 157.026C143.85 154.921 142.329 153.512 140.833 153.142C139.338 152.772 137.887 153.441 136.849 154.992" stroke="#C16B4D" stroke-width="0.857396" stroke-miterlimit="10" stroke-linejoin="round"/>
<path d="M167.845 147.065C167.3 147.945 166.068 148.069 165.11 147.725C164.221 147.408 163.474 146.8 162.629 146.404C161.626 145.937 160.509 145.831 159.515 145.373C158.504 144.907 157.923 143.647 158.495 142.449C158.997 141.392 159.999 140.908 161.31 140.679C162.673 140.45 164.036 141.031 164.934 141.524C166.42 142.344 169.024 145.136 167.845 147.065Z" fill="#A55D47"/>
<path d="M134.078 136.689C135.028 136.68 135.881 136.812 136.55 137.508C137.456 138.459 137.491 140.591 136.163 141.269C135.503 141.604 134.729 141.577 133.999 141.489C132.917 141.357 131.695 141.789 130.604 141.524C128.985 141.137 128.695 139.631 129.927 138.459C130.929 137.508 132.75 136.698 134.078 136.689Z" fill="#A55D47"/>
<path d="M165.074 163.13C166.174 163.561 167.467 164.231 167.537 165.455C167.581 166.195 167.115 166.882 166.517 167.278C165.919 167.675 165.198 167.824 164.494 167.93C162.937 168.168 161.345 168.238 159.815 167.877C157.554 167.34 153.068 164.028 155.725 161.324C157.888 159.131 162.858 162.276 165.074 163.13Z" fill="#F2AF7C"/>
<path d="M131.501 155.282C131.897 155.608 132.108 156.18 132.117 156.735C132.152 158.629 130.595 159.589 129.17 160.012C127.807 160.417 126.312 160.258 124.983 159.642C123.928 159.148 122.644 157.484 122.89 156.083C123.136 154.657 124.843 154.445 125.925 154.472C127.446 154.516 128.959 154.657 130.472 154.912C130.815 154.974 131.176 155.035 131.466 155.255C131.475 155.255 131.483 155.264 131.501 155.282Z" fill="#F2AF7C"/>
<path d="M127.851 147.478C127.587 148.394 127.385 149.478 127.534 150.218C127.71 151.054 128.282 151.495 128.898 151.689C129.346 151.829 130.076 151.838 130.534 151.539C131.255 151.063 131.677 149.989 132.029 148.791C132.345 147.707 132.504 146.483 132.249 145.69C132.038 145.039 131.501 144.748 130.982 144.581C130.41 144.404 129.707 144.387 129.144 144.898C128.572 145.417 128.141 146.483 127.851 147.478Z" fill="#141833"/>
<path d="M158.434 154.384C158.17 155.3 157.967 156.383 158.117 157.123C158.293 157.96 158.865 158.4 159.48 158.594C159.929 158.735 160.65 158.744 161.116 158.444C161.838 157.968 162.26 156.894 162.612 155.696C162.928 154.613 163.087 153.388 162.831 152.596C162.62 151.944 162.084 151.653 161.565 151.486C160.993 151.31 160.289 151.292 159.727 151.803C159.155 152.331 158.724 153.397 158.434 154.384Z" fill="#141833"/>
<path d="M152.013 166.098C152.584 167.314 152.294 171.489 149.902 174.237C145.565 179.239 136.682 180.305 131.378 175.584C126.241 171.004 126.874 161.562 129.293 161.377C130.094 161.315 134.94 162.778 138.801 163.517C145.222 164.751 151.441 164.883 152.013 166.098Z" fill="#702218"/>
<mask id="mask0_549_10530" style="mask-type:luminance" maskUnits="userSpaceOnUse" x="127" y="161" width="26" height="18">
<path d="M152.013 166.098C152.584 167.314 152.294 171.489 149.902 174.237C145.565 179.239 136.682 180.305 131.378 175.584C126.241 171.004 126.874 161.562 129.293 161.377C130.094 161.315 134.94 162.778 138.801 163.517C145.222 164.751 151.441 164.883 152.013 166.098Z" fill="white"/>
</mask>
<g mask="url(#mask0_549_10530)">
<path d="M156.173 172.853C154.317 171.418 152.083 170.572 149.805 170.132C147.527 169.691 145.196 169.647 142.883 169.691C138.837 169.771 134.694 170.149 131.026 171.92C129.909 172.457 128.818 173.153 128.053 174.157C127.297 175.17 126.918 176.553 127.323 177.768C127.798 179.177 129.17 180.032 130.507 180.587C132.178 181.283 133.946 181.705 135.714 182.11C139.118 182.894 142.698 183.608 146.058 182.63C147.43 182.234 148.723 181.556 149.954 180.807C152.373 179.336 154.607 177.548 156.586 175.496" fill="#C64E39"/>
<path d="M146.946 163.059C147.043 163.65 147.14 164.257 147.105 164.856C147.069 165.455 146.894 166.072 146.498 166.512C145.838 167.261 144.756 167.375 143.771 167.437C140.059 167.675 136.506 167.499 133.084 165.808C129.786 164.178 130.833 160.954 132.363 158.286" fill="white"/>
</g>
<path d="M150.825 193.746C156.191 194.318 161.811 194.054 167.071 192.786" stroke="#C16B4D" stroke-width="0.857396" stroke-miterlimit="10" stroke-linejoin="round"/>
<path d="M116.803 114.669C119.944 100.99 135.987 94.8072 148.151 95.2564C152.62 95.4238 157.097 96.146 161.257 97.8195C164.063 98.9469 166.71 100.524 169.006 102.523C173.826 100.982 178.875 100.189 183.906 100.524C200.539 101.624 213.293 116.043 216.987 132.223C217.242 133.324 217.435 134.442 217.603 135.561C224.314 139.507 224.586 146.042 226.46 147.584C233.101 153.053 238.352 148.79 244.79 150.975C247.737 151.979 250.569 154.7 251.501 157.801C252.961 162.663 250.675 166.036 248.898 170.299C248.062 172.298 249.179 173.523 250.244 175.055C251.123 176.315 251.616 177.794 251.651 179.336C251.721 182.269 250.05 185.079 247.147 185.898C246.101 186.188 245.001 186.215 243.928 186.365C239.697 186.946 236.663 190.205 232.731 191.552C228.571 192.979 224.507 193.737 220.092 193.129C216.248 192.6 212.439 191.57 208.569 191.764C206.546 191.861 204.541 192.292 202.518 192.283C199.211 192.266 195.789 190.918 193.775 188.197C191.057 184.515 192.262 180.146 194.567 176.667C197.372 172.431 199.826 167.472 197.847 162.169C197.276 160.628 196.291 159.289 195.437 157.889C194.276 155.986 193.344 153.846 193.265 151.6C189.861 151.494 186.474 150.675 183.378 149.204C182.455 148.764 181.487 148.191 181.083 147.223C180.863 146.694 180.836 146.104 180.828 145.531C180.748 139.366 182.692 133.183 186.255 128.242C181.795 131.703 178.092 136.706 176.315 142.176C176.219 142.466 176.122 142.775 175.911 142.995C175.691 143.224 175.383 143.321 175.084 143.382C172.489 143.928 169.833 141.894 168.989 139.287C168.153 136.688 168.848 133.764 170.229 131.421C171.61 129.078 173.598 127.211 175.568 125.37C171.856 126.63 168.091 128.576 165.039 131.113C161.125 134.363 157.264 139.692 151.494 138.01C149.348 137.384 147.518 135.693 146.665 133.562C144.668 134.363 142.707 135.341 140.57 135.455C138.432 135.579 136.198 135.077 134.518 133.694C134.263 133.482 134.008 133.245 133.7 133.139C133.128 132.936 132.513 133.192 131.95 133.421C129.522 134.381 126.839 134.759 124.306 134.161C120.348 133.218 118.431 129.774 118.369 125.758C118.36 124.956 118.422 124.181 118.51 123.415C116.689 121.09 116.126 117.611 116.803 114.669Z" fill="#A55D47"/>
<path d="M203.74 139.27C202.975 142.828 204.972 146.378 207.18 149.214C209.396 152.05 212 154.798 212.818 158.348C213.407 160.919 213.539 164.249 211.577 166.257C209.95 167.922 207.408 168.071 205.333 169.067" stroke="#82412A" stroke-width="0.857396" stroke-miterlimit="10" stroke-linejoin="round"/>
<path d="M189.694 161.729C191.655 159.545 194.285 157.907 197.24 157.458C200.187 157.017 203.45 157.863 205.728 159.985C208.824 162.883 209.598 167.543 209.009 171.594C208.437 175.54 206.722 179.283 203.978 182.049C201.234 184.815 197.451 186.55 193.476 186.656C190.688 186.726 187.75 185.942 185.568 184.057C183.387 182.172 182.112 179.063 182.859 176.394" fill="#FFC799"/>
<path d="M187.688 185.449C186.932 185.079 186.211 184.612 185.56 184.048C183.378 182.163 182.103 179.054 182.851 176.385" stroke="#C16B4D" stroke-width="0.857396" stroke-miterlimit="10" stroke-linejoin="round"/>
<path d="M189.694 161.729C191.655 159.545 194.285 157.907 197.24 157.457C200.187 157.017 203.45 157.863 205.728 159.985" stroke="#C16B4D" stroke-width="0.857396" stroke-miterlimit="10" stroke-linejoin="round"/>
<path d="M202.069 169.551C201.102 167.648 199.105 166.582 197.152 166.529C193.071 166.406 189.949 169.762 187.037 172.519" stroke="#C16B4D" stroke-width="0.857396" stroke-miterlimit="10" stroke-linejoin="round"/>
<path d="M197.443 177.989C198.243 174.007 196.792 170.211 194.118 167.067" stroke="#C16B4D" stroke-width="0.857396" stroke-miterlimit="10" stroke-linejoin="round"/>
<path d="M189.201 126.269C187.574 126.974 186.035 127.89 184.627 128.991" stroke="#82412A" stroke-width="0.857396" stroke-miterlimit="10" stroke-linejoin="round"/>
<path d="M194.989 134.302C192.974 140.415 192.42 147.029 193.388 153.406" stroke="#82412A" stroke-width="0.857396" stroke-miterlimit="10" stroke-linejoin="round"/>
<path d="M184.188 123.081C182.376 123.406 180.458 123.847 178.717 124.411C177.001 124.957 175.251 125.67 173.896 126.912" stroke="#82412A" stroke-width="0.857396" stroke-miterlimit="10" stroke-linejoin="round"/>
<path d="M164.555 118.254C161.38 118.914 158.258 119.919 155.399 121.504C152.541 123.081 149.963 125.265 148.107 128.022C147.404 129.07 146.797 130.224 146.568 131.483C146.331 132.743 146.498 134.117 147.219 135.156" stroke="#82412A" stroke-width="0.857396" stroke-miterlimit="10" stroke-linejoin="round"/>
<path d="M160.378 107.799C155.434 106.073 150.069 105.28 144.985 106.478C139.901 107.676 135.143 111.058 132.996 115.982C130.498 121.698 130.138 128.454 134.245 133.641" stroke="#82412A" stroke-width="0.857396" stroke-miterlimit="10" stroke-linejoin="round"/>
<path d="M147.984 103.034C140.121 101.625 134.87 103.289 130.973 105.289C124.042 108.838 119.02 114.607 118.369 123.495" stroke="#82412A" stroke-width="0.857396" stroke-miterlimit="10" stroke-linejoin="round"/>
<path d="M217.532 134.522C217.734 137.913 217.383 141.366 216.248 144.554C215.122 147.743 213.187 150.667 210.557 152.693" stroke="#82412A" stroke-width="0.857396" stroke-miterlimit="10" stroke-linejoin="round"/>
<path d="M212.404 134.751C211.129 138.847 208.191 142.352 204.453 144.237" stroke="#82412A" stroke-width="0.857396" stroke-miterlimit="10" stroke-linejoin="round"/>
<path d="M174.583 106.214C172.401 104.681 170.211 103.149 168.03 101.616" stroke="#82412A" stroke-width="0.857396" stroke-miterlimit="10" stroke-linejoin="round"/>
<path d="M216.987 141.956C216.617 143.99 217.506 147.047 219.063 148.35C221.393 150.297 224.27 151.354 227.014 152.578C231.113 154.401 235.387 157.017 235.291 162.214C235.256 164.019 234.367 165.622 233.734 167.252C233.241 168.511 232.898 169.929 233.285 171.233C234.077 173.963 237.164 174.774 239.337 175.892C241.281 176.905 243.11 178.552 243.884 180.701C244.517 182.454 244.377 184.559 243.295 186.057" stroke="#82412A" stroke-width="0.857396" stroke-miterlimit="10" stroke-linejoin="round"/>
<path d="M220.989 154.938C220.276 157.325 222.053 159.598 223.707 161.016C225.308 162.39 227.278 163.491 228.483 165.296C229.961 167.498 229.943 170.062 228.887 172.431C228.316 173.717 227.665 175.056 227.788 176.465C227.911 177.821 228.738 178.993 229.626 179.988C230.743 181.247 232.071 182.472 232.582 184.154C233.488 187.149 231.746 192.213 228.166 192.143" stroke="#82412A" stroke-width="0.857396" stroke-miterlimit="10" stroke-linejoin="round"/>
<path d="M213.196 161.729C213.433 164.847 216.459 166.715 216.186 170.044C215.94 173.048 214.55 176.368 215.43 179.38C215.791 180.613 216.802 181.503 217.497 182.569C218.535 184.137 218.896 186.171 218.465 188.021C218.034 189.87 216.82 191.509 215.201 192.416" stroke="#82412A" stroke-width="0.857396" stroke-miterlimit="10" stroke-linejoin="round"/>
<path d="M211.138 169.604C211.727 170.907 212.193 172.334 212.044 173.761C211.92 174.915 211.41 175.989 211.015 177.073C210.328 178.984 210.496 180.42 211.621 182.084C213.891 185.458 212.976 189.897 209.167 191.606" stroke="#82412A" stroke-width="0.857396" stroke-miterlimit="10" stroke-linejoin="round"/>
<path d="M104.445 161.712C106.381 160.523 107.77 158.339 108.104 155.96C108.21 155.185 108.219 154.384 108.483 153.644C108.887 152.49 109.864 151.68 110.884 151.16C112.933 150.112 115.273 149.98 117.437 149.258C119.601 148.527 121.791 146.844 122.028 144.396" stroke="#82412A" stroke-width="0.857396" stroke-miterlimit="10" stroke-linejoin="round"/>
<path d="M117.27 155.37C116.082 156.533 114.569 157.193 113.188 158.065C111.807 158.928 110.462 160.144 110.057 161.817C109.591 163.764 110.488 165.939 109.758 167.789C109.257 169.057 108.113 169.859 107.128 170.731C105.703 171.999 104.481 173.646 104.023 175.584C103.566 177.522 103.988 179.777 105.378 181.098" stroke="#82412A" stroke-width="0.857396" stroke-miterlimit="10" stroke-linejoin="round"/>
<path d="M96.2831 76.8921L40.8788 175.822L109.063 251.225L193.151 199.382L96.2831 76.8921Z" fill="url(#paint0_linear_549_10530)"/>
<path d="M65.8674 242.761L107.19 251.578C109.002 251.965 110.567 250.318 110.004 248.618L89.9589 187.853C89.2201 185.607 87.285 183.907 84.8838 183.396L43.5615 174.58C41.7495 174.192 40.1839 175.839 40.7468 177.539L60.7923 238.304C61.5311 240.55 63.4662 242.25 65.8674 242.761Z" fill="#2E3247"/>
<path d="M77.9704 201.558L86.4055 203.355C86.7749 203.434 87.0915 203.099 86.9772 202.747L82.8872 190.346C82.7376 189.888 82.3418 189.544 81.8493 189.438L73.4142 187.642C73.0448 187.562 72.7281 187.897 72.8424 188.249L76.9325 200.651C77.082 201.1 77.4778 201.452 77.9704 201.558Z" stroke="#555A6D" stroke-width="0.571597" stroke-miterlimit="10" stroke-linejoin="round"/>
<path d="M107.33 250.908L87.285 190.143C86.5462 187.897 84.6111 186.197 82.2099 185.687L40.8876 176.87C40.7996 176.852 40.7204 176.843 40.6325 176.835C40.6237 175.417 42.0046 174.245 43.5614 174.58L84.8838 183.396C87.285 183.907 89.2113 185.607 89.9589 187.853L110.004 248.618C110.541 250.239 109.142 251.807 107.436 251.613C107.445 251.384 107.41 251.146 107.33 250.908Z" fill="#555A6D"/>
<path d="M78.4805 197.674C78.1199 198.555 78.806 199.647 80.011 200.096C81.216 200.554 82.4914 200.202 82.852 199.312C83.2126 198.431 82.5265 197.339 81.3215 196.89C80.1077 196.432 78.8411 196.784 78.4805 197.674Z" fill="#555A6D"/>
<path d="M76.7037 192.442C76.3431 193.323 77.0292 194.415 78.2342 194.864C79.4392 195.322 80.7146 194.97 81.0752 194.08C81.4358 193.199 80.7498 192.107 79.5447 191.658C78.3397 191.209 77.0643 191.561 76.7037 192.442Z" fill="#555A6D"/>
<path d="M152.532 259.61C139.892 256.078 127.49 251.683 115.44 246.469C116.003 236.807 118.871 222.107 118.871 222.107C118.871 222.107 132.856 222.732 145.434 223.199" fill="#FFC799"/>
<path d="M148.635 261.882C147.184 262.622 145.689 263.265 144.15 263.803C143.323 264.093 142.373 264.34 141.608 263.926C140.913 263.547 140.57 262.71 140.561 261.927C140.552 261.134 140.834 260.376 141.106 259.628C139.303 260.174 137.35 258.659 136.946 256.818C136.541 254.977 137.368 253.057 138.591 251.63C136.919 251.436 135.407 250.203 134.888 248.6C134.369 246.997 134.87 245.104 136.119 243.976C135.081 243.553 134.114 242.875 133.507 241.924C132.9 240.973 132.706 239.74 133.129 238.7C133.533 237.723 134.404 237.044 135.02 236.181C135.204 235.926 135.371 235.626 135.319 235.318C135.231 234.763 134.571 234.569 134.061 234.332C132.953 233.821 132.205 232.623 132.231 231.399C132.258 230.174 133.067 229.012 134.193 228.554C133.331 228.906 131.088 226.413 130.736 225.788C129.39 223.392 131.545 220.671 134.202 221.173C134.773 221.278 135.292 221.569 135.82 221.825C138.221 222.952 140.922 223.216 143.569 223.463" fill="white"/>
<path d="M124.94 223.542C117.182 217.086 110.585 212.885 102.642 213.889C101.464 214.039 98.0335 214.752 94.4009 216.734C90.4428 218.892 88.8508 221.966 89.572 223.137C90.0997 224 90.7506 224.344 91.7094 224.37C89.8886 225.489 89.5984 227.162 90.4692 228.554C91.3399 229.946 93.0991 230.351 94.612 230.069C93.2134 230.536 93.3454 232.993 94.5328 233.909C95.729 234.825 97.3298 234.658 98.7723 234.455C97.6729 234.526 97.1891 236.226 97.7696 237.239C98.3501 238.26 99.5376 238.657 100.628 238.753C101.728 238.85 102.854 238.727 103.909 239.062C106.477 239.872 107.762 242.946 109.82 244.813C111.825 246.628 115.247 247.368 117.78 246.821" fill="#FFC799"/>
<path d="M121.615 248.161C119.847 247.06 117.736 246.628 115.722 246.972" stroke="#C16B4D" stroke-width="0.857396" stroke-miterlimit="10" stroke-linejoin="round"/>
<path d="M97.9718 234.772C101.165 233.372 104.806 233.257 108.069 234.455" stroke="#C16B4D" stroke-width="0.857396" stroke-miterlimit="10" stroke-linejoin="round"/>
<path d="M93.0814 230.501C94.7349 229.691 96.4325 228.96 98.1477 228.308C99.212 227.903 100.303 227.524 101.42 227.348C103.223 227.066 105.052 227.312 106.864 227.559" stroke="#C16B4D" stroke-width="0.857396" stroke-miterlimit="10" stroke-linejoin="round"/>
<path d="M90.7857 224.37C93.2485 222.97 94.5766 221.939 97.2242 221.041C99.8805 220.143 101.983 219.57 105.562 219.738" stroke="#C16B4D" stroke-width="0.857396" stroke-miterlimit="10" stroke-linejoin="round"/>
<path d="M176.747 199.532C166.983 205.83 157.862 213.132 149.585 221.297C145.355 221.622 141.396 221.896 137.166 222.213C137.729 234.209 141.546 250.362 148.248 262.966C156.059 263.601 167.274 263.838 174.424 260.606C177.424 259.249 180.071 257.232 182.429 254.969C184.548 252.934 194.118 241.396 197.54 230.721" fill="#FFE98D"/>
<path d="M147.246 234.508C144.317 233.777 143.041 230.254 143.041 227.232C143.041 225.215 143.323 223.383 143.842 221.728C145.733 221.587 147.633 221.455 149.585 221.305C154.353 216.601 159.41 212.197 164.696 208.093C167.625 207.732 170.545 207.67 173.255 207.829C175.99 207.996 178.787 208.454 181.136 209.872C182.068 210.436 182.965 211.211 183.273 212.259C183.897 214.408 181.822 216.408 179.755 217.271C175.559 219.024 170.801 218.583 166.28 218.099C169.736 222.661 170.598 229.073 168.47 234.384C166.86 238.418 162.911 239.255 159.243 237.185C156.666 235.732 154.643 233.319 153.658 230.518C152.611 233.054 149.911 235.168 147.246 234.508Z" fill="#FFFACA"/>
<path d="M148.248 262.966C156.059 263.6 167.274 263.838 174.424 260.606C177.424 259.249 180.071 257.232 182.429 254.969C184.548 252.934 194.118 241.396 197.54 230.721" stroke="#DBBB61" stroke-width="0.857396" stroke-miterlimit="10" stroke-linejoin="round"/>
<path d="M176.746 199.532C166.983 205.83 157.862 213.132 149.585 221.297C145.354 221.622 141.396 221.896 137.166 222.213" stroke="#DBBB61" stroke-width="0.857396" stroke-miterlimit="10" stroke-linejoin="round"/>
<path d="M159.762 229.725C157.669 226.748 155.461 224.37 152.62 222.327" stroke="#DBBB61" stroke-width="0.857396" stroke-miterlimit="10" stroke-linejoin="round"/>
<path d="M151.591 225.295C152.637 227.832 153.332 230.509 153.64 233.231" stroke="#DBBB61" stroke-width="0.857396" stroke-miterlimit="10" stroke-linejoin="round"/>
<path d="M142.091 84.335C131.387 85.5416 121.281 91.3636 114.869 100.03" stroke="#526F99" stroke-width="0.857396" stroke-miterlimit="10"/>
<path d="M124.034 84.4932C116.724 87.2412 110.515 92.8254 107.005 99.8188" stroke="#526F99" stroke-width="0.857396" stroke-miterlimit="10"/>
</g>
<path d="M99.7366 189.183L105.649 200.952C106.01 201.671 105.489 202.518 104.686 202.518H99.5143C98.7315 202.518 98.2095 203.327 98.5306 204.041L101.294 210.198C101.777 211.274 100.434 212.236 99.5734 211.431L87.1757 199.825C86.4642 199.159 86.929 197.963 87.9036 197.956L92.5825 197.917C93.4867 197.91 93.9811 196.859 93.4113 196.156L88.6997 190.348C88.1268 189.642 88.6284 188.586 89.5366 188.586H98.7732C99.18 188.587 99.5531 188.818 99.7366 189.183Z" fill="#FFCC2C"/>
<path d="M87.1757 199.825L99.5744 211.434C100.099 211.923 100.81 211.752 101.158 211.3L93.0789 200.958C92.665 200.425 93.0422 199.655 93.715 199.655H97.9832C98.6264 199.655 99.0117 198.922 98.6488 198.388L91.9393 188.586H89.5345C88.6242 188.586 88.1217 189.646 88.6986 190.349L93.4113 196.158C93.9811 196.861 93.4856 197.913 92.5825 197.92L87.8994 197.957C86.931 197.965 86.4652 199.159 87.1757 199.825Z" fill="#FFB815"/>
<defs>
<linearGradient id="paint0_linear_549_10530" x1="67.5844" y1="205.362" x2="141.138" y2="141.431" gradientUnits="userSpaceOnUse">
<stop offset="0.1835" stop-color="white" stop-opacity="0.5"/>
<stop offset="0.8949" stop-color="white" stop-opacity="0"/>
</linearGradient>
<clipPath id="clip0_549_10530">
<rect width="232.673" height="261.108" fill="white" transform="matrix(-1 0 0 1 273.306 76.8921)"/>
</clipPath>
</defs>
</svg>
