<svg width="39" height="35" viewBox="0 0 39 35" fill="none" xmlns="http://www.w3.org/2000/svg">
<path d="M14.2076 25.244C16.2161 20.8431 18.7381 16.6266 21.2678 12.5091C22.5752 10.3811 24.0669 8.40594 25.0573 6.10168C25.5526 4.94942 25.9842 3.29191 26.7036 2.28552C27.4723 1.21023 30.9543 4.46637 31.4932 4.94975C32.4612 5.81785 35.6922 7.31217 34.9418 8.86035C33.5953 11.6381 29.7604 13.6952 27.5457 15.7403C24.8674 18.2136 22.4678 20.8419 20.2669 23.7425C19.4389 24.8338 18.4167 26.3468 17.3776 27.2242C16.7287 27.7721 13.7535 26.8515 14.0669 25.6559C14.8905 22.5142 18.326 19.4288 20.4696 17.156C22.3753 15.1354 24.6503 13.3621 26.3437 11.1541C26.9775 10.3275 27.6551 9.37153 27.9567 8.3592C28.1769 7.62029 27.8801 6.2697 28.3949 5.67706C28.8972 5.09891 32.1259 7.91478 32.0725 8.5476C31.9163 10.3978 28.9081 12.1987 27.6988 13.2989C25.9979 14.8465 24.4445 16.5529 23.3509 18.5821C21.936 21.2073 20.3489 23.778 17.6354 25.2154C16.5711 25.7792 18.3531 22.8972 18.9437 21.8475C20.4447 19.1794 21.9831 16.5189 23.737 14.0064C24.5281 12.873 26.5248 9.59759 26.5703 10.979C26.602 11.9408 24.2525 18.3414 23.259 18.4155C23.2513 18.4161 25.9197 9.54572 26.2851 8.50064C26.4914 7.91037 25.6873 9.59932 25.4037 10.1566C25.1271 10.7002 24.8556 11.2467 24.5605 11.7805C24.2275 12.3827 23.7633 14.0628 23.3927 13.4829C22.4999 12.0859 27.0191 7.17084 27.9036 6.05936" stroke="#F4961D" stroke-width="3.50199" stroke-linecap="round"/>
<path d="M6.99495 19.9576C6.76739 17.6125 6.80231 15.2188 6.86476 12.8648C6.89704 11.6483 7.04476 10.4507 6.89969 9.23789C6.82715 8.63144 6.60393 7.8281 6.66199 7.22789C6.72403 6.58659 8.9953 7.10007 9.3418 7.17088C9.96409 7.29804 11.6977 7.13215 11.7592 7.9679C11.8695 9.46741 10.75 11.2756 10.3134 12.6804C9.78539 14.3793 9.41331 16.0748 9.19204 17.8361C9.10879 18.4987 9.04666 19.3865 8.82168 20.0111C8.6812 20.4011 7.19639 20.7454 7.03626 20.1654C6.6155 18.6414 7.31412 16.4988 7.66487 15.0158C7.97671 13.6972 8.50542 12.3919 8.68145 11.0468C8.74734 10.5433 8.80003 9.97456 8.67979 9.47458C8.59203 9.10963 8.13566 8.6145 8.20846 8.23863C8.27947 7.87194 10.3357 8.26253 10.468 8.54184C10.8551 9.35851 10.0227 10.8557 9.7803 11.6158C9.43934 12.685 9.19969 13.7847 9.23371 14.9072C9.27772 16.3593 9.23544 17.8309 8.43887 19.1027C8.12645 19.6016 8.17497 17.9511 8.16787 17.3644C8.14984 15.873 8.14948 14.3756 8.27659 12.8875C8.33392 12.2163 8.37697 10.3476 8.73451 10.9174C8.98346 11.3142 9.55637 14.5842 9.154 14.8597C9.1509 14.8618 8.10815 10.4745 8.00685 9.9451C7.94964 9.64607 8.02289 10.5542 8.03934 10.8584C8.05538 11.155 8.07427 11.4517 8.08005 11.7488C8.08658 12.084 8.30153 12.9048 8.00268 12.752C7.28263 12.3839 7.99188 9.20526 8.0941 8.52024" stroke="#F4961D" stroke-width="3.17784" stroke-linecap="round"/>
<path d="M23.1002 30.112C24.7468 28.621 26.5779 27.3013 28.3943 26.0248C29.3331 25.3651 30.3224 24.8034 31.1586 24.0116C31.5767 23.6156 32.0591 22.995 32.5459 22.7014C33.0661 22.3877 33.9548 24.3952 34.0961 24.6972C34.3498 25.2396 35.4503 26.4582 34.8524 26.9747C33.7797 27.9015 31.7818 28.0711 30.4733 28.5308C28.8907 29.0866 27.3984 29.7585 25.9411 30.5816C25.3929 30.8912 24.6862 31.3434 24.087 31.5244C23.7129 31.6374 22.6173 30.7075 22.9662 30.2601C23.8828 29.0847 25.897 28.4085 27.2166 27.8399C28.3897 27.3344 29.6748 27.0004 30.7917 26.3772C31.2098 26.1439 31.6698 25.8639 31.9805 25.4918C32.2073 25.2201 32.3254 24.5963 32.6508 24.44C32.9682 24.2876 33.8289 26.0632 33.692 26.3205C33.2916 27.0726 31.6906 27.2847 30.9791 27.5287C29.9782 27.8719 29.0113 28.309 28.181 28.966C27.1069 29.8159 25.9695 30.6115 24.5591 30.7239C24.0059 30.768 25.2822 29.8766 25.7222 29.5413C26.8406 28.6889 27.9735 27.8466 29.1711 27.1059C29.7113 26.7718 31.1496 25.7535 30.9194 26.3446C30.7592 26.7561 28.6068 29.0285 28.1721 28.879C28.1688 28.8778 30.9024 25.6215 31.246 25.2471C31.4401 25.0357 30.7941 25.6018 30.5732 25.7853C30.3577 25.9642 30.1439 26.1454 29.9223 26.3168C29.6723 26.5103 29.1721 27.1345 29.1196 26.8224C28.9933 26.0705 31.7975 24.8197 32.3733 24.5119" stroke="#F4961D" stroke-width="2.9961" stroke-linecap="round"/>
</svg>
